<?xml version="1.0" encoding="UTF-8" standalone="no"?>
<!-- Created with Inkscape (http://www.inkscape.org/) -->

<svg
   xmlns:dc="http://purl.org/dc/elements/1.1/"
   xmlns:cc="http://creativecommons.org/ns#"
   xmlns:rdf="http://www.w3.org/1999/02/22-rdf-syntax-ns#"
   xmlns:svg="http://www.w3.org/2000/svg"
   xmlns="http://www.w3.org/2000/svg"
   xmlns:sodipodi="http://sodipodi.sourceforge.net/DTD/sodipodi-0.dtd"
   xmlns:inkscape="http://www.inkscape.org/namespaces/inkscape"
   width="500cm"
   height="150cm"
   viewBox="0 0 17716.535 5314.9608"
   id="svg2"
   version="1.1"
   inkscape:version="0.91 r13725"
   sodipodi:docname="spanduk-foto.svg"
   inkscape:export-filename="/home/cho2/Gambar/openSUSE-Asia-Summit-2016-artwork/spanduk/spanduk-foto.png"
   inkscape:export-xdpi="90"
   inkscape:export-ydpi="90">
  <defs
     id="defs4" />
  <sodipodi:namedview
     id="base"
     pagecolor="#ffffff"
     bordercolor="#666666"
     borderopacity="1.0"
     inkscape:pageopacity="0.0"
     inkscape:pageshadow="2"
     inkscape:zoom="0.056568542"
     inkscape:cx="10496.688"
     inkscape:cy="2421.3694"
     inkscape:document-units="m"
     inkscape:current-layer="layer1"
     showgrid="false"
     units="m"
     inkscape:window-width="1366"
     inkscape:window-height="713"
     inkscape:window-x="0"
     inkscape:window-y="27"
     inkscape:window-maximized="1"
     showguides="true"
     inkscape:guide-bbox="true">
    <sodipodi:guide
       position="0,1975.0001"
       orientation="1,0"
       id="guide4155"
       inkscape:label=""
       inkscape:color="rgb(0,0,255)" />
    <sodipodi:guide
       position="17716.535,1775.0001"
       orientation="1,0"
       id="guide4157"
       inkscape:label=""
       inkscape:color="rgb(0,0,255)" />
    <sodipodi:guide
       position="4175,5314.961"
       orientation="0,1"
       id="guide4159"
       inkscape:label=""
       inkscape:color="rgb(0,0,255)" />
    <sodipodi:guide
       position="8199.9999,0"
       orientation="0,1"
       id="guide4161"
       inkscape:label=""
       inkscape:color="rgb(0,0,255)" />
    <sodipodi:guide
       position="9174.9999,2657.4805"
       orientation="0,1"
       id="guide4163"
       inkscape:label=""
       inkscape:color="rgb(0,0,255)" />
    <sodipodi:guide
       position="8858.2676,6825.0005"
       orientation="1,0"
       id="guide4165"
       inkscape:label=""
       inkscape:color="rgb(0,0,255)" />
  </sodipodi:namedview>
  <metadata
     id="metadata7">
    <rdf:RDF>
      <cc:Work
         rdf:about="">
        <dc:format>image/svg+xml</dc:format>
        <dc:type
           rdf:resource="http://purl.org/dc/dcmitype/StillImage" />
        <dc:title></dc:title>
      </cc:Work>
    </rdf:RDF>
  </metadata>
  <g
     inkscape:label="Layer 1"
     inkscape:groupmode="layer"
     id="layer1"
     transform="translate(0,4262.6572)">
    <rect
       style="color:#000000;clip-rule:nonzero;display:inline;overflow:visible;visibility:visible;opacity:1;isolation:auto;mix-blend-mode:normal;color-interpolation:sRGB;color-interpolation-filters:linearRGB;solid-color:#000000;solid-opacity:1;fill:#73ba25;fill-opacity:1;fill-rule:nonzero;stroke:none;stroke-width:7.08661413;stroke-linecap:butt;stroke-linejoin:miter;stroke-miterlimit:4;stroke-dasharray:none;stroke-dashoffset:0;stroke-opacity:1;color-rendering:auto;image-rendering:auto;shape-rendering:auto;text-rendering:auto;enable-background:accumulate"
       id="rect4167"
       width="17716.535"
       height="5314.9604"
       x="-0.00097656262"
       y="-4262.6572" />
    <g
       id="g4274"
       transform="matrix(1.6391297,0,0,1.6391297,-13949.09,-699.51378)">
      <path
         id="path4175"
         d="m 16028.061,80.452768 c 0,3.306936 -2.785,6.10913 -6.249,6.10913 l -2.784,0 c -3.307,0 -6.109,-2.784789 -6.109,-6.10913 l 0,-51.84928 -29.241,0 0,51.84928 c 0,3.306936 -2.959,6.10913 -6.44,6.10913 l -2.593,0 c -3.307,0 -6.109,-2.784789 -6.109,-6.10913 l 0,-51.84928 -21.93,0 c -3.133,0 -5.744,-2.262641 -5.744,-5.743627 l 0,-2.958837 c 0,-3.480986 2.611,-5.569577 5.744,-5.569577 l 76.755,0 c 2.959,0 5.048,1.0617 6.092,2.784788 l 14.446,21.75616 14.446,-21.75616 c 1.219,-1.566443 2.959,-2.784788 6.092,-2.784788 l 9.764,0 0,66.660874 c 0,3.132887 -2.959,6.091725 -6.44,6.091725 l -0.87,-0.504743 -2.785,0 c -3.307,0 -6.109,-2.784789 -6.109,-6.10913 l 0,-43.51232 -9.572,14.62014 c -1.045,1.392394 -2.959,2.088591 -4.7,2.088591 l -1.061,0 c -1.741,0 -3.83,-0.696197 -4.856,-2.088591 l -9.765,-14.62014 0,43.494915 z"
         inkscape:connector-curvature="0"
         style="fill:#ffffff" />
      <path
         id="path4177"
         d="m 15925.372,566.05026 0,14.09799 c 0,30.98077 -23.514,53.60718 -56.062,53.60718 l -423.444,0 c -30.807,0 -53.781,-23.14855 -53.781,-53.60718 l 0,-531.198402 c 0,-30.632673 23.844,-53.6071778 54.825,-53.6071778 l 0.174,0.5221479 404.665,0 c 32.547,0 56.218,22.4523569 56.218,53.4157239 l 0,14.115397 c 0,30.963367 -23.671,53.415721 -56.218,53.415721 0,0 -313.637,0 -329.127,0 0,13.94135 0,125.31548 0,139.06538 15.507,0 253.938,0 253.938,0 32.547,0 56.218,22.81786 56.218,53.78122 l 0,13.94135 c 0,31.15482 -23.671,53.58978 -56.218,53.58978 0,0 -238.431,0 -253.938,0 0,13.94134 0,121.66044 0,135.41034 15.507,0 346.706,0 346.706,0 32.721,0.0174 56.044,22.81786 56.044,53.45053 z"
         inkscape:connector-curvature="0"
         style="fill:#ffffff" />
      <path
         id="path4179"
         d="m 15540.897,-1648.5528 c 133.844,4.6994 238.813,117.4833 234.27,251.1531 -2.436,64.7464 -29.571,124.6193 -76.93,168.8278 -47.341,44.3826 -108.954,67.3571 -174.049,65.0945 -133.67,-4.8734 -238.43,-117.4833 -234.079,-251.1531 2.263,-64.7464 29.397,-124.7934 76.93,-169.0019 47.324,-44.2085 109.112,-67.183 173.858,-64.9204 z m 170.742,246.1057 c 3.133,-95.205 -71.377,-175.2676 -166.565,-178.5746 -46.106,-1.7405 -89.983,14.6202 -123.575,46.1231 -33.609,31.3289 -53.276,73.9709 -54.669,120.094 -3.133,95.205 71.378,175.2676 166.409,178.7486 46.297,1.3924 90.157,-14.9682 123.923,-46.2971 33.591,-31.5029 53.085,-74.145 54.477,-120.094 z"
         inkscape:connector-curvature="0"
         style="fill:#73ba25" />
      <path
         id="path4181"
         d="m 15545.074,-1581.0217 c 95.205,3.307 169.698,83.3696 166.565,178.5746 -1.392,45.949 -20.886,88.5911 -54.477,120.094 -33.766,31.3289 -77.626,47.6895 -123.923,46.2971 -95.031,-3.481 -169.524,-83.5436 -166.409,-178.7486 1.393,-46.1231 21.06,-88.7651 54.669,-120.094 33.592,-31.5029 77.452,-47.8636 123.575,-46.1231 z m 104.778,137.673 c 0,-28.37 -34.305,-51.1705 -76.582,-51.1705 -42.277,0 -76.408,22.8005 -76.408,51.1705 0,28.022 34.114,50.9965 76.408,50.9965 42.294,0 76.582,-22.9745 76.582,-50.9965 z"
         inkscape:connector-curvature="0"
         style="fill:#ffffff" />
      <path
         id="path4183"
         d="m 15573.27,-1494.5192 c 42.294,0 76.582,22.8005 76.582,51.1705 0,28.022 -34.305,50.9965 -76.582,50.9965 -42.277,0 -76.408,-22.9745 -76.408,-50.9965 0,-28.37 34.114,-51.1705 76.408,-51.1705 z"
         inkscape:connector-curvature="0"
         style="fill:#73ba25" />
      <path
         id="path4185"
         d="m 15280.519,388.34594 0,85.1101 c 0,97.485 -58.132,160.29939 -148.812,160.29939 l -345.836,0 c -32.547,0 -56.044,-22.80046 -56.044,-53.60718 l 0,-14.09799 c 0,-30.82413 23.497,-53.43313 56.044,-53.43313 l 328.1,0 c 35.681,0 36.707,-48.90785 36.707,-54.30337 l 0,-50.99644 c 0,-16.70873 -6.613,-36.3763 -36.707,-36.3763 l -240.379,0 c -68.401,0 -142.529,-56.04387 -142.529,-146.37545 l 0,-78.84432 c 0,-61.613447 58.132,-150.3785798 162.893,-150.3785798 l 0,0.6961972 282.325,0 c 32.895,0 57.262,23.1485546 57.262,53.4331286 l 0,14.097992 c 0,30.632673 -24.21,53.607182 -56.061,53.607182 l -262.118,0 c -34.462,0 -54.13,16.88278 -54.13,46.47115 l 0,46.81926 c 0,19.14542 16.013,45.40946 51.71,45.40946 l 236.708,0 c 65.251,0.0174 130.867,41.09303 130.867,132.4689 z"
         inkscape:connector-curvature="0"
         style="fill:#ffffff" />
      <path
         id="path4187"
         d="m 14561.87,-4.6573298 c 31.52,0 56.061,24.7149978 56.061,56.2005128 l 0,418.240417 c 0,97.29355 -76.425,167.80091 -181.882,167.80091 l -195.457,0 c -105.474,0 -181.864,-70.50736 -181.864,-167.80091 l 0,-418.240417 c 0,-31.50292 24.889,-56.2005128 56.044,-56.2005128 l 17.753,0 c 31.346,0 56.218,25.2371458 56.218,56.2005128 l 0,402.767437 c 0,32.19912 25.933,58.13246 57.958,58.13246 l 182.926,0 c 31.851,0 57.958,-25.93334 57.958,-58.13246 l 0,-402.750032 c 0,-30.963367 25.238,-56.2005128 56.201,-56.2005128 l 0.365,0 17.719,0 z"
         inkscape:connector-curvature="0"
         style="fill:#ffffff" />
      <path
         id="path4189"
         d="m 13946.431,388.34594 0,85.1101 c 0,97.485 -58.48,160.29939 -148.812,160.29939 l -346.01,0 c -32.721,0 -56.218,-22.80046 -56.218,-53.60718 l 0,-14.09799 c 0,-30.82413 23.671,-53.43313 56.218,-53.43313 l 328.083,0 c 35.506,0 36.377,-48.90785 36.377,-54.30337 l 0,-50.99644 c 0,-16.70873 -6.266,-36.3763 -36.377,-36.3763 l -240.362,0 c -68.749,0 -142.546,-56.04387 -142.546,-146.37545 l 0,-78.84432 c 0,-61.613447 57.958,-150.3785798 162.91,-150.3785798 l 0.348,0.6961972 282.482,0 c 32.721,0 57.262,23.1485546 57.262,53.4331286 l 0,14.097992 c 0,30.632673 -24.193,53.607182 -56.218,53.607182 l -262.118,0 c -34.636,0 -54.303,16.88278 -54.303,46.47115 l 0,46.81926 c 0,19.14542 16.012,45.40946 51.692,45.40946 l 236.533,0 c 65.269,0.0174 131.059,41.09303 131.059,132.4689 z"
         inkscape:connector-curvature="0"
         style="fill:#ffffff" />
      <path
         id="path4191"
         d="m 15927.982,-1069.6649 17.771,-3.3069 c 4.856,3.8291 4.16,11.6613 2.593,18.6233 -3.289,16.1865 -11.139,45.6009 -16.534,59.52482 l -4.526,11.48725 c -6.248,17.05683 -12.531,33.24341 -24.541,42.99017 -33.052,30.11053 -85.963,54.12933 -168.81,90.33158 -128.1,56.04387 -335.741,91.37587 -528.588,90.15752 -69.115,-1.56644 -135.95,-9.22461 -194.604,-15.83848 -179.602,-20.53782 -309.442,-35.15795 -336.437,128.10027 -34.114,204.68195 158.402,453.22433 160.316,455.46956 l -0.191,6.80533 -6.249,1.56644 c 0,0 -306.848,-141.32801 -314.35,-145.5052 l -9.747,-6.94456 -7.832,-7.50153 c -23.148,-22.2609 -69.62,-72.21304 -163.954,-181.5334 -182.926,-211.46987 -397.007,-239.31776 -562.005,-199.11237 -40.206,9.57271 -91.376,38.98704 -124.62,72.0564 -86.154,84.93605 -76.407,256.02649 -71.534,318.33613 5.744,70.48996 9.399,75.71144 10.965,81.45507 l -1.044,7.13602 -6.092,0.69619 -3.481,-2.43669 -251.675,-123.05284 -9.573,-41.07563 c -6.44,-27.15169 -13.924,-57.26221 -28.196,-95.0309 -89.983,-237.22917 -292.229,-415.62969 -515.012,-454.09458 -150.552,-25.93334 -425.028,-28.89218 -570.359,245.40949 -60.743,114.52442 -57.088,263.68466 9.573,389.34824 67.879,128.63982 189.191,211.12177 332.782,226.960259 142.372,15.507791 249.412,-17.404929 309.459,-95.204959 60.57,-78.49622 71.883,-185.36248 28.893,-272.38712 -46.123,-93.44706 -115.743,-143.06851 -212.515,-151.23142 -73.622,-6.61387 -128.274,24.0188 -147.941,55.34767 -5.744,9.76417 -16.187,27.86529 -16.361,53.60718 l 0,0.87025 c 0,70.14186 64.224,89.28728 77.278,90.17493 4.003,0 23.322,-0.52215 48.908,-6.96197 l 12.357,-3.98573 8.529,-2.97624 6.265,-1.20094 c 46.646,-8.52842 91.55,18.97137 104.604,64.39823 2.263,8.33696 3.481,16.70873 3.481,25.04569 0,30.11053 -15.316,58.13246 -40.728,75.18929 l 1.045,-0.3655 -2.785,1.56644 -4.177,2.61074 c -13.402,8.52841 -25.76,13.22774 -38.813,17.23088 -36.551,11.99199 -68.924,17.57897 -101.471,17.57897 -111.043,-0.17404 -265.773,-95.7271 -267.862,-275.17191 -1.044,-101.29668 49.778,-193.5428 139.24,-252.8936 103.037,-68.05327 281.089,-91.20182 446.262,10.09486 203.289,124.44523 256.375,368.09682 203.289,534.33129 -77.103,240.710151 -293.969,369.33257 -580.28,343.74733 -202.767,-18.10113 -391.089,-125.1414373 -503.176,-286.31107 -49.778,-71.37761 -86.677,-150.90073 -106.518,-230.2672 -45.775,-181.5334 0.522,-374.38 34.983,-459.8382 109.652,-271.69095 319.555,-505.43915 623.271,-694.97875 l 19.145,-12.0094 c 646.071,-397.0238 1103.299,-381.0113 1437.996,-369.35 394.761,13.7499 815.768,149.8564 873.901,169.1759 0.191,-13.0537 2.454,-130.711 2.454,-130.711 l 1.741,-4.0031 4.525,-1.2184 c 26.473,3.655 593.682,87.8949 832.669,227.1343 29.571,17.405 44.191,35.5061 62.484,54.3034 65.964,68.2273 153.337,352.4498 162.562,411.1044 l -3.481,5.9177 c -3.481,1.2183 -11.662,7.31 -22.627,14.6201 -55.695,38.9871 -186.058,130.1889 -353.146,115.2206 -150.204,-13.2277 -346.358,-99.3821 -582.891,-255.1562 10.461,24.5409 59.699,141.154 68.054,160.8215 l 3.132,3.8291 c 34.306,17.753 362.911,185.18845 525.995,181.88151 131.529,-2.61074 271.987,-66.83491 328.204,-100.60051 z m -152.815,-327.7348 c 4.543,-133.6698 -100.426,-246.4537 -234.27,-251.1531 -64.746,-2.2626 -126.534,20.7119 -173.858,64.9204 -47.515,44.2085 -74.667,104.2555 -76.93,169.0019 -4.351,133.6698 100.427,246.2797 234.079,251.1531 65.095,2.2626 126.708,-20.7119 174.049,-65.0945 47.342,-44.2085 74.494,-104.0814 76.93,-168.8278 z"
         inkscape:connector-curvature="0"
         style="fill:#ffffff" />
      <path
         id="path4193"
         d="m 13079.144,269.81838 c 22.626,-10.77365 50.822,-24.0188 88.069,-24.0188 l 11.487,0 c 65.094,0 107.214,38.81299 107.214,98.5119 l 0,261.42202 c 0,15.82107 -12.879,28.70072 -28.37,28.70072 l -11.139,0 c -15.838,0 -28.37,-12.87965 -28.37,-28.70072 l 0,-252.02336 c 0,-23.6707 -19.319,-42.99017 -42.816,-42.99017 l -94.509,0 c -23.67,0 -42.816,19.30206 -42.816,42.99017 l 0,252.02336 c 0,15.82107 -12.879,28.70072 -28.37,28.70072 l -11.139,0 c -15.838,0 -28.37,-12.87965 -28.37,-28.70072 l 0,-333.13033 c 0,-14.25463 9.573,-24.34949 22.8,-24.34949 l 10.966,0 c 10.442,0 18.101,4.52528 22.278,13.40179 l 7.832,14.27204 c 3.307,5.91768 5.047,6.24837 9.399,6.24837 9.746,0 21.756,-5.91767 35.854,-12.3575 z"
         inkscape:connector-curvature="0"
         style="fill:#ffffff" />
      <path
         id="path4195"
         d="m 12891.693,340.65644 0,77.10383 c 0,32.91272 -19.146,52.40624 -50.823,52.40624 0,0 -189.017,0 -197.894,0 0,8.00627 0,58.13246 0,58.13246 0,28.70073 16.187,43.68637 46.994,43.68637 l 109.651,0 c 16.36,0 28.37,11.3132 28.37,26.80359 l 0,8.70246 c 0,15.66444 -12.01,26.97764 -28.37,26.97764 l -133.67,0 c -49.43,0 -91.202,-43.86042 -91.202,-95.3616 l 0,-198.97314 c 0,-50.82239 42.99,-91.88061 95.901,-91.88061 l 0.174,0.3481 124.794,0 c 52.911,-0.0174 96.075,41.40632 96.075,92.05466 z m -68.576,70.31591 c 0,-8.00627 0,-61.78749 0,-61.78749 0,-21.58211 -16.708,-38.29085 -38.116,-38.29085 l -104.082,0 c -21.582,0 -38.117,17.05683 -38.117,38.29085 0,0 0,53.78122 0,61.78749 8.355,0 171.961,0 180.315,0 z"
         inkscape:connector-curvature="0"
         style="fill:#ffffff" />
      <path
         id="path4197"
         d="m 12230.131,528.80371 c 0,16.34323 9.051,30.45863 22.453,37.7687 l -16.013,35.3146 c -2.959,0 -6.265,5.23888 -6.265,10.09485 l 0,168.65376 c 0,15.49038 -12.706,28.37003 -28.371,28.37003 l -11.139,0 c -16.012,0 -28.37,-12.7056 -28.37,-28.37003 l 0,-508.04985 c 0,-13.55844 10.095,-24.3495 22.105,-24.3495 l 12.705,0 c 10.791,0 19.494,8.33696 21.408,12.6882 l 8.355,16.53468 c 2.088,2.95884 5.743,4.69933 9.572,4.69933 l 15.839,34.11366 c -13.402,7.13602 -22.279,21.25141 -22.279,37.7861 l 0,174.74547 z"
         inkscape:connector-curvature="0"
         style="fill:#ffffff" />
      <path
         id="path4199"
         d="m 12371.459,245.97363 c 65.269,0 107.215,38.79559 107.215,98.49449 l 0,193.9083 c 0,60.7258 -41.076,98.32044 -107.215,98.32044 l -11.661,0 c -37.42,0 -65.616,-12.86224 -88.069,-23.14855 -13.924,-6.42242 -25.759,-11.6613 -35.158,-11.6613 l 16.013,-35.3146 c 6.092,3.28953 13.054,5.22148 20.364,5.22148 l 94.508,0 c 23.845,0 42.816,-19.31947 42.816,-42.99018 l 0,-174.74547 c 0,-24.03621 -18.797,-42.81613 -42.816,-42.81613 l -94.508,0 c -7.485,0 -14.446,1.89714 -20.538,5.03003 l -15.839,-34.11366 c 9.399,0 21.234,-5.55217 34.81,-12.16605 22.801,-10.79105 50.823,-24.21025 88.243,-24.21025 l 0,0.19145 11.835,0 z"
         inkscape:connector-curvature="0"
         style="fill:#ffffff" />
      <path
         id="path4201"
         d="m 12065.829,340.13429 0,200.52218 c 0,51.51859 -41.772,93.46446 -92.942,93.46446 l -129.493,0 c -50.996,0 -92.594,-41.94587 -92.594,-93.46446 l 0,-200.52218 c 0,-50.82239 42.99,-91.88061 95.901,-91.88061 l 123.227,0 c 52.911,-0.0174 95.901,41.23227 95.901,91.88061 z m -68.227,192.67256 0,-182.75175 c 0,-21.23401 -17.927,-39.16109 -38.987,-39.16109 l -100.949,0 c -21.408,0 -38.987,17.57898 -38.987,39.16109 l 0,182.75175 c 0,21.93021 16.709,38.98704 38.117,38.98704 l 101.819,0 c 21.582,0 38.987,-17.57898 38.987,-38.98704 z"
         inkscape:connector-curvature="0"
         style="fill:#ffffff" />
    </g>
    <g
       id="g4203"
       transform="matrix(17.404928,0,0,17.404928,10483.721,-3239.0151)" />
  </g>
</svg>
