<?xml version="1.0" encoding="UTF-8" standalone="no"?>
<svg
   xmlns:dc="http://purl.org/dc/elements/1.1/"
   xmlns:cc="http://creativecommons.org/ns#"
   xmlns:rdf="http://www.w3.org/1999/02/22-rdf-syntax-ns#"
   xmlns:svg="http://www.w3.org/2000/svg"
   xmlns="http://www.w3.org/2000/svg"
   xmlns:sodipodi="http://sodipodi.sourceforge.net/DTD/sodipodi-0.dtd"
   xmlns:inkscape="http://www.inkscape.org/namespaces/inkscape"
   version="1.1"
   width="841.8898"
   height="595.2756"
   id="svg2"
   inkscape:version="0.91 r13725"
   sodipodi:docname="jogja_istimewa.svg">
  <metadata
     id="metadata44">
    <rdf:RDF>
      <cc:Work
         rdf:about="">
        <dc:format>image/svg+xml</dc:format>
        <dc:type
           rdf:resource="http://purl.org/dc/dcmitype/StillImage" />
        <dc:title></dc:title>
      </cc:Work>
    </rdf:RDF>
  </metadata>
  <defs
     id="defs42" />
  <sodipodi:namedview
     pagecolor="#ffffff"
     bordercolor="#666666"
     borderopacity="1"
     objecttolerance="10"
     gridtolerance="10"
     guidetolerance="10"
     inkscape:pageopacity="0"
     inkscape:pageshadow="2"
     inkscape:window-width="1366"
     inkscape:window-height="713"
     id="namedview40"
     showgrid="false"
     inkscape:zoom="0.79291007"
     inkscape:cx="330.84852"
     inkscape:cy="311.26226"
     inkscape:window-x="0"
     inkscape:window-y="27"
     inkscape:window-maximized="1"
     inkscape:current-layer="svg2" />
  <path
     d="  M11.1868,44.8603 L11.1868,550.4154 L830.7030,550.4154 L830.7030,44.8603 L11.1868,44.8603 Z"
     style="fill-rule: evenodd; fill: #e30016; "
     id="path4" />
  <g
     id="Layer1000">
    <path
       d="  M502.0136,264.0217 L480.4391,264.0207 C469.7707,264.0202 462.4854,256.8489 463.9549,247.2577 L469.6157,210.3056 C471.1456,200.3189 481.2020,189.3270 491.8823,189.3270 L532.5090,189.3278 L523.0097,251.3404 C522.4510,254.9881 524.9795,257.9768 528.6296,257.9768 L538.6763,257.9768 C538.2806,259.9918 534.4705,264.0217 531.0648,264.0214 L521.0666,264.0207 C517.2268,264.0203 513.8236,263.0912 511.1105,261.4542 C508.2680,263.0636 505.1686,264.0217 502.0136,264.0217 Z Z M286.2698,189.3278 L275.0029,262.8678 C273.4733,272.8548 263.4144,283.6777 252.7361,283.7762 L232.4699,283.7762 C232.5901,282.5305 235.4937,277.1413 240.9814,277.1413 L247.7478,277.1413 C250.7232,277.1413 254.1830,274.4036 254.6333,271.4636 L264.0032,210.3053 C265.5331,200.3181 275.5915,189.4262 286.2698,189.3278 Z Z M269.0570,177.3153 C270.5872,167.3279 280.6453,156.4361 291.3238,156.3378 L289.5281,168.0573 C287.9982,178.0430 277.9398,188.9363 267.2615,189.0348 L269.0570,177.3153 Z Z M461.9084,189.3278 L450.6415,262.8678 C449.1119,272.8548 439.0530,283.6777 428.3747,283.7762 L408.1085,283.7762 C408.2287,282.5305 411.1323,277.1413 416.6200,277.1413 L423.3864,277.1413 C426.3618,277.1413 429.8216,274.4036 430.2719,271.4636 L439.6418,210.3053 C441.1717,200.3181 451.2301,189.4262 461.9084,189.3278 Z Z M444.6957,177.3153 C446.2258,167.3279 456.2840,156.4361 466.9624,156.3378 L465.1667,168.0573 C463.6368,178.0430 453.5784,188.9363 442.9001,189.0348 L444.6957,177.3153 Z Z M414.9857,189.3274 C411.2250,193.0104 408.0511,199.8637 407.0818,205.5032 C410.6508,197.3688 418.7255,189.4084 427.4718,189.3278 L416.2048,262.8678 C414.6750,272.8540 404.6164,283.6777 393.9381,283.7762 L353.3226,283.7762 C353.4427,282.5305 356.3464,277.1413 361.8340,277.1413 L388.9498,277.1413 C391.9251,277.1413 395.3848,274.4036 395.8353,271.4636 L396.9754,264.0214 L375.4019,264.0207 C364.7346,264.0203 357.4484,256.8489 358.9177,247.2577 L364.5785,210.3056 C366.1084,200.3189 376.1652,189.3270 386.8451,189.3270 L414.9857,189.3274 Z Z M406.4422,202.0981 C406.9861,198.5137 404.6299,195.3717 400.8557,195.3717 L392.5530,195.3717 C388.9032,195.3717 385.4588,198.3588 384.9001,202.0081 L377.3449,251.3404 C376.7859,254.9900 379.3148,257.9768 382.9649,257.9768 L391.2677,257.9768 C394.8558,257.9768 398.3413,255.1062 398.8901,251.5253 L406.4422,202.0981 Z Z M326.3751,264.0217 L304.8007,264.0207 C294.1322,264.0202 286.8471,256.8489 288.3165,247.2577 L293.9773,210.3056 C295.5071,200.3189 305.5637,189.3270 316.2440,189.3270 L337.8185,189.3281 C348.4872,189.3281 355.7717,196.5003 354.3025,206.0911 L348.6418,243.0432 C347.1123,253.0296 337.0550,264.0222 326.3751,264.0217 Z Z M321.9518,195.3717 L330.2545,195.3717 C333.9046,195.3717 336.4335,198.3583 335.8745,202.0081 L328.3193,251.3404 C327.7603,254.9900 324.3167,257.9768 320.6666,257.9768 L312.3637,257.9768 C308.7136,257.9768 306.1848,254.9900 306.7438,251.3404 L314.2989,202.0081 C314.8580,198.3583 318.3017,195.3717 321.9518,195.3717 Z Z M503.9578,251.3404 C503.3996,254.9889 499.9551,257.9768 496.3049,257.9768 L488.0022,257.9768 C484.3521,257.9768 481.8231,254.9900 482.3821,251.3404 L489.9373,202.0081 C490.4963,198.3583 493.9401,195.3717 497.5902,195.3717 L512.5286,195.3717 L503.9578,251.3404 Z"
       style="fill-rule: evenodd; fill: #ffffff; "
       id="path7" />
    <path
       d="  M461.1767,291.0467 L464.3789,291.0467 L461.4939,309.1302 C461.2897,310.4107 460.0680,311.4586 458.7795,311.4586 L455.5773,311.4586 L458.4621,293.3751 C458.6664,292.0945 459.8880,291.0467 461.1767,291.0467 Z Z M481.6588,306.3133 C482.3111,302.4234 479.8719,300.2453 477.3170,299.3956 C474.9033,298.5929 472.5892,297.8233 472.7508,296.3744 C472.8709,295.2962 474.0507,294.4201 475.5239,294.3978 C476.9972,294.3756 477.6688,294.9377 478.1251,295.1062 C478.5294,295.2553 479.9058,296.3219 481.5806,294.3235 C481.9580,293.8733 482.1732,292.9023 481.5327,292.3380 C479.9988,290.9860 477.7896,290.3955 475.5489,290.4488 C472.1735,290.5285 467.9730,292.3921 467.5597,295.8872 C467.2686,298.3509 468.7532,300.3636 470.5257,301.4302 C473.3717,303.1429 476.5731,303.7701 476.3802,306.4515 C476.2861,307.7596 474.5290,308.0296 473.2194,308.0309 C471.7548,308.0321 470.0213,307.6641 469.3970,306.6858 C469.1672,306.3042 468.5588,305.5658 468.0114,305.8385 L465.6339,307.0228 C466.2719,310.2484 469.7504,311.8123 473.3150,311.6989 C476.1568,311.6084 481.0064,310.2032 481.6588,306.3133 Z Z M601.0957,308.7486 C601.7096,310.6933 603.0416,312.1770 604.5957,312.1884 C606.3073,312.2010 608.1849,311.0815 609.4193,308.4018 C607.9263,308.6529 605.8801,308.3069 606.1961,306.3264 L608.6337,291.0467 C596.4375,289.2725 590.4275,290.8631 588.5715,303.1823 C587.9263,307.8925 590.3344,312.0731 594.1502,312.0726 C596.5556,312.0725 599.4502,310.7394 601.0957,308.7486 Z Z M602.6029,294.0909 C597.5700,293.4806 594.9438,294.9980 593.8432,302.1177 C593.3537,305.5224 594.7905,308.6268 597.2196,307.7618 C598.8247,307.1903 600.0589,305.6890 600.9811,304.2564 L602.6029,294.0909 Z Z M513.5437,291.0467 L516.7459,291.0467 L516.2919,293.8924 C518.0373,292.0472 520.1138,290.7903 522.0702,290.6735 C524.5642,290.5246 526.2407,292.0826 526.6925,294.5256 C528.5433,292.3398 530.8633,290.8031 533.0357,290.6735 C536.4195,290.4713 538.2984,293.4111 537.6551,297.4412 L535.7887,309.1302 C535.5843,310.4104 534.3626,311.4586 533.0743,311.4586 L529.8721,311.4586 L532.0793,297.6231 C532.3035,296.2171 531.9665,295.0723 530.9244,295.0792 C529.6096,295.0881 527.9966,296.8058 526.4068,299.2119 L524.8232,309.1302 C524.6188,310.4104 523.3970,311.4586 522.1086,311.4586 L518.9066,311.4586 L521.1136,297.6231 C521.3378,296.2171 521.0010,295.0723 519.9587,295.0792 C518.6449,295.0881 517.0327,296.8026 515.4443,299.2061 L513.8611,309.1302 C513.6570,310.4107 512.4351,311.4586 511.1466,311.4586 L507.9444,311.4586 L510.8293,293.3751 C511.0337,292.0945 512.2551,291.0467 513.5437,291.0467 Z Z M558.3491,293.0586 C560.0956,296.2701 557.4228,302.9160 551.7507,303.4525 C549.3606,303.6786 547.3433,303.7375 545.9498,303.6420 C546.1219,306.1834 547.4757,307.8352 549.5453,307.8352 C550.6749,307.8352 552.5622,306.9167 554.4365,305.7149 C554.9080,305.4125 555.7853,305.3880 556.0822,305.8507 C556.5512,306.5814 556.8645,308.5450 556.0361,309.2907 C553.9595,311.1596 551.0114,312.1884 548.4084,312.1884 C543.1590,312.1884 539.6351,307.4397 540.5638,301.6177 C541.0613,298.4980 542.5524,294.5726 545.1262,292.7207 C549.9518,289.2485 556.6027,289.8471 558.3491,293.0586 Z Z M552.6398,294.3577 C554.2852,294.7525 553.4801,299.2015 551.1588,299.9838 C549.7622,300.4545 547.9546,300.4531 546.2149,300.3211 C546.6648,297.1053 548.9404,293.4700 552.6398,294.3577 Z Z M490.6893,287.0707 L493.8915,287.0707 L493.2232,291.2596 L497.7502,291.2596 L497.3987,293.4629 C497.2574,294.3495 496.4113,295.0751 495.5192,295.0751 L492.6146,295.0751 L491.1620,304.1800 C491.0599,304.8213 490.8472,306.7234 491.9435,307.5396 C492.5764,308.0108 493.8176,307.4719 495.3461,306.6345 L495.9934,309.5125 C494.4195,310.7254 492.8408,311.3867 490.6689,311.4586 C485.6955,311.6231 484.9047,308.6440 485.4071,305.4946 L487.0694,295.0751 L484.4873,295.0751 L484.8388,292.8717 C484.9803,291.9852 485.8261,291.2596 486.7182,291.2596 L487.6780,291.2596 L487.9749,289.3990 C488.1792,288.1185 489.4006,287.0707 490.6893,287.0707 Z Z M563.8751,291.0467 L567.0772,291.0467 L566.8176,305.3821 L571.7192,293.3751 C572.2498,292.0755 573.5644,291.0467 574.8530,291.0467 L578.1825,291.0467 L577.8913,307.1163 L583.5010,293.3751 C584.0315,292.0755 585.3461,291.0467 586.6348,291.0467 L589.1605,291.0467 L581.4965,309.1302 C580.9448,310.4323 579.6502,311.4586 578.3625,311.4586 L574.2980,311.4586 L574.2786,298.3616 L569.7149,309.1302 C569.1632,310.4325 567.8687,311.4586 566.5809,311.4586 L562.4035,311.4586 L561.7728,293.3751 C561.7277,292.0755 562.5864,291.0467 563.8751,291.0467 Z Z M507.8097,287.0110 C507.6055,288.2911 506.3836,289.3393 505.0953,289.3393 L501.8931,289.3393 L502.4007,286.1572 C502.6051,284.8765 503.8265,283.8288 505.1152,283.8288 L508.3173,283.8288 L507.8097,287.0110 Z Z M503.9637,291.0467 L507.1659,291.0467 L504.2811,309.1302 C504.0769,310.4107 502.8550,311.4586 501.5665,311.4586 L498.3643,311.4586 L501.2493,293.3751 C501.4536,292.0945 502.6750,291.0467 503.9637,291.0467 Z Z M465.0227,287.0110 C464.8185,288.2911 463.5966,289.3393 462.3082,289.3393 L459.1061,289.3393 L459.6137,286.1572 C459.8181,284.8765 461.0395,283.8288 462.3281,283.8288 L465.5303,283.8288 L465.0227,287.0110 Z"
       style="fill-rule: evenodd; fill: #ffffff; "
       id="path9" />
    <g
       id="Layer1001">
      <path
         d="  M87.2465,388.7917 C88.5235,388.7939 89.7992,388.8681 89.7678,387.7080 C89.7305,386.3336 88.0904,386.1691 87.1838,386.7667 C87.4770,385.4495 88.1429,384.2600 89.9743,384.2613 C91.8054,384.2628 93.1678,386.4259 93.1761,388.4286 C93.1845,390.4314 92.8453,392.5157 89.1475,392.5157 L87.2465,392.5157 L87.2465,405.3785 L90.9911,405.3785 L90.9911,420.3112 L93.6165,420.3112 L93.6165,424.0558 C94.5238,424.0558 95.4308,424.0558 96.3382,424.0558 C96.3382,425.3041 96.3382,426.5520 96.3382,427.8003 L99.0600,427.8003 L99.0600,431.5448 L59.4151,431.5448 L59.4151,427.8003 L62.1370,427.8003 C62.1370,426.5520 62.1370,425.3041 62.1370,424.0558 C63.0441,424.0558 63.9513,424.0558 64.8586,424.0558 L64.8586,420.3112 L67.4840,420.3112 L67.4840,405.3785 L71.2285,405.3785 L71.2285,392.5157 L69.3276,392.5157 C65.6297,392.5157 65.2906,390.4314 65.2989,388.4286 C65.3073,386.4259 66.6696,384.2628 68.5008,384.2613 C70.3322,384.2600 70.9981,385.4495 71.2912,386.7667 C70.3846,386.1691 68.7445,386.3336 68.7073,387.7080 C68.6681,389.1568 71.1986,388.7616 71.2285,388.7616 L71.5155,388.7622 L75.5001,358.9631 L72.8218,358.9693 C70.4745,358.9693 68.8665,357.4618 68.7263,355.8070 C68.6369,354.7455 69.1504,353.6234 70.4589,352.7987 C70.4732,353.6872 70.8665,354.5848 72.7678,354.5912 L76.1747,354.6034 C76.8477,350.6631 77.5302,347.1935 79.2375,343.3642 C80.9448,347.1935 81.6287,350.6631 82.3016,354.6034 L85.7074,354.5912 C87.6088,354.5848 88.0021,353.6872 88.0164,352.7987 C89.3249,353.6234 89.8384,354.7455 89.7489,355.8070 C89.6088,357.4618 88.0008,358.9693 85.6535,358.9693 L82.9750,358.9631 L86.9634,388.7913 L87.2465,388.7917 Z Z M75.2827,388.7693 L83.1945,388.7840 L79.2375,359.1910 L75.2827,388.7693 Z Z M87.2465,409.1230 L71.2285,409.1230 L71.2285,420.3112 L87.2465,420.3112 L87.2465,409.1230 Z Z M83.5020,392.5061 L74.9731,392.5061 L74.9731,405.3785 L83.5020,405.3785 L83.5020,392.5061 Z"
         style="fill-rule: evenodd; fill: #ffffff; "
         id="path12" />
      <path
         d="  M177.8517,394.7503 C176.2495,393.7152 174.7048,393.6004 172.9807,394.1034 C169.8668,395.0117 168.0653,398.1674 168.4104,401.3100 C168.7638,404.5176 171.8044,407.6420 175.3303,407.6914 C178.3097,407.7210 180.8783,405.8292 182.4264,403.4305 L186.5678,397.0274 L208.0227,397.0271 L213.6852,407.1041 C213.9156,407.5145 214.8233,408.0489 215.2934,408.0489 L229.1090,408.0489 C229.5785,408.0489 230.4865,407.5137 230.7172,407.1041 L236.3877,397.0271 L245.2930,397.0271 L248.3381,401.3380 C248.5632,401.6565 249.4553,402.1238 249.8452,402.1238 L266.6822,402.1238 C267.7017,402.1238 268.5285,401.2968 268.5285,400.2775 C268.5285,399.2583 267.7017,398.4313 266.6822,398.4313 L255.8631,398.4313 L255.8631,392.9425 C255.8631,390.7750 257.2610,389.4779 259.2464,389.3939 C260.0965,389.3577 260.9667,389.5878 261.6358,390.1375 C262.2396,390.6336 262.5518,391.3277 262.5534,392.0990 C262.5556,393.0686 262.2728,394.1257 261.1473,394.1905 C261.0836,394.1946 261.0424,394.1962 261.0210,394.1962 C261.0205,394.1962 261.0197,394.1962 261.0191,394.1962 C261.0186,394.1962 261.0180,394.1962 261.0175,394.1962 C261.0172,394.1962 261.0164,394.1962 261.0158,394.1962 C261.0158,394.1962 261.0155,394.1962 261.0155,394.1962 C261.0150,394.1962 261.0147,394.1962 261.0142,394.1962 C260.3733,394.1858 260.5043,393.5403 260.7047,393.1641 C261.3448,391.9642 260.4653,390.5224 259.1632,390.4700 C257.5136,390.4035 256.8587,392.3838 256.8469,393.7237 C256.8272,396.0104 258.7261,397.8577 260.9925,397.8769 L260.9993,397.8769 C261.1407,397.8778 261.2596,397.8761 261.3486,397.8712 C264.6781,397.6770 266.4870,394.6411 266.1993,391.5002 C265.8931,388.2184 263.0603,385.9060 259.8662,385.7168 L259.8662,385.7160 C259.8640,385.7160 259.8615,385.7160 259.8593,385.7160 C259.8593,385.7160 259.8590,385.7160 259.8590,385.7160 C259.7923,385.7124 259.7190,385.7094 259.6388,385.7083 C255.5235,385.6481 252.1824,388.4826 252.1824,392.9425 L252.1824,398.4313 L250.7969,398.4313 L247.7519,394.1207 C247.5270,393.8022 246.6346,393.3346 246.2447,393.3346 L242.1555,393.3346 L242.1555,375.5457 L250.2445,375.5457 C254.5446,375.5457 257.4351,372.3949 257.4710,368.3581 C257.5037,364.8177 254.8252,361.5261 251.1025,361.5115 C248.0561,361.5036 245.2878,363.4792 245.3189,366.7444 C245.3400,368.9839 247.4188,370.9885 249.6453,370.9688 C251.0556,370.9564 253.0322,369.9591 252.6714,368.2669 C252.4924,367.4232 251.7211,366.8081 250.8516,366.8232 C250.3658,366.8317 249.8189,367.1519 249.6168,367.3056 C249.2898,367.3076 248.9707,366.8946 248.9880,366.5893 C249.0525,365.4588 250.1129,365.1714 251.0885,365.1747 C252.8013,365.1780 253.8164,366.7798 253.8079,368.3293 C253.8079,370.4383 252.3502,371.8826 250.2445,371.8826 L187.0308,371.8826 C184.9253,371.8826 183.4673,370.4383 183.4673,368.3293 C183.4588,366.7798 184.4739,365.1780 186.1867,365.1747 C187.1623,365.1714 188.2227,365.4588 188.2872,366.5893 C188.3045,366.8946 187.9855,367.3076 187.6585,367.3056 C187.4564,367.1519 186.9094,366.8317 186.4237,366.8232 C185.5541,366.8081 184.7828,367.4232 184.6038,368.2669 C184.2430,369.9591 186.2197,370.9564 187.6299,370.9688 C189.8564,370.9885 191.9352,368.9839 191.9564,366.7444 C191.9874,363.4792 189.2191,361.5036 186.1727,361.5115 C182.4500,361.5261 179.7715,364.8177 179.8042,368.3581 C179.8402,372.3949 182.7306,375.5457 187.0308,375.5457 L194.4355,375.5457 L194.4355,393.3352 L185.5703,393.3352 C185.1502,393.3352 184.2559,393.8247 184.0269,394.1787 L179.1348,401.7432 L179.1277,401.7504 C178.3695,402.9242 176.8421,404.0143 175.3736,403.9992 C174.2344,403.9832 173.2229,403.1246 172.6210,402.2836 L172.6210,402.2762 C172.2281,401.7287 172.0200,401.1416 172.0189,400.5203 C172.0159,398.9508 173.1216,397.7328 174.7092,397.6037 C175.4772,397.5417 176.1238,397.7866 176.3775,398.5236 C176.4755,398.8094 176.2910,399.3231 175.9700,399.4028 C175.9579,399.4058 175.9294,399.3973 175.8808,399.3739 C174.9662,398.9258 173.8627,399.3053 173.4170,400.2210 C172.9711,401.1370 173.3511,402.2430 174.2657,402.6911 C175.1488,403.1238 176.0329,403.1823 176.8498,402.9799 C177.4950,402.8198 178.0749,402.4939 178.5593,402.0637 C179.0184,401.6562 179.3932,401.1581 179.6529,400.6282 C180.6944,398.5019 179.7987,396.0087 177.8517,394.7503 Z Z M254.2003,403.7553 L254.2022,403.7553 C258.0295,403.7559 261.5035,405.3166 264.0191,407.8325 C266.5340,410.3479 268.0938,413.8205 268.0949,417.6456 L268.0949,417.6500 L268.0949,417.6522 C268.0944,421.4726 266.5329,424.9455 264.0145,427.4652 L264.0177,427.4685 C261.5026,429.9836 258.0303,431.5435 254.2047,431.5446 L254.2003,431.5446 L254.1981,431.5446 C250.3779,431.5441 246.9048,429.9823 244.3850,427.4639 L244.3817,427.4674 C241.8666,424.9523 240.3067,421.4800 240.3056,417.6544 L240.3056,417.6500 L240.3056,417.6480 C240.3062,413.8207 241.8672,410.3468 244.3828,407.8311 C246.8979,405.3163 250.3708,403.7564 254.1959,403.7553 L254.2003,403.7553 Z Z M260.0180,426.0575 L256.0317,422.0712 L256.0317,427.7159 C257.4905,427.4501 258.8428,426.8738 260.0180,426.0575 Z Z M252.3686,427.7165 L252.3686,422.0712 L248.3796,426.0602 C249.5542,426.8752 250.9081,427.4512 252.3686,427.7165 Z Z M245.7928,423.4674 L249.7788,419.4814 L244.1341,419.4814 C244.3998,420.9399 244.9762,422.2922 245.7928,423.4674 Z Z M244.1346,415.8183 L249.7788,415.8183 L245.7936,411.8331 C244.9776,413.0083 244.4004,414.3600 244.1346,415.8183 Z Z M248.3831,409.2427 L252.3686,413.2282 L252.3686,407.5840 C250.9106,407.8501 249.5580,408.4267 248.3831,409.2427 Z Z M256.0317,407.5843 L256.0317,413.2282 L260.0177,409.2422 C258.8428,408.4264 257.4897,407.8498 256.0317,407.5843 Z Z M262.6081,411.8320 L258.6218,415.8183 L264.2660,415.8183 C264.0002,414.3597 263.4247,413.0066 262.6081,411.8320 Z Z M264.2673,419.4814 L258.6218,419.4814 L262.6122,423.4718 C263.4274,422.2969 264.0024,420.9427 264.2673,419.4814 Z Z M196.2670,398.1208 L196.2692,398.1208 C200.8724,398.1213 205.0504,399.9983 208.0762,403.0247 C211.1017,406.0502 212.9776,410.2271 212.9790,414.8284 L212.9790,414.8328 L212.9790,414.8347 C212.9785,419.4380 211.1015,423.6160 208.0751,426.6421 C205.0493,429.6676 200.8727,431.5435 196.2714,431.5446 L196.2670,431.5446 L196.2650,431.5446 C191.6623,431.5441 187.4838,429.6671 184.4577,426.6407 C181.4327,423.6151 179.5563,419.4383 179.5552,414.8372 L179.5552,414.8328 L179.5552,414.8306 C179.5557,410.2282 181.4327,406.0494 184.4591,403.0236 C187.4846,399.9980 191.6615,398.1219 196.2626,398.1208 L196.2670,398.1208 Z Z M204.1006,425.2560 L198.0987,419.2543 L198.0987,427.7519 C200.3274,427.4364 202.3785,426.5545 204.1006,425.2560 Z Z M194.4355,427.7519 L194.4355,419.2543 L188.4344,425.2552 C190.1565,426.5531 192.2074,427.4364 194.4355,427.7519 Z Z M185.8441,422.6659 L191.8455,416.6642 L183.3479,416.6642 C183.6634,418.8930 184.5453,420.9438 185.8441,422.6659 Z Z M183.3479,413.0011 L191.8455,413.0011 L185.8446,407.0003 C184.5467,408.7221 183.6634,410.7732 183.3479,413.0011 Z Z M188.4341,404.4099 L194.4355,410.4113 L194.4355,401.9135 C192.2074,402.2290 190.1560,403.1114 188.4341,404.4099 Z Z M198.0987,401.9132 L198.0987,410.4113 L204.1003,404.4096 C202.3785,403.1114 200.3271,402.2287 198.0987,401.9132 Z Z M206.6901,406.9994 L200.6885,413.0011 L209.1863,413.0011 C208.8708,410.7729 207.9889,408.7216 206.6901,406.9994 Z Z M209.1866,416.6642 L200.6885,416.6642 L206.6907,422.6665 C207.9892,420.9446 208.8711,418.8932 209.1866,416.6642 Z Z M229.1971,386.7882 C227.5475,386.7215 226.8926,388.7020 226.8808,390.0416 C226.8610,392.3283 228.7597,394.1759 231.0264,394.1951 L231.0332,394.1951 C231.1746,394.1960 231.2935,394.1943 231.3822,394.1894 C234.7120,393.9953 236.5209,390.9593 236.2331,387.8184 C235.9270,384.5367 233.0939,382.2242 229.9000,382.0347 L229.9000,382.0342 C229.8978,382.0342 229.8954,382.0342 229.8932,382.0342 C229.8932,382.0342 229.8929,382.0342 229.8929,382.0342 C229.8262,382.0303 229.7526,382.0273 229.6727,382.0262 C225.5576,381.9664 222.2163,384.8008 222.2163,389.2607 L222.2163,404.3566 L216.3706,404.3566 L210.7080,394.2794 C210.4779,393.8692 209.5696,393.3346 209.0998,393.3346 L198.0987,393.3346 L198.0987,375.5457 L238.4923,375.5457 L238.4923,393.3346 L235.3108,393.3346 C234.8413,393.3346 233.9333,393.8698 233.7026,394.2794 L228.0321,404.3566 L225.8970,404.3566 L225.8970,389.2607 C225.8970,387.0935 227.2951,385.7961 229.2803,385.7121 C230.1304,385.6761 231.0005,385.9060 231.6694,386.4557 C232.2735,386.9518 232.5859,387.6457 232.5873,388.4172 C232.5892,389.3107 232.3487,390.2797 231.4297,390.4757 C231.3086,390.5015 231.1796,390.5145 231.0549,390.5145 C231.0544,390.5145 231.0535,390.5145 231.0530,390.5145 C231.0524,390.5145 231.0519,390.5145 231.0511,390.5145 C231.0508,390.5145 231.0502,390.5145 231.0497,390.5145 C231.0497,390.5145 231.0494,390.5145 231.0494,390.5145 C231.0489,390.5145 231.0486,390.5145 231.0480,390.5145 C230.4072,390.5040 230.5382,389.8582 230.7386,389.4823 C231.3786,388.2824 230.4992,386.8406 229.1971,386.7882 Z"
         style="fill-rule: evenodd; fill: #ffffff; "
         id="path14" />
      <path
         d="  M521.4345,427.5061 L530.2439,427.5061 L530.2437,398.2173 L527.6277,398.2173 L527.6279,385.9394 C525.1433,385.3428 524.8769,383.5405 524.8848,381.7992 C524.8945,379.6700 526.5026,377.3702 528.6642,377.3686 C530.8255,377.3674 531.6118,378.6319 531.9575,380.0323 C530.8876,379.3970 529.3478,379.6266 528.9076,381.0330 C528.4590,382.4685 528.8982,383.0333 530.4320,383.2087 L543.6211,383.2087 L543.6211,375.7907 L539.9118,375.7907 C538.4009,375.7907 537.3545,376.7965 537.3545,378.2636 C537.3543,378.3007 537.3561,378.3564 537.3609,378.4330 L537.3609,378.4376 C537.4306,379.6098 538.2615,380.5244 539.5267,380.4505 C540.1726,380.4129 540.7720,380.1710 540.8135,379.4743 C540.8260,379.2555 540.6003,378.9749 540.3621,378.9758 C539.8701,379.4394 538.0025,379.7420 538.1454,377.9416 C538.2236,376.9571 539.4496,376.4341 540.3416,376.4267 C541.9396,376.4136 543.4307,377.8073 543.4464,379.3665 C543.4685,381.6421 541.5117,383.0148 539.2961,383.0079 C536.6395,382.9993 534.7046,380.7330 534.7258,378.2433 C534.7505,375.3856 536.8495,373.2416 539.9118,373.2416 L546.4695,373.2416 L563.2090,362.5933 L579.9487,373.2416 L586.5061,373.2416 C589.5684,373.2416 591.6675,375.3856 591.6921,378.2433 C591.7134,380.7330 589.7785,382.9993 587.1219,383.0079 C584.9063,383.0148 582.9494,381.6421 582.9716,379.3665 C582.9873,377.8073 584.4784,376.4136 586.0764,376.4267 C586.9684,376.4341 588.1943,376.9571 588.2726,377.9416 C588.4154,379.7420 586.5479,379.4394 586.0558,378.9758 C585.8177,378.9749 585.5920,379.2555 585.6044,379.4743 C585.6460,380.1710 586.2453,380.4129 586.8913,380.4505 C588.1565,380.5244 588.9873,379.6098 589.0570,378.4376 L589.0570,378.4330 C589.0619,378.3564 589.0637,378.3007 589.0635,378.2636 C589.0635,376.7965 588.0171,375.7907 586.5061,375.7907 L582.7969,375.7907 L582.7969,383.2087 L595.9848,383.2087 C597.5186,383.0333 597.9590,382.4685 597.5103,381.0330 C597.0702,379.6266 595.5304,379.3970 594.4605,380.0323 C594.8062,378.6319 595.5925,377.3674 597.7538,377.3686 C599.9154,377.3702 601.5235,379.6700 601.5332,381.7992 C601.5410,383.5403 601.2738,385.3423 598.7903,385.9391 L598.7900,398.2173 L596.1741,398.2173 L596.1743,427.5061 L604.9835,427.5061 L604.9835,431.5449 L521.4345,431.5449 L521.4345,427.5061 Z Z M563.2090,375.4768 C564.2233,375.4768 565.0507,376.3042 565.0507,377.3185 C565.0507,378.3328 564.2233,379.1602 563.2090,379.1602 C562.1947,379.1602 561.3673,378.3328 561.3673,377.3185 C561.3673,376.3042 562.1947,375.4768 563.2090,375.4768 Z Z M563.2090,372.4073 C565.9140,372.4073 568.1201,374.6134 568.1201,377.3185 C568.1201,380.0236 565.9140,382.2297 563.2090,382.2297 C560.5039,382.2297 558.2978,380.0236 558.2978,377.3185 C558.2978,374.6134 560.5039,372.4073 563.2090,372.4073 Z Z M546.9405,377.3453 L546.9405,384.3709 L579.4775,384.3709 L579.4775,377.3439 L563.2097,366.9963 L546.9405,377.3453 Z Z M592.1355,398.2173 L589.0842,398.2173 L589.0845,427.5061 L592.1357,427.5061 L592.1355,398.2173 Z Z M585.0457,398.2173 L582.4297,398.2173 L582.4297,396.9803 L578.3067,396.9803 L578.3067,421.0722 L585.0459,425.2421 L585.0457,398.2173 Z Z M534.2825,427.5061 L537.3337,427.5061 L537.3335,398.2173 L534.2822,398.2173 L534.2825,427.5061 Z Z M541.3723,425.5301 L548.1113,421.3602 L548.1113,396.9803 L543.9883,396.9803 L543.9880,398.2173 L541.3720,398.2173 L541.3723,425.5301 Z Z M576.6533,424.7988 L550.4965,424.6340 L545.8546,427.5061 L581.0288,427.5061 L576.6533,424.7988 Z Z M552.1501,396.9803 L552.1501,420.9965 L574.2679,420.9965 L574.2679,396.9803 L552.1501,396.9803 Z Z M594.7515,387.2475 L586.4685,387.2475 L586.4685,394.1785 L594.7515,394.1785 L594.7515,387.2475 Z Z M582.4297,392.9415 L582.4297,388.0257 L543.9883,388.0257 L543.9883,392.9415 L582.4297,392.9415 Z Z M539.9495,387.2475 L531.6665,387.2475 L531.6665,394.1785 L539.9495,394.1785 L539.9495,387.2475 Z"
         style="fill-rule: evenodd; fill: #ffffff; "
         id="path16" />
      <path
         d="  M690.4631,390.6611 C703.0729,390.6856 713.3502,400.9773 713.3502,413.5926 C713.3502,414.1034 713.3311,414.6097 713.2978,415.1123 C711.6337,415.1123 709.9688,415.1123 708.3041,415.1123 C707.5281,424.2930 699.7939,431.5443 690.4182,431.5443 C681.0425,431.5443 673.3083,424.2930 672.5323,415.1123 C670.8679,415.1123 669.2027,415.1123 667.5386,415.1123 C667.5329,415.0249 667.5283,414.9367 667.5234,414.8490 C666.3250,417.4640 663.6809,419.2888 660.6247,419.2888 C657.4300,419.2888 654.6863,417.2948 653.5728,414.4882 C653.1032,423.9624 645.2304,431.5443 635.6433,431.5443 C625.7557,431.5443 617.6916,423.4802 617.6916,413.5926 C617.6916,403.7050 625.7557,395.6409 635.6433,395.6409 C644.3044,395.6409 651.5659,401.8278 653.2344,410.0085 C653.5854,408.4836 654.3980,407.1323 655.5167,406.1098 L644.0973,388.7223 L639.3269,388.7223 C638.5538,388.7223 637.6700,387.8723 637.6700,387.0992 C637.6700,386.3261 638.5540,385.4758 639.3269,385.4758 L655.8533,385.4758 C656.9490,385.4758 658.0752,385.5421 659.1382,386.1022 C661.6678,387.4396 663.0916,390.2988 661.6255,392.9927 C660.6203,394.8399 658.0123,395.5854 656.1746,394.5869 C655.0107,393.9546 653.8123,392.2559 654.8573,391.0116 C655.3782,390.3914 656.2891,390.2214 657.0032,390.6173 C657.4024,390.8385 657.7144,391.3453 657.8142,391.5619 C658.0845,391.7079 658.5314,391.5057 658.6516,391.2455 C658.9579,390.5819 658.6369,389.9445 658.1435,389.4733 C657.5298,388.8869 656.7316,388.7223 655.8533,388.7223 L648.2149,388.7223 L653.4088,396.6307 L672.5003,396.6307 L667.9246,389.6636 L670.9001,387.5324 L676.2090,395.6156 C678.4116,393.8697 680.9406,392.5182 683.6866,391.6713 L678.0541,380.7382 L665.8087,383.6389 C662.7618,384.3605 659.6968,382.0717 659.4758,378.7231 C659.3244,376.4266 661.2995,374.2106 663.5831,374.0584 C665.0296,373.9620 667.1319,374.8313 666.8939,376.5937 C666.7752,377.4721 666.0323,378.1622 665.1405,378.2140 C664.6417,378.2431 664.0566,377.9571 663.8374,377.8153 C663.5021,377.8385 663.2074,378.2872 663.2484,378.5980 C663.3531,379.3907 663.6311,379.7427 664.6121,379.9395 C665.5931,380.1363 666.5488,379.4593 667.4548,378.7561 L685.6006,364.6678 L710.3252,370.0297 L712.9074,369.4392 C714.8709,368.9902 715.9231,367.3312 715.4728,365.3641 C715.1500,363.9166 713.8608,362.6390 712.2627,363.0008 C711.3518,363.2069 710.4239,363.7010 710.6050,364.7689 C710.6540,365.0582 711.0400,365.3752 711.3449,365.3035 C711.5001,365.1173 711.9419,364.7018 712.3934,364.5899 C713.2011,364.3903 714.0524,364.7988 714.3985,365.5485 C715.0966,367.0499 713.4660,368.4022 712.1531,368.7145 C710.0799,369.2081 707.7131,367.7817 707.2153,365.6973 C706.4891,362.6578 708.6505,360.2239 711.4937,359.5820 C714.9694,358.8004 718.1708,361.2993 718.8963,364.6087 C719.7243,368.3821 717.7056,371.9652 713.6880,372.8564 L696.0806,376.7634 L690.4631,390.6611 Z Z M691.5975,377.7519 L681.9678,379.8750 L686.8828,389.4158 L691.5975,377.7519 Z Z M702.2552,371.8032 L686.3849,368.2756 L674.0427,377.6015 L702.2552,371.8032 Z Z M635.6433,407.3425 C639.0863,407.3425 641.8934,410.1495 641.8934,413.5926 C641.8934,417.0356 639.0863,419.8427 635.6433,419.8427 C632.2002,419.8427 629.3931,417.0356 629.3931,413.5926 C629.3931,410.1495 632.2002,407.3425 635.6433,407.3425 Z Z M635.6433,409.7601 C637.7543,409.7601 639.4757,411.4815 639.4757,413.5926 C639.4757,415.7036 637.7543,417.4250 635.6433,417.4250 C633.5322,417.4250 631.8108,415.7036 631.8108,413.5926 C631.8108,411.4815 633.5322,409.7601 635.6433,409.7601 Z Z M635.6433,398.6388 C643.8799,398.6388 650.5970,405.3560 650.5970,413.5926 C650.5970,421.8292 643.8799,428.5463 635.6433,428.5463 C627.4067,428.5463 620.6895,421.8292 620.6895,413.5926 C620.6895,405.3560 627.4067,398.6388 635.6433,398.6388 Z Z M667.8640,409.4484 C668.5144,405.9104 669.9805,402.6520 672.0601,399.8772 L655.5410,399.8772 L658.5239,404.4196 C659.1918,404.2262 659.8959,404.1230 660.6247,404.1230 C664.0159,404.1230 666.8995,406.3679 667.8640,409.4484 Z Z M660.6247,406.5038 C663.4900,406.5038 665.8267,408.8405 665.8267,411.7059 C665.8267,414.5713 663.4900,416.9080 660.6247,416.9080 C657.7593,416.9080 655.4226,414.5713 655.4226,411.7059 C655.4226,408.8405 657.7593,406.5038 660.6247,406.5038 Z Z M705.2949,415.1123 C703.1108,415.1123 700.9268,415.1123 698.7430,415.1123 C698.8330,414.6187 698.8812,414.1114 698.8812,413.5926 C698.8812,408.9313 695.0795,405.1295 690.4182,405.1295 C685.7569,405.1295 681.9552,408.9313 681.9552,413.5926 C681.9552,414.1114 682.0034,414.6187 682.0934,415.1123 C679.9099,415.1123 677.7258,415.1123 675.5415,415.1123 C676.3072,422.6395 682.6945,428.5463 690.4182,428.5463 C698.1419,428.5463 704.5292,422.6395 705.2949,415.1123 Z Z M690.4182,407.3425 C693.8612,407.3425 696.6683,410.1495 696.6683,413.5926 C696.6683,417.0356 693.8612,419.8427 690.4182,419.8427 C686.9752,419.8427 684.1681,417.0356 684.1681,413.5926 C684.1681,410.1495 686.9752,407.3425 690.4182,407.3425 Z Z M690.4182,409.7601 C692.5293,409.7601 694.2506,411.4815 694.2506,413.5926 C694.2506,415.7036 692.5293,417.4250 690.4182,417.4250 C688.3071,417.4250 686.5858,415.7036 686.5858,413.5926 C686.5858,411.4815 688.3071,409.7601 690.4182,409.7601 Z Z M710.4642,412.0721 C709.6828,401.7048 700.9797,393.4888 690.4182,393.4888 C679.8567,393.4888 671.1536,401.7048 670.3722,412.0721 L679.2365,412.0721 C679.9826,406.5709 684.7176,402.3072 690.4182,402.3072 C696.1188,402.3072 700.8538,406.5709 701.5999,412.0721 L710.4642,412.0721 Z"
         style="fill-rule: evenodd; fill: #ffffff; "
         id="path18" />
      <path
         d="  M414.5902,366.4631 C415.9440,366.4631 417.2440,366.6965 418.4539,367.1246 L433.9068,351.6720 C436.4861,349.0930 440.7070,349.0930 443.2852,351.6720 L458.5723,366.9583 C462.1622,367.5004 465.2235,369.6927 466.9562,372.7325 C467.9776,372.4381 469.0563,372.2795 470.1701,372.2795 C476.5841,372.2795 481.8154,377.5108 481.8154,383.9248 C481.8154,388.6794 478.4776,394.0541 472.6280,394.4274 C470.1808,394.5836 467.7425,393.8528 465.9022,391.0189 C464.3460,387.8503 464.9010,383.9415 468.1597,382.2787 C470.3948,381.1380 473.4423,382.2625 474.5545,384.5914 C475.2589,386.0662 475.2731,388.6428 473.4089,389.1455 C472.4801,389.3973 471.4772,388.9130 471.0503,387.9997 C470.8118,387.4895 470.8517,386.7536 470.9016,386.4633 C470.7374,386.1219 470.1650,386.0037 469.8706,386.1805 C467.9626,387.3251 469.7120,391.0915 471.4733,391.2937 C475.3424,391.7397 478.1291,387.4345 478.1291,383.9248 C478.1291,379.5411 474.5538,375.9657 470.1701,375.9657 C468.0943,375.9657 466.2008,376.7672 464.7814,378.0767 C464.5736,373.8759 461.0827,370.5145 456.8320,370.5145 C453.6397,370.5145 450.8757,372.4105 449.6094,375.1343 C452.2208,376.1098 454.1610,378.0140 453.6000,381.3545 C453.1877,383.8110 449.5687,385.8662 447.5820,383.8204 C446.8991,383.1182 447.0572,382.1489 447.5570,381.2404 C448.3740,382.5916 449.8353,382.1175 449.9462,380.7150 C450.1222,378.4881 446.5030,377.7055 444.7698,377.7055 C440.3862,377.7055 436.8108,381.2809 436.8108,385.6645 C436.8108,385.9701 436.8284,386.2708 436.8621,386.5677 C437.1912,387.3631 437.4345,388.2019 437.5808,389.0733 C438.7805,391.5884 441.2632,393.3826 444.1727,393.6005 C444.6497,389.1886 448.2432,385.7342 452.9390,385.7342 C457.3045,385.7342 460.3406,389.0890 460.7462,393.4630 C461.0370,396.6183 458.9401,398.5839 455.8170,398.9033 C453.2777,399.1631 450.7769,398.5028 450.6336,395.3640 C450.5515,393.5632 451.8285,391.5516 453.9325,391.7143 C454.8766,391.7874 455.3763,392.5310 455.5884,393.4337 C454.4528,393.0976 453.6310,394.1124 453.7581,394.8897 C453.8797,395.6313 454.6611,395.8810 455.4603,395.8391 C457.2202,395.7483 457.6970,394.9127 457.5505,393.5502 C457.2657,390.9026 455.7216,388.9280 452.9390,388.9280 C448.2921,388.9280 446.6374,393.2286 447.8495,396.8943 C447.8432,396.8960 447.8369,396.8979 447.8306,396.8996 C444.0422,397.9365 440.0782,396.8619 437.2214,394.4378 C435.7488,399.1823 431.3143,402.6450 426.0965,402.6450 C424.4282,402.6450 422.8395,402.2898 421.4024,401.6533 C418.3312,405.2933 413.7405,407.6137 408.6239,407.6137 C403.2412,407.6137 396.3232,403.8448 393.4367,398.5706 C392.6914,398.7215 391.9207,398.8019 391.1320,398.8019 C384.7181,398.8019 379.4867,393.5705 379.4867,387.1566 C379.4867,381.5545 383.4781,376.8544 388.7622,375.7544 C389.3572,369.8913 394.3323,365.2902 400.3477,365.2902 C403.3788,365.2902 406.1457,366.4588 408.2213,368.3680 C410.0537,367.1643 412.2422,366.4631 414.5902,366.4631 Z Z M453.1567,367.4237 L442.2717,356.5392 C440.2508,354.5178 436.9427,354.5178 434.9211,356.5392 L422.1753,369.2847 C424.6582,371.4230 426.2355,374.5880 426.2355,378.1084 C426.2355,378.5196 426.2028,378.9363 426.1408,379.3549 C429.0084,379.3658 431.6368,380.4220 433.6642,382.1615 C435.1567,377.4498 439.5755,374.0192 444.7698,374.0192 C445.2013,374.0192 445.6265,374.0434 446.0461,374.0894 C447.3253,370.9589 449.9300,368.5019 453.1567,367.4237 Z Z M433.9998,390.0639 C433.6737,389.2847 433.4320,388.4573 433.2857,387.5914 C432.0053,384.9047 429.2619,383.0407 426.0965,383.0407 C425.6565,383.0407 425.2243,383.0761 424.8035,383.1453 C422.2153,387.7495 416.6321,390.8341 412.4010,385.6599 C410.2855,383.0659 410.1010,379.3731 412.9846,377.1999 C414.9623,375.7091 418.1583,376.1323 419.6821,378.0452 C420.6472,379.2566 421.1412,381.6150 419.4082,382.4473 C418.5447,382.8630 417.4718,382.6192 416.8832,381.8671 C416.5544,381.4470 416.4566,380.7646 416.4512,380.4886 C416.2268,380.2085 415.6439,380.2143 415.3883,380.4349 C414.4420,381.2516 414.9241,382.3499 415.6021,383.1800 C416.7905,384.6391 418.8973,384.4260 420.2494,383.3749 C421.8627,382.1339 422.5492,380.1404 422.5492,378.1084 C422.5492,373.7248 418.9738,370.1494 414.5902,370.1494 C411.6937,370.1494 409.1499,371.7095 407.7573,374.0333 C406.5936,371.0775 403.7083,368.9765 400.3477,368.9765 C396.4270,368.9765 393.1541,371.8361 392.5061,375.5766 C395.6486,375.8873 398.4109,377.3585 398.4557,381.1177 C398.4854,383.6083 395.2885,386.2728 392.9703,384.6119 C392.1737,384.0420 392.1575,383.0601 392.4882,382.0773 C393.5318,383.2620 394.8859,382.5366 394.7461,381.1363 C394.5728,379.4019 392.5149,379.1975 391.1320,379.1975 C386.7484,379.1975 383.1730,382.7729 383.1730,387.1566 C383.1730,391.5402 386.7484,395.1156 391.1320,395.1156 C391.4933,395.1156 391.8495,395.0909 392.1981,395.0437 C391.9642,393.5848 392.0582,392.0620 392.5696,390.5092 C393.3870,388.0275 395.4989,386.0837 398.3900,385.2410 C402.4468,384.0575 407.1462,385.9042 408.4380,389.9503 C409.4903,393.2627 408.1685,396.9156 404.4062,397.9408 C401.8257,398.6442 398.8104,397.0323 398.0704,394.6032 C397.6017,393.0647 398.0707,390.5903 400.1385,390.4341 C401.1693,390.3552 402.1403,390.9951 402.4206,391.9463 C402.5773,392.4775 402.3967,393.1763 402.2892,393.4463 C402.3991,393.8027 402.9829,394.0158 403.3277,393.8981 C404.6045,393.4613 404.5715,392.2141 404.2338,391.1537 C403.6434,389.2910 401.4552,388.7060 399.6777,389.2176 C395.7580,390.3239 396.0224,394.7921 397.7443,397.5803 C399.9983,401.2298 404.0347,403.6717 408.6239,403.6717 C413.7228,403.6717 418.1392,400.6576 420.1867,396.3212 C421.6451,397.9386 423.7558,398.9588 426.0965,398.9588 C430.4801,398.9588 434.0555,395.3834 434.0555,390.9997 C434.0555,390.6833 434.0359,390.3709 433.9998,390.0639 Z"
         style="fill-rule: evenodd; fill: #ffffff; "
         id="path20" />
      <path
         d="  M318.8677,391.0928 C323.3914,386.2923 323.1158,384.7300 318.6933,377.6734 L315.7509,372.9786 C314.5086,374.2347 312.5978,375.0414 310.4621,375.0414 C310.3353,375.0414 310.2099,375.0382 310.0848,375.0326 C310.0851,375.0540 310.0857,375.0754 310.0857,375.0968 C310.0857,377.7875 307.6665,380.0356 304.4972,380.4899 C304.4972,384.5697 304.4970,388.6551 304.4970,393.9858 C305.4783,393.6917 306.4625,393.5364 307.3580,393.5180 C310.8758,393.4461 314.0322,395.5895 314.8702,398.8338 L314.8702,395.3031 L314.8702,387.8187 C314.8700,385.4838 312.7834,384.3203 311.3256,384.3253 C310.0691,384.3301 308.3158,385.8386 308.1589,387.1591 C308.0453,388.1151 308.7628,389.6292 309.9148,389.3307 C309.9636,389.3183 309.9948,389.3097 310.0107,389.3045 C310.0112,389.3043 310.0118,389.3041 310.0123,389.3041 C310.0127,389.3039 310.0131,389.3036 310.0135,389.3036 C310.0138,389.3034 310.0142,389.3032 310.0146,389.3032 C310.0146,389.3032 310.0148,389.3032 310.0148,389.3032 C310.0153,389.3030 310.0155,389.3030 310.0159,389.3028 C310.4932,389.1388 310.4757,388.6605 310.2391,388.4120 C308.2544,386.3288 313.0820,386.1598 313.1522,389.3006 C313.1811,390.5920 312.2013,391.7643 310.8795,392.2061 L310.8743,392.2079 C310.7687,392.2429 310.6792,392.2705 310.6116,392.2882 C307.6864,393.0442 305.3128,390.2271 305.3165,387.3771 C305.3211,383.7510 307.7147,381.0486 311.6891,381.0655 C315.6634,381.0823 318.8679,384.6941 318.8677,388.6866 L318.8677,391.0928 Z Z M302.1509,431.5000 C301.4876,431.5268 300.8222,431.5443 300.1524,431.5443 C299.4826,431.5443 298.8172,431.5268 298.1539,431.5000 L298.1539,418.1595 L287.8548,418.1595 C284.3251,418.1595 281.4373,415.2717 281.4373,411.7422 L281.4373,396.8731 L276.3423,391.5091 C272.6398,387.6119 272.8439,382.9080 276.1234,377.6741 L300.1524,339.3352 L324.1813,377.6741 C327.4608,382.9080 327.6650,387.6119 323.9625,391.5091 L318.8675,396.8731 L318.8675,411.7422 C318.8675,415.2717 315.9797,418.1595 312.4500,418.1595 L302.1509,418.1595 L302.1509,431.5000 Z Z M314.0749,370.3047 L300.1524,348.0910 L282.3614,376.4769 C283.4261,377.7486 284.9916,378.5538 286.7330,378.5538 C288.0985,378.5538 289.3568,378.0576 290.3493,377.2305 C291.4413,378.3542 293.0278,379.0644 294.7890,379.0644 C296.8990,379.0644 298.7588,378.0457 299.8173,376.5167 C300.0405,376.5612 300.2686,376.5973 300.4996,376.6236 L300.4996,370.7707 C300.4994,368.4358 298.4198,366.8921 296.5335,366.8968 C294.6471,366.9018 293.3009,368.5926 293.1658,369.7308 C293.0306,370.8688 293.7697,372.2010 294.9219,371.9022 C294.9705,371.8901 295.0016,371.8812 295.0176,371.8760 C295.0181,371.8760 295.0187,371.8758 295.0191,371.8756 C295.0196,371.8754 295.0200,371.8754 295.0204,371.8752 C295.0207,371.8752 295.0213,371.8749 295.0217,371.8747 C295.0217,371.8747 295.0217,371.8747 295.0217,371.8747 C295.0222,371.8745 295.0224,371.8745 295.0228,371.8745 C295.5003,371.7105 295.4826,371.2322 295.2460,370.9835 C293.2613,368.9005 298.0884,368.7318 298.1591,371.8724 C298.1882,373.1631 297.2082,374.3358 295.8864,374.7779 L295.8812,374.7796 C295.7755,374.8146 295.6861,374.8420 295.6185,374.8597 C292.6935,375.6157 290.3195,373.1866 290.3234,369.9488 C290.3275,366.7110 292.7216,363.6204 296.6959,363.6370 C298.2193,363.6435 299.7205,364.2350 300.9933,365.1859 L300.9933,362.0961 C300.9933,359.1876 302.6327,358.3780 304.2082,358.3845 C305.7834,358.3910 307.4851,360.0056 307.4859,361.4458 C307.4870,362.8862 306.6537,363.4495 305.6177,363.6798 C305.9815,363.1280 305.7013,361.8111 305.3301,361.5642 C304.9592,361.3172 304.4970,361.3812 304.4970,363.5912 C304.4970,368.5751 304.4970,372.4853 304.4972,376.0820 C306.4024,375.2960 307.7912,373.8006 308.1272,372.0316 C308.4398,372.0677 308.7585,372.0871 309.0830,372.0871 C311.0554,372.0871 312.8354,371.3992 314.0749,370.3047 Z Z M280.3819,379.6829 C277.1467,385.1474 277.3819,386.8242 281.5799,391.2443 L281.8685,391.5482 C283.0316,387.9823 286.4221,384.3979 290.4046,384.3443 C295.3424,384.2776 299.1099,387.1975 299.1162,391.3810 C299.1218,395.3376 296.0864,399.2467 291.8006,398.1973 C291.7012,398.1729 291.5703,398.1345 291.4153,398.0858 L291.4080,398.0837 C289.4709,397.4701 288.0354,395.8432 288.0775,394.0506 C288.1806,389.6906 295.2542,389.9257 292.3463,392.8171 C291.9996,393.1620 291.9738,393.8259 292.6732,394.0536 C292.6739,394.0538 292.6741,394.0538 292.6747,394.0540 C292.6747,394.0540 292.6749,394.0540 292.6749,394.0540 C292.6756,394.0543 292.6765,394.0547 292.6769,394.0547 C292.6773,394.0549 292.6780,394.0551 292.6786,394.0553 C292.6793,394.0553 292.6801,394.0558 292.6808,394.0560 C292.7043,394.0631 292.7499,394.0752 292.8212,394.0921 C294.5095,394.5069 295.5610,392.4058 295.3944,391.0781 C295.1637,389.2444 293.1663,387.5113 291.3242,387.5056 C289.1870,387.4989 285.6830,388.7547 285.5603,391.9935 L285.4350,395.3028 L285.4343,395.3031 L285.4343,411.7420 C285.4343,413.0729 286.5241,414.1623 287.8545,414.1623 L298.1534,414.1623 L298.1534,408.2834 C298.1532,405.9485 296.0737,404.4048 294.1873,404.4095 C292.3010,404.4145 290.9547,406.1056 290.8197,407.2435 C290.6846,408.3815 291.4236,409.7137 292.5758,409.4149 C292.6244,409.4028 292.6555,409.3941 292.6717,409.3887 C292.6719,409.3887 292.6726,409.3885 292.6730,409.3883 C292.6734,409.3883 292.6739,409.3881 292.6743,409.3879 C292.6745,409.3879 292.6752,409.3877 292.6756,409.3877 C292.6756,409.3877 292.6758,409.3874 292.6758,409.3874 C292.6760,409.3874 292.6762,409.3872 292.6767,409.3872 C293.1542,409.2232 293.1364,408.7449 292.8999,408.4962 C290.9154,406.4132 295.7425,406.2443 295.8129,409.3851 C295.8419,410.6760 294.8623,411.8487 293.5402,412.2906 L293.5351,412.2923 C293.4294,412.3273 293.3400,412.3550 293.2723,412.3727 C290.3474,413.1284 287.9734,410.6993 287.9773,407.4615 C287.9814,404.2237 290.3755,401.1331 294.3498,401.1499 C295.6803,401.1555 296.9945,401.6064 298.1539,402.3540 L298.1539,401.2901 C298.1539,399.1264 299.1099,397.4217 300.4996,396.1671 L300.4996,380.0749 C300.3475,380.0183 300.1975,379.9565 300.0517,379.8912 C298.8703,381.5010 296.6990,382.5846 294.2249,382.5846 C292.5148,382.5846 290.9504,382.0665 289.7565,381.2156 C288.6985,381.6823 287.4862,381.9483 286.2002,381.9483 C283.8513,381.9483 281.7510,381.0627 280.3819,379.6829 Z Z M302.1509,409.1513 L302.1507,414.1623 L312.4500,414.1623 C313.7805,414.1623 314.8702,413.0725 314.8702,411.7420 L314.8702,402.4022 C314.2186,405.1426 312.1469,407.4607 309.3166,407.5419 C306.8961,407.6113 304.4197,405.9405 304.4838,403.2247 C304.5871,398.8649 311.2252,399.0998 308.3173,401.9910 C307.9705,402.3361 307.9446,403.0000 308.6442,403.2275 C308.6446,403.2277 308.6451,403.2279 308.6457,403.2279 C308.6457,403.2279 308.6459,403.2282 308.6459,403.2282 C308.6466,403.2284 308.6474,403.2286 308.6477,403.2286 C308.6483,403.2288 308.6489,403.2290 308.6496,403.2292 C308.6500,403.2295 308.6511,403.2297 308.6515,403.2299 C308.6751,403.2370 308.7209,403.2491 308.7922,403.2662 C310.4804,403.6808 311.5320,401.5794 311.3652,400.2520 C311.1349,398.4186 309.1362,396.6860 307.2949,396.6798 C305.1590,396.6726 302.1513,397.5459 302.1509,400.7867 L302.1509,409.1513 Z"
         style="fill-rule: evenodd; fill: #ffffff; "
         id="path22" />
      <path
         d="  M150.9953,413.0451 C154.3245,413.0451 157.0375,415.7581 157.0375,419.0841 L157.0379,431.5444 L119.7594,431.5444 L119.7594,419.0841 C119.7594,415.7581 122.4727,413.0451 125.7984,413.0451 C127.4286,413.0451 128.9109,413.6953 129.9995,414.7499 C130.9889,413.7911 132.3030,413.1664 133.7577,413.0607 L133.7575,409.1091 C132.7230,409.4707 131.5884,409.6690 130.3917,409.6690 C127.9331,409.6690 125.6386,408.8318 123.8702,407.4637 C121.9519,409.5772 118.6924,409.9591 116.3292,408.2472 C114.4135,406.8608 113.5358,404.3538 114.2057,402.0474 C111.6585,401.4859 109.7421,399.2077 109.7421,396.4962 C109.7421,394.7449 110.5417,393.1755 111.7937,392.1312 C111.1927,391.1115 110.8489,389.9625 110.8694,388.7325 C110.9300,385.0892 113.1930,381.5805 116.0879,380.0783 C115.9878,379.6118 115.9343,379.1287 115.9343,378.6330 C115.9343,374.8369 119.0305,371.7407 122.8265,371.7407 C123.0302,371.7407 123.2322,371.7501 123.4314,371.7674 C124.4939,369.3268 126.9301,367.6130 129.7543,367.6130 C130.8999,367.6130 131.9823,367.8948 132.9344,368.3929 C134.3549,366.9352 136.3372,366.0278 138.5258,366.0278 C140.7142,366.0278 142.6963,366.9350 144.1170,368.3927 C145.0693,367.8946 146.1515,367.6130 147.2970,367.6130 C150.1213,367.6130 152.5574,369.3268 153.6200,371.7674 C153.8194,371.7501 154.0213,371.7407 154.2250,371.7407 C158.0226,371.7407 161.1173,374.8354 161.1173,378.6330 C161.1173,379.0179 161.0856,379.3959 161.0242,379.7637 C163.9736,381.2467 166.2356,383.9766 166.1813,387.2268 C166.1530,388.9188 165.6911,390.5847 164.9270,392.0679 C166.2230,393.1116 167.0553,394.7094 167.0553,396.4962 C167.0553,399.2077 165.1389,401.4859 162.5917,402.0474 C163.2616,404.3538 162.3839,406.8608 160.4681,408.2472 C158.1050,409.9591 154.8455,409.5772 152.9272,407.4637 C151.1588,408.8318 148.8643,409.6690 146.4057,409.6690 C145.2082,409.6690 144.0742,409.4707 143.0397,409.1086 L143.0397,413.0607 C144.4940,413.1668 145.8083,413.7916 146.7974,414.7499 C147.8854,413.6953 149.3667,413.0451 150.9953,413.0451 Z Z M160.0614,392.6259 C161.4731,391.1968 162.4693,389.2736 162.3700,387.2149 C162.1986,383.6678 158.7886,381.9587 156.2668,381.8918 C153.7453,381.8246 151.6182,382.8167 151.5003,385.7572 C151.4598,386.7640 152.4975,388.2128 153.6687,388.2804 C153.7348,388.2847 153.7779,388.2864 153.8001,388.2864 C153.8007,388.2864 153.8016,388.2864 153.8020,388.2864 C153.8027,388.2864 153.8033,388.2864 153.8037,388.2864 C153.8042,388.2864 153.8050,388.2864 153.8055,388.2864 C153.8055,388.2864 153.8059,388.2864 153.8059,388.2864 C153.8063,388.2864 153.8067,388.2864 153.8072,388.2864 C154.4741,388.2755 154.6461,387.1492 154.4375,386.7578 C153.7714,385.5092 154.3789,383.9361 155.7332,383.8818 C157.4494,383.8133 158.1313,385.8735 158.1433,387.2675 C158.1627,389.5549 156.3366,391.4204 154.0996,391.5783 C154.9266,392.6267 155.4628,393.8778 155.5860,395.1990 C155.8853,398.4670 153.9574,401.5229 150.4929,401.7249 C150.4003,401.7300 150.2766,401.7318 150.1296,401.7309 L150.1224,401.7309 C147.7641,401.7108 145.7886,399.7884 145.8089,397.4094 C145.8209,396.0154 146.5028,393.9552 148.2190,394.0237 C149.5733,394.0780 150.1808,395.6510 149.5147,396.8997 C149.3061,397.2910 149.4781,398.4173 150.1450,398.4282 C150.1455,398.4282 150.1459,398.4282 150.1463,398.4282 C150.1463,398.4282 150.1468,398.4282 150.1468,398.4282 C150.1472,398.4282 150.1480,398.4282 150.1485,398.4282 C150.1489,398.4282 150.1495,398.4282 150.1502,398.4282 C150.1506,398.4282 150.1515,398.4282 150.1521,398.4282 C150.1744,398.4282 150.2174,398.4265 150.2835,398.4222 C151.4547,398.3546 151.9932,396.8302 151.9922,395.8220 C151.9896,394.0010 149.6318,392.4016 147.7857,392.4785 C146.2908,392.5407 143.8964,394.2434 143.0397,396.4692 L143.0397,405.4303 C144.0008,406.1183 145.2319,406.5281 146.5929,406.5281 C149.1831,406.5281 151.4827,405.0421 152.4070,402.9847 C152.5256,403.2755 152.6809,403.5570 152.8730,403.8224 C154.1720,405.6179 156.6960,406.0223 158.4920,404.7233 C160.0991,403.5588 160.5916,401.4132 159.7439,399.6885 C159.7850,399.6899 159.8269,399.6910 159.8684,399.6910 C164.4347,399.6910 164.5162,392.8670 160.0614,392.6259 Z Z M133.7573,405.4318 L133.7571,400.1688 C133.7571,399.1478 133.2294,397.1430 131.8464,397.0640 C130.1581,396.9677 129.7717,399.1298 130.5077,400.2460 C128.8856,399.8853 127.4207,399.0650 127.4222,396.8098 C127.4239,394.5547 129.5021,392.5108 131.9684,392.5005 C134.4347,392.4904 137.5876,393.2742 137.5876,397.8279 L137.5876,399.5357 L139.2100,399.5357 L139.2100,383.4231 C139.2100,381.1677 136.5295,379.3919 134.4640,379.3050 C133.5801,379.2680 132.1541,379.9325 131.4579,380.5045 C130.8297,381.0207 130.2590,381.8466 130.2578,382.6485 C130.2561,383.6571 130.7950,385.1814 131.9662,385.2488 C132.0326,385.2531 132.0753,385.2548 132.0976,385.2548 C132.0982,385.2548 132.0991,385.2548 132.0995,385.2548 C132.1002,385.2548 132.1008,385.2548 132.1012,385.2548 C132.1017,385.2548 132.1025,385.2548 132.1029,385.2548 C132.1029,385.2548 132.1034,385.2548 132.1034,385.2548 C132.1038,385.2548 132.1042,385.2548 132.1047,385.2548 C132.7716,385.2439 132.9436,384.1178 132.7350,383.7263 C132.0689,382.4778 132.6761,380.9050 134.0307,380.8504 C135.7471,380.7815 136.4286,382.8417 136.4410,384.2359 C136.4615,386.6153 134.4856,388.5375 132.1273,388.5577 L132.1203,388.5577 C131.9731,388.5585 131.8494,388.5568 131.7568,388.5515 C128.2923,388.3495 126.3644,385.2937 126.6639,382.0255 C126.9898,378.5307 130.6286,375.5184 134.0558,375.4700 C138.3379,375.4095 143.0397,378.7825 143.0397,383.4231 L143.0397,390.3485 C144.6557,389.2134 146.5420,388.6201 148.1940,388.6435 C148.4169,388.6467 148.6373,388.6601 148.8555,388.6826 C148.2618,387.6186 147.9721,386.3556 148.0487,385.0571 C148.2885,380.9959 151.4162,378.4975 156.2668,378.5651 C156.6306,378.5703 156.9964,378.5966 157.3612,378.6417 C157.2326,376.8723 155.7484,375.4681 153.9471,375.4681 C153.1818,375.4681 152.4729,375.7212 151.9016,376.1485 C151.7337,373.6520 149.6452,371.6682 147.1068,371.6682 C145.4797,371.6682 144.0367,372.4846 143.1666,373.7279 C142.9716,371.3397 140.9628,369.4515 138.5258,369.4515 C136.0884,369.4515 134.0786,371.3402 133.8842,373.7288 C133.0140,372.4848 131.5719,371.6682 129.9439,371.6682 C127.4059,371.6682 125.3168,373.6522 125.1491,376.1489 C124.5778,375.7214 123.8702,375.4681 123.1045,375.4681 C121.2193,375.4681 119.6816,377.0058 119.6816,378.8910 C119.6816,379.9524 120.1981,380.6940 120.7419,381.5385 C117.4307,382.0646 114.1736,385.1705 114.3463,388.7432 C114.5027,391.9793 117.6139,393.5384 119.9143,393.5998 C122.2146,393.6608 124.1554,392.7558 124.2628,390.0731 C124.2999,389.1544 123.3531,387.8328 122.2846,387.7714 C122.2242,387.7673 122.1853,387.7658 122.1650,387.7658 C122.1641,387.7658 122.1637,387.7658 122.1631,387.7658 C122.1624,387.7658 122.1613,387.7658 122.1613,387.7658 C122.1609,387.7658 122.1603,387.7658 122.1601,387.7658 C122.1601,387.7658 122.1596,387.7658 122.1596,387.7658 C122.1592,387.7658 122.1590,387.7658 122.1583,387.7658 C121.5498,387.7756 121.3930,388.8031 121.5834,389.1602 C122.1911,390.2995 121.6367,391.7345 120.4011,391.7842 C118.8356,391.8464 118.2134,389.9670 118.2025,388.6952 C118.1838,386.5248 119.9862,384.7710 122.1376,384.7526 L122.1442,384.7526 C122.2784,384.7515 122.3911,384.7535 122.4759,384.7582 C125.6365,384.9424 127.5882,387.7236 127.4119,390.7118 C127.1930,394.4169 124.3397,396.6960 119.9143,396.6344 C117.7598,396.6042 115.5423,395.7865 113.8415,394.4407 C113.5572,394.9493 113.3942,395.5340 113.3942,396.1562 C113.3942,398.1030 114.9822,399.6910 116.9290,399.6910 C116.9705,399.6910 117.0124,399.6899 117.0535,399.6885 C116.2058,401.4132 116.6983,403.5588 118.3054,404.7233 C120.1013,406.0223 122.6254,405.6179 123.9244,403.8224 C124.1165,403.5570 124.2718,403.2755 124.3904,402.9847 C125.3147,405.0421 127.6143,406.5281 130.2045,406.5281 C131.5642,406.5281 132.7962,406.1188 133.7573,405.4318 Z Z M137.5876,403.5913 L137.5876,414.0890 C137.8768,414.2858 138.1479,414.5073 138.3985,414.7499 C138.6490,414.5070 138.9210,414.2856 139.2100,414.0888 L139.2100,403.5913 L137.5876,403.5913 Z Z M153.3561,419.0851 C153.3561,417.7862 152.2958,416.7264 150.9964,416.7264 C149.6970,416.7264 148.6377,417.7862 148.6377,419.0851 L148.6377,427.8621 L153.3557,427.8621 L153.3561,419.0851 Z Z M144.9572,419.0851 C144.9574,417.7862 143.8968,416.7264 142.5974,416.7264 C141.2981,416.7264 140.2387,417.7862 140.2387,419.0851 L140.2387,427.8621 L144.9555,427.8621 L144.9572,419.0851 Z Z M136.5582,419.0851 C136.5584,417.7862 135.4976,416.7264 134.1982,416.7264 C132.8989,416.7264 131.8398,417.7862 131.8398,419.0851 L131.8398,427.8621 L136.5565,427.8621 L136.5582,419.0851 Z Z M128.1593,419.0851 C128.1595,417.7862 127.0987,416.7264 125.7993,416.7264 C124.4999,416.7264 123.4408,417.7862 123.4408,419.0851 L123.4417,427.8621 L128.1575,427.8621 L128.1593,419.0851 Z"
         style="fill-rule: evenodd; fill: #ffffff; "
         id="path24" />
      <path
         d="  M764.1733,308.1366 L763.2628,304.4289 L766.5925,304.4289 L765.6825,308.1366 L764.1733,308.1366 Z Z M740.6193,421.5615 C742.3375,422.0312 741.8116,425.8172 742.5910,426.3692 L742.5910,426.7739 L743.7088,426.7739 L743.7088,431.5444 L733.6970,431.5444 L733.6970,426.7739 L734.8143,426.7739 L734.8143,426.3692 C735.5936,425.8172 735.0700,422.0339 736.7860,421.5620 L736.7860,327.1936 C734.6853,330.1725 730.1956,331.2076 726.7903,330.0947 C723.3105,328.9585 720.9692,325.2486 722.1826,321.5960 C723.1799,318.6087 726.0287,316.5475 729.2178,317.6548 C731.4051,318.4147 732.6836,321.1129 731.9299,323.2881 C731.4529,324.6655 729.8237,326.2736 728.2845,325.3620 C727.5168,324.9079 727.1683,323.9495 727.4701,323.1024 C727.6385,322.6293 728.1327,322.1985 728.3501,322.0518 C728.4601,321.7316 728.1605,321.2830 727.8553,321.1991 C726.7264,320.8895 726.0954,321.8339 725.7769,322.7905 C725.2149,324.4698 726.4495,325.9929 727.9704,326.4960 C731.7120,327.7556 735.4180,324.8123 735.3151,321.0612 C735.2240,317.7499 733.1206,314.8805 729.1166,314.9122 C725.1127,314.9438 722.1443,320.5470 717.1592,320.5470 C712.5216,320.5470 710.3381,317.3825 710.3381,312.9199 L710.3381,311.8960 L708.9134,311.8960 L706.1329,300.5667 L708.6866,300.5667 L712.4777,296.7757 L716.2687,300.5667 L718.8224,300.5667 L716.0414,311.8960 L714.6172,311.8960 L714.6183,312.8699 C714.6194,314.6976 715.0702,316.5642 717.2192,316.5414 C721.3750,316.4969 724.1137,310.6397 729.0827,310.5919 C731.9643,310.5641 734.5864,312.3057 736.7860,314.4669 L736.7860,306.6719 L734.7382,306.6719 L734.7387,305.1632 C734.7387,304.0509 735.5419,303.1204 736.5981,302.9214 C736.9427,302.0982 737.7571,301.5178 738.7026,301.5178 C739.6487,301.5178 740.4625,302.0982 740.8072,302.9214 C741.8633,303.1204 742.6671,304.0515 742.6671,305.1632 L742.6671,306.6719 L740.6193,306.6719 L740.6193,314.4663 C742.8194,312.3057 745.4415,310.5641 748.3226,310.5919 C753.2915,310.6397 756.0303,316.4969 760.1860,316.5414 C762.3356,316.5642 762.7859,314.6976 762.7870,312.8699 L762.7881,311.8960 L761.3639,311.8960 L758.5829,300.5667 L761.1366,300.5667 L764.9276,296.7757 L768.7187,300.5667 L771.2729,300.5667 L768.4919,311.8960 L767.0672,311.8960 L767.0672,312.9199 C767.0672,317.3825 764.8837,320.5470 760.2461,320.5470 C755.2616,320.5470 752.2932,314.9438 748.2892,314.9122 C744.2847,314.8805 742.1813,317.7499 742.0907,321.0612 C741.9873,324.8123 745.6933,327.7556 749.4349,326.4960 C750.9558,325.9929 752.1904,324.4698 751.6289,322.7905 C751.3104,321.8339 750.6789,320.8895 749.5500,321.1991 C749.2448,321.2830 748.9457,321.7316 749.0552,322.0518 C749.2726,322.1985 749.7667,322.6293 749.9352,323.1024 C750.2370,323.9495 749.8885,324.9079 749.1208,325.3620 C747.5816,326.2736 745.9523,324.6655 745.4754,323.2881 C744.7216,321.1129 746.0001,318.4147 748.1875,317.6548 C751.3766,316.5475 754.2254,318.6087 755.2226,321.5960 C756.4361,325.2486 754.0948,328.9585 750.6150,330.0947 C747.2097,331.2070 742.7205,330.1725 740.6193,327.1936 L740.6193,421.5615 Z Z M713.2320,308.1366 L711.7233,308.1366 L710.8128,304.4289 L714.1425,304.4289 L713.2320,308.1366 Z"
         style="fill-rule: evenodd; fill: #ffffff; "
         id="path26" />
      <path
         d="  M807.6632,375.7603 L806.7527,372.0526 L810.0823,372.0526 L809.1724,375.7603 L807.6632,375.7603 Z Z M784.1092,421.5615 C785.8274,422.0312 785.3015,425.8172 786.0808,426.3692 L786.0808,426.7739 L787.1987,426.7739 L787.1987,431.5444 L777.1869,431.5444 L777.1869,426.7739 L778.3042,426.7739 L778.3042,426.3692 C779.0835,425.8172 778.5599,422.0339 780.2759,421.5620 L780.2759,394.8173 C778.1752,397.7962 773.6854,398.8312 770.2801,397.7184 C766.8004,396.5822 764.4590,392.8723 765.6725,389.2196 C766.6697,386.2324 769.5186,384.1712 772.7076,385.2785 C774.8950,386.0384 776.1735,388.7366 775.4197,390.9117 C774.9428,392.2892 773.3135,393.8973 771.7743,392.9857 C771.0067,392.5315 770.6581,391.5732 770.9600,390.7260 C771.1284,390.2530 771.6226,389.8222 771.8399,389.6754 C771.9500,389.3553 771.6504,388.9067 771.3452,388.8227 C770.2162,388.5131 769.5853,389.4575 769.2668,390.4142 C768.7048,392.0935 769.9394,393.6166 771.4603,394.1197 C775.2018,395.3793 778.9078,392.4359 778.8050,388.6849 C778.7138,385.3735 776.6104,382.5041 772.6065,382.5358 C768.6025,382.5675 765.6341,388.1707 760.6491,388.1707 C756.0114,388.1707 753.8280,385.0061 753.8280,380.5436 L753.8280,379.5196 L752.4033,379.5196 L749.6228,368.1904 L752.1765,368.1904 L755.9675,364.3993 L759.7586,368.1904 L762.3122,368.1904 L759.5312,379.5196 L758.1071,379.5196 L758.1082,380.4935 C758.1093,382.3212 758.5601,384.1879 760.7091,384.1651 C764.8648,384.1206 767.6036,378.2634 772.5726,378.2156 C775.4542,378.1878 778.0763,379.9293 780.2759,382.0906 L780.2759,374.2955 L778.2280,374.2955 L778.2286,372.7869 C778.2286,371.6746 779.0318,370.7441 780.0880,370.5451 C780.4326,369.7218 781.2470,369.1415 782.1925,369.1415 C783.1386,369.1415 783.9524,369.7218 784.2970,370.5451 C785.3532,370.7441 786.1570,371.6752 786.1570,372.7869 L786.1570,374.2955 L784.1092,374.2955 L784.1092,382.0900 C786.3093,379.9293 788.9314,378.1878 791.8124,378.2156 C796.7814,378.2634 799.5202,384.1206 803.6759,384.1651 C805.8255,384.1879 806.2757,382.3212 806.2768,380.4935 L806.2779,379.5196 L804.8538,379.5196 L802.0728,368.1904 L804.6264,368.1904 L808.4175,364.3993 L812.2086,368.1904 L814.7628,368.1904 L811.9818,379.5196 L810.5571,379.5196 L810.5571,380.5436 C810.5571,385.0061 808.3736,388.1707 803.7359,388.1707 C798.7514,388.1707 795.7831,382.5675 791.7791,382.5358 C787.7746,382.5041 785.6712,385.3735 785.5806,388.6849 C785.4772,392.4359 789.1832,395.3793 792.9247,394.1197 C794.4456,393.6166 795.6802,392.0935 795.1188,390.4142 C794.8003,389.4575 794.1688,388.5131 793.0398,388.8227 C792.7346,388.9067 792.4356,389.3553 792.5451,389.6754 C792.7624,389.8222 793.2566,390.2530 793.4250,390.7260 C793.7269,391.5732 793.3783,392.5315 792.6107,392.9857 C791.0715,393.8973 789.4422,392.2892 788.9653,390.9117 C788.2115,388.7366 789.4900,386.0384 791.6774,385.2785 C794.8664,384.1712 797.7153,386.2324 798.7125,389.2196 C799.9260,392.8723 797.5846,396.5822 794.1049,397.7184 C790.6996,398.8307 786.2104,397.7962 784.1092,394.8173 L784.1092,421.5615 Z Z M756.7218,375.7603 L755.2132,375.7603 L754.3027,372.0526 L757.6324,372.0526 L756.7218,375.7603 Z"
         style="fill-rule: evenodd; fill: #ffffff; "
         id="path28" />
      <path
         d="  M354.6592,433.1759 L354.6592,413.2656 C354.6592,411.1611 356.1034,409.7025 358.2124,409.7025 C359.7621,409.6936 361.3636,410.7091 361.3669,412.4218 C361.3703,413.3973 361.0829,414.4579 359.9522,414.5224 C359.6471,414.5397 359.2340,414.2206 359.2363,413.8932 C359.3897,413.6914 359.7099,413.1444 359.7188,412.6586 C359.7338,411.7892 359.1184,411.0176 358.2746,410.8387 C356.5825,410.4779 355.5853,412.4546 355.5731,413.8648 C355.5531,416.0917 357.5581,418.1701 359.7971,418.1912 C363.0623,418.2223 365.0379,415.4541 365.0301,412.4079 C365.0157,408.6852 361.7238,406.0065 358.1834,406.0392 C354.1467,406.0754 350.9960,408.9654 350.9960,413.2656 L350.9960,433.1759 L354.6592,433.1759 Z"
         style="fill-rule: evenodd; fill: #ffffff; "
         id="path30" />
      <path
         d="  M342.7743,433.1931 L342.7743,418.3997 C342.7743,416.2130 340.8100,414.6965 338.6181,414.6965 C337.0074,414.6872 335.3430,415.7428 335.3395,417.5227 C335.3360,418.5367 335.6347,419.6390 336.8098,419.7060 C337.1270,419.7239 337.5563,419.3923 337.5539,419.0520 C337.3945,418.8423 337.0617,418.2738 337.0525,417.7689 C337.0369,416.8653 337.6764,416.0634 338.5534,415.8774 C340.3120,415.5024 341.3485,417.5568 341.3612,419.0225 C341.3820,421.3369 339.2981,423.4971 336.9710,423.5190 C333.5774,423.5514 331.5242,420.6743 331.5323,417.5083 C331.5473,413.6392 334.9686,410.8552 338.6482,410.8892 C342.8436,410.9268 346.5816,413.9304 346.5816,418.3997 L346.5816,433.1931 L342.7743,433.1931 Z"
         style="fill-rule: evenodd; fill: #ffffff; "
         id="path32" />
      <path
         d="  M343.0726,420.3837 L343.0726,399.2930 C343.0726,397.2780 341.6891,395.8796 339.6687,395.8796 C338.1841,395.8711 336.6499,396.8440 336.6467,398.4846 C336.6435,399.4192 336.9188,400.4352 338.0020,400.4970 C338.2943,400.5135 338.6900,400.2078 338.6878,399.8942 C338.5409,399.7009 338.2341,399.1769 338.2256,398.7115 C338.2112,397.8786 338.8007,397.1395 339.6091,396.9680 C341.2301,396.6224 342.1854,398.5161 342.1971,399.8670 C342.2163,402.0003 340.2955,403.9914 338.1505,404.0116 C335.0226,404.0414 333.1300,401.3895 333.1375,398.4713 C333.1513,394.9051 336.3049,392.3389 339.6964,392.3703 C343.5635,392.4049 346.5818,395.1735 346.5818,399.2930 L346.5818,420.3837 L343.0726,420.3837 Z"
         style="fill-rule: evenodd; fill: #ffffff; "
         id="path34" />
      <path
         d="  M354.3210,416.3017 L350.9960,414.2938 L350.9960,391.2820 C350.9960,387.8324 353.8866,386.8726 355.7547,386.8799 C357.6229,386.8871 359.4805,389.1534 359.4818,390.8614 C359.4831,392.5694 358.4944,393.2371 357.2663,393.5107 C357.7501,392.7757 356.8266,390.2760 355.9261,390.5931 C355.0257,390.9102 354.3210,391.4211 354.3210,393.0545 L354.3210,416.3017 Z"
         style="fill-rule: evenodd; fill: #ffffff; "
         id="path36" />
      <path
         d="  M11.1868,431.5422 L355.2640,431.5427 C356.9850,433.7462 359.8277,435.1292 362.1657,435.1292 C364.5037,435.1292 365.9368,434.4166 367.4432,433.2003 C367.3437,432.8007 367.2981,432.3938 367.3315,432.0819 C367.5655,429.8940 369.1392,427.6494 371.7712,427.6416 C373.7868,427.6349 375.5367,429.0346 375.5306,430.8740 C375.5273,431.9013 374.6729,432.5127 373.6006,432.8268 C373.9319,431.4604 372.8568,430.8240 371.8968,430.8290 C370.9641,430.8340 370.4371,431.6889 370.5400,432.4599 C370.5816,432.7784 370.7395,433.1019 370.9741,433.4193 C372.4233,434.5011 374.3088,435.1292 375.9692,435.1292 C378.7013,435.1292 381.2500,433.6178 382.8703,431.5433 C384.5913,433.7468 387.0499,435.1292 389.7721,435.1292 C392.4947,435.1292 394.9528,433.7462 396.6738,431.5427 C398.3942,433.7462 400.8534,435.1292 403.5755,435.1292 C406.2976,435.1292 408.7557,433.7462 410.4772,431.5427 C412.1982,433.7462 415.0410,435.1292 417.3790,435.1292 C419.7170,435.1292 421.1500,434.4166 422.6564,433.2003 C422.5564,432.8007 422.5108,432.3954 422.5447,432.0819 C422.7804,429.8934 424.3518,427.6510 426.9844,427.6416 C429.0012,427.6344 430.7505,429.0335 430.7438,430.8740 C430.7394,431.9018 429.8861,432.5127 428.8138,432.8268 C429.1451,431.4604 428.0712,430.8229 427.1101,430.8290 C426.1762,430.8345 425.6492,431.6884 425.7526,432.4599 C425.7960,432.7795 425.9527,433.1019 426.1873,433.4193 C427.6365,434.5011 429.4047,435.1292 431.1824,435.1292 C432.9595,435.1292 434.5221,434.5744 435.9134,433.6095 C433.6955,430.3276 434.5704,426.0863 437.5116,423.4770 C438.9268,422.2202 440.7818,421.5387 442.6195,421.5348 C446.2810,421.5264 448.7852,423.9523 448.8953,427.4509 C448.9904,430.4927 446.9814,432.4933 444.4800,432.4866 C442.2237,432.4805 440.5522,431.8040 440.2598,429.4126 C440.1164,428.2319 440.5027,427.0390 441.8630,426.9295 C442.4789,426.8806 442.8202,427.0401 443.2437,427.5149 C443.5878,427.9012 443.2904,428.6605 443.3127,428.9273 C443.5472,429.1847 444.8358,429.1091 445.0687,428.8818 C445.4733,428.4860 445.6190,428.0012 445.5867,427.5210 C445.4778,425.9228 443.6934,424.8622 442.1703,424.8650 C439.9691,424.8695 438.1947,426.9440 438.1547,429.0657 C438.1319,430.3304 438.5733,431.6995 439.1853,432.7462 C440.7857,434.2370 442.9602,435.1292 444.9858,435.1292 C447.0114,435.1292 448.5929,434.4788 450.0576,433.3610 C449.6941,432.5555 449.4884,431.7128 449.3750,430.7684 C449.3033,430.1641 449.5168,428.7834 450.0171,428.1486 C451.3934,426.4014 453.9376,425.2858 456.1884,426.6143 C457.9121,427.6310 458.6531,429.7139 457.6586,431.2792 C457.1028,432.1542 456.0466,432.2414 454.9643,431.9657 C455.9805,430.9679 455.4068,429.8795 454.5836,429.3970 C453.7837,428.9284 452.8754,429.3887 452.5502,430.0986 C452.2722,430.7067 452.3995,431.5661 452.7047,432.4705 C454.3473,434.1270 456.2695,435.1292 458.7893,435.1292 C461.3091,435.1292 463.9695,433.7462 465.6899,431.5427 L830.7030,431.5427 L830.7030,435.3521 L465.6893,435.3521 C463.9689,437.5545 461.5114,438.9381 458.7893,438.9381 C456.0672,438.9381 453.6080,437.5545 451.8876,435.3516 C450.1655,437.5545 447.6857,438.9381 444.9858,438.9381 C442.2865,438.9381 439.8874,437.5995 438.1708,435.4611 L438.0530,435.3899 C436.3337,437.5706 433.8962,438.9381 431.1824,438.9381 C428.4681,438.9381 426.0017,437.5545 424.2801,435.3516 C422.5591,437.5545 420.1011,438.9381 417.3790,438.9381 C414.6568,438.9381 412.1982,437.5545 410.4772,435.3516 C408.7557,437.5545 406.2976,438.9381 403.5755,438.9381 C400.8534,438.9381 398.3942,437.5545 396.6738,435.3516 C394.9528,437.5545 392.4947,438.9381 389.7721,438.9381 C387.0499,438.9381 384.5913,437.5550 382.8703,435.3516 C381.1849,437.5106 378.7708,438.9381 375.9692,438.9381 C374.0014,438.9381 370.7884,437.5545 369.0669,435.3516 C367.3459,437.5545 364.8878,438.9381 362.1657,438.9381 C359.4436,438.9381 356.9850,437.5545 355.2640,435.3516 L11.1868,435.3516 L11.1868,431.5422 Z"
         style="fill-rule: evenodd; fill: #ffffff; "
         id="path38" />
    </g>
  </g>
</svg>
