<svg xmlns="http://www.w3.org/2000/svg" width="354" height="496"><path d="M-7,594L-85,612L40,588Z" fill="#719d74" stroke="#719d74" stroke-width="1.51"/><path d="M40,588L-85,612L250,596Z" fill="#5e9462" stroke="#5e9462" stroke-width="1.51"/><path d="M250,596L-85,612L374,616Z" fill="#3c8447" stroke="#3c8447" stroke-width="1.51"/><path d="M212,-101L312,-58L379,-69Z" fill="#93c799" stroke="#93c799" stroke-width="1.51"/><path d="M102,-118L212,-101L445,-113Z" fill="#a0d4a5" stroke="#a0d4a5" stroke-width="1.51"/><path d="M212,-101L379,-69L445,-113Z" fill="#8ebf93" stroke="#8ebf93" stroke-width="1.51"/><path d="M405,222L385,270L449,321Z" fill="#3b914b" stroke="#3b914b" stroke-width="1.51"/><path d="M437,151L405,222L449,321Z" fill="#45914f" stroke="#45914f" stroke-width="1.51"/><path d="M400,406L409,504L459,401Z" fill="#137636" stroke="#137636" stroke-width="1.51"/><path d="M449,321L405,382L459,401Z" fill="#1f7d3c" stroke="#1f7d3c" stroke-width="1.51"/><path d="M409,504L431,584L459,401Z" fill="#07692d" stroke="#07692d" stroke-width="1.51"/><path d="M396,-19L331,30L474,52Z" fill="#76ad7a" stroke="#76ad7a" stroke-width="1.51"/><path d="M331,30L334,99L474,52Z" fill="#73af77" stroke="#73af77" stroke-width="1.51"/><path d="M424,-33L396,-19L474,52Z" fill="#75a578" stroke="#75a578" stroke-width="1.51"/><path d="M334,99L437,151L474,52Z" fill="#66a26a" stroke="#66a26a" stroke-width="1.51"/><path d="M445,-113L424,-33L474,52Z" fill="#78a27b" stroke="#78a27b" stroke-width="1.51"/><path d="M437,151L449,321L474,52Z" fill="#519057" stroke="#519057" stroke-width="1.51"/><path d="M449,321L459,401L474,52Z" fill="#3b8547" stroke="#3b8547" stroke-width="1.51"/><path d="M409,504L395,510L431,584Z" fill="#00692a" stroke="#00692a" stroke-width="1.51"/><path d="M379,-69L424,-33L445,-113Z" fill="#80ad84" stroke="#80ad84" stroke-width="1.51"/><path d="M405,382L400,406L459,401Z" fill="#1b7c3b" stroke="#1b7c3b" stroke-width="1.51"/><path d="M385,330L405,382L449,321Z" fill="#248842" stroke="#248842" stroke-width="1.51"/><path d="M385,270L385,330L449,321Z" fill="#318f48" stroke="#318f48" stroke-width="1.51"/><path d="M334,99L405,222L437,151Z" fill="#5da363" stroke="#5da363" stroke-width="1.51"/><path d="M400,406L395,510L409,504Z" fill="#0c7633" stroke="#0c7633" stroke-width="1.51"/><path d="M395,510L374,616L431,584Z" fill="#006428" stroke="#006428" stroke-width="1.51"/><path d="M300,446L395,510L400,406Z" fill="#19803c" stroke="#19803c" stroke-width="1.51"/><path d="M334,99L333,235L405,222Z" fill="#5aa864" stroke="#5aa864" stroke-width="1.51"/><path d="M379,-69L396,-19L424,-33Z" fill="#80b183" stroke="#80b183" stroke-width="1.51"/><path d="M277,577L374,616L395,510Z" fill="#0e6f31" stroke="#0e6f31" stroke-width="1.51"/><path d="M310,360L400,406L405,382Z" fill="#248b44" stroke="#248b44" stroke-width="1.51"/><path d="M385,330L310,360L405,382Z" fill="#299048" stroke="#299048" stroke-width="1.51"/><path d="M333,235L385,270L405,222Z" fill="#499e56" stroke="#499e56" stroke-width="1.51"/><path d="M279,507L277,577L395,510Z" fill="#167d3a" stroke="#167d3a" stroke-width="1.51"/><path d="M310,360L300,446L400,406Z" fill="#278e47" stroke="#278e47" stroke-width="1.51"/><path d="M270,134L333,235L334,99Z" fill="#69b571" stroke="#69b571" stroke-width="1.51"/><path d="M300,446L279,507L395,510Z" fill="#1c833e" stroke="#1c833e" stroke-width="1.51"/><path d="M297,-3L331,30L396,-19Z" fill="#83ba87" stroke="#83ba87" stroke-width="1.51"/><path d="M312,-58L297,-3L396,-19Z" fill="#88be8d" stroke="#88be8d" stroke-width="1.51"/><path d="M379,-69L312,-58L396,-19Z" fill="#87b98b" stroke="#87b98b" stroke-width="1.51"/><path d="M333,235L267,309L385,270Z" fill="#48a45a" stroke="#48a45a" stroke-width="1.51"/><path d="M267,309L310,360L385,270Z" fill="#3da056" stroke="#3da056" stroke-width="1.51"/><path d="M385,270L310,360L385,330Z" fill="#34974e" stroke="#34974e" stroke-width="1.51"/><path d="M277,577L250,596L374,616Z" fill="#187236" stroke="#187236" stroke-width="1.51"/><path d="M104,567L40,588L250,596Z" fill="#4e9155" stroke="#4e9155" stroke-width="1.51"/><path d="M270,134L245,194L333,235Z" fill="#66b870" stroke="#66b870" stroke-width="1.51"/><path d="M245,194L262,245L333,235Z" fill="#5db469" stroke="#5db469" stroke-width="1.51"/><path d="M262,245L267,309L333,235Z" fill="#51ae62" stroke="#51ae62" stroke-width="1.51"/><path d="M331,30L255,64L334,99Z" fill="#7ebe83" stroke="#7ebe83" stroke-width="1.51"/><path d="M255,64L270,134L334,99Z" fill="#7abf80" stroke="#7abf80" stroke-width="1.51"/><path d="M297,-3L255,64L331,30Z" fill="#86c38b" stroke="#86c38b" stroke-width="1.51"/><path d="M232,467L300,446L310,360Z" fill="#2f974e" stroke="#2f974e" stroke-width="1.51"/><path d="M184,350L232,467L310,360Z" fill="#3da458" stroke="#3da458" stroke-width="1.51"/><path d="M232,-13L297,-3L312,-58Z" fill="#91ca97" stroke="#91ca97" stroke-width="1.51"/><path d="M212,-101L232,-13L312,-58Z" fill="#9bd19f" stroke="#9bd19f" stroke-width="1.51"/><path d="M267,309L184,350L310,360Z" fill="#41ab5d" stroke="#41ab5d" stroke-width="1.51"/><path d="M232,-13L255,64L297,-3Z" fill="#8ecb93" stroke="#8ecb93" stroke-width="1.51"/><path d="M232,467L279,507L300,446Z" fill="#2a9149" stroke="#2a9149" stroke-width="1.51"/><path d="M262,245L215,289L267,309Z" fill="#54b365" stroke="#54b365" stroke-width="1.51"/><path d="M255,64L242,136L270,134Z" fill="#7dc583" stroke="#7dc583" stroke-width="1.51"/><path d="M242,136L245,194L270,134Z" fill="#74c27c" stroke="#74c27c" stroke-width="1.51"/><path d="M212,513L250,596L277,577Z" fill="#268442" stroke="#268442" stroke-width="1.51"/><path d="M212,513L277,577L279,507Z" fill="#248a43" stroke="#248a43" stroke-width="1.51"/><path d="M232,467L212,513L279,507Z" fill="#2f934b" stroke="#2f934b" stroke-width="1.51"/><path d="M215,289L184,350L267,309Z" fill="#54b465" stroke="#54b465" stroke-width="1.51"/><path d="M184,350L143,409L232,467Z" fill="#4faa5f" stroke="#4faa5f" stroke-width="1.51"/><path d="M184,75L242,136L255,64Z" fill="#89cc8c" stroke="#89cc8c" stroke-width="1.51"/><path d="M232,-13L168,22L255,64Z" fill="#98d299" stroke="#98d299" stroke-width="1.51"/><path d="M168,22L184,75L255,64Z" fill="#98d397" stroke="#98d397" stroke-width="1.51"/><path d="M245,194L164,257L262,245Z" fill="#6abe71" stroke="#6abe71" stroke-width="1.51"/><path d="M164,257L215,289L262,245Z" fill="#64bc6e" stroke="#64bc6e" stroke-width="1.51"/><path d="M212,513L104,567L250,596Z" fill="#3d8f4b" stroke="#3d8f4b" stroke-width="1.51"/><path d="M143,409L173,480L232,467Z" fill="#4aa45a" stroke="#4aa45a" stroke-width="1.51"/><path d="M115,106L122,235L242,136Z" fill="#8fd18b" stroke="#8fd18b" stroke-width="1.51"/><path d="M242,136L122,235L245,194Z" fill="#7bc67d" stroke="#7bc67d" stroke-width="1.51"/><path d="M122,235L164,257L245,194Z" fill="#79c67a" stroke="#79c67a" stroke-width="1.51"/><path d="M184,75L115,106L242,136Z" fill="#94d291" stroke="#94d291" stroke-width="1.51"/><path d="M212,-101L168,22L232,-13Z" fill="#a6d8a5" stroke="#a6d8a5" stroke-width="1.51"/><path d="M173,480L212,513L232,467Z" fill="#3e9951" stroke="#3e9951" stroke-width="1.51"/><path d="M71,-59L168,22L212,-101Z" fill="#b6e1b2" stroke="#b6e1b2" stroke-width="1.51"/><path d="M102,-118L71,-59L212,-101Z" fill="#c2e6bd" stroke="#c2e6bd" stroke-width="1.51"/><path d="M173,480L104,567L212,513Z" fill="#499b54" stroke="#499b54" stroke-width="1.51"/><path d="M164,257L184,350L215,289Z" fill="#64bb6d" stroke="#64bb6d" stroke-width="1.51"/><path d="M61,-32L135,40L168,22Z" fill="#b7e2b1" stroke="#b7e2b1" stroke-width="1.51"/><path d="M71,-59L61,-32L168,22Z" fill="#c2e7bc" stroke="#c2e7bc" stroke-width="1.51"/><path d="M168,22L135,40L184,75Z" fill="#a5daa1" stroke="#a5daa1" stroke-width="1.51"/><path d="M135,40L115,106L184,75Z" fill="#a5daa0" stroke="#a5daa0" stroke-width="1.51"/><path d="M164,257L123,338L184,350Z" fill="#69be72" stroke="#69be72" stroke-width="1.51"/><path d="M123,338L143,409L184,350Z" fill="#62b76d" stroke="#62b76d" stroke-width="1.51"/><path d="M115,106L48,144L122,235Z" fill="#a2d99b" stroke="#a2d99b" stroke-width="1.51"/><path d="M122,235L123,338L164,257Z" fill="#79c67c" stroke="#79c67c" stroke-width="1.51"/><path d="M62,494L104,567L173,480Z" fill="#5aa361" stroke="#5aa361" stroke-width="1.51"/><path d="M143,409L72,447L173,480Z" fill="#5dac67" stroke="#5dac67" stroke-width="1.51"/><path d="M72,447L62,494L173,480Z" fill="#62ab6a" stroke="#62ab6a" stroke-width="1.51"/><path d="M60,245L42,288L122,235Z" fill="#90d18e" stroke="#90d18e" stroke-width="1.51"/><path d="M122,235L42,288L123,338Z" fill="#83ca85" stroke="#83ca85" stroke-width="1.51"/><path d="M123,338L41,373L143,409Z" fill="#70bc77" stroke="#70bc77" stroke-width="1.51"/><path d="M41,373L72,447L143,409Z" fill="#6fb877" stroke="#6fb877" stroke-width="1.51"/><path d="M48,144L60,245L122,235Z" fill="#9bd696" stroke="#9bd696" stroke-width="1.51"/><path d="M45,61L115,106L135,40Z" fill="#b4e1ad" stroke="#b4e1ad" stroke-width="1.51"/><path d="M61,-32L45,61L135,40Z" fill="#c0e6b9" stroke="#c0e6b9" stroke-width="1.51"/><path d="M42,288L41,373L123,338Z" fill="#7fc784" stroke="#7fc784" stroke-width="1.51"/><path d="M45,61L48,144L115,106Z" fill="#b4e1ad" stroke="#b4e1ad" stroke-width="1.51"/><path d="M19,37L45,61L61,-32Z" fill="#caeac3" stroke="#caeac3" stroke-width="1.51"/><path d="M62,494L40,588L104,567Z" fill="#63a067" stroke="#63a067" stroke-width="1.51"/><path d="M-8,-97L71,-59L102,-118Z" fill="#d5eecf" stroke="#d5eecf" stroke-width="1.51"/><path d="M12,387L21,439L41,373Z" fill="#81c086" stroke="#81c086" stroke-width="1.51"/><path d="M-8,308L41,373L42,288Z" fill="#8dcd91" stroke="#8dcd91" stroke-width="1.51"/><path d="M45,61L9,130L48,144Z" fill="#bbe4b4" stroke="#bbe4b4" stroke-width="1.51"/><path d="M48,144L-8,239L60,245Z" fill="#a6dba1" stroke="#a6dba1" stroke-width="1.51"/><path d="M8,509L40,588L62,494Z" fill="#6da971" stroke="#6da971" stroke-width="1.51"/><path d="M21,439L62,494L72,447Z" fill="#72b377" stroke="#72b377" stroke-width="1.51"/><path d="M41,373L21,439L72,447Z" fill="#78ba7f" stroke="#78ba7f" stroke-width="1.51"/><path d="M-8,-97L61,-32L71,-59Z" fill="#d6efd0" stroke="#d6efd0" stroke-width="1.51"/><path d="M9,130L-8,239L48,144Z" fill="#b2e0ac" stroke="#b2e0ac" stroke-width="1.51"/><path d="M-22,-27L19,37L61,-32Z" fill="#d4eecd" stroke="#d4eecd" stroke-width="1.51"/><path d="M-8,-97L-22,-27L61,-32Z" fill="#dcf1d5" stroke="#dcf1d5" stroke-width="1.51"/><path d="M21,439L8,509L62,494Z" fill="#74b179" stroke="#74b179" stroke-width="1.51"/><path d="M-8,239L42,288L60,245Z" fill="#9bd598" stroke="#9bd598" stroke-width="1.51"/><path d="M8,509L-7,594L40,588Z" fill="#6fa272" stroke="#6fa272" stroke-width="1.51"/><path d="M-8,308L12,387L41,373Z" fill="#89c98e" stroke="#89c98e" stroke-width="1.51"/><path d="M19,37L9,130L45,61Z" fill="#c5e8bd" stroke="#c5e8bd" stroke-width="1.51"/><path d="M-8,239L-8,308L42,288Z" fill="#9bd49a" stroke="#9bd49a" stroke-width="1.51"/><path d="M-90,202L-8,239L9,130Z" fill="#b8e2b2" stroke="#b8e2b2" stroke-width="1.51"/><path d="M-8,308L-60,331L12,387Z" fill="#92ce97" stroke="#92ce97" stroke-width="1.51"/><path d="M-97,105L9,130L19,37Z" fill="#cbebc4" stroke="#cbebc4" stroke-width="1.51"/><path d="M-107,43L-97,105L19,37Z" fill="#d8f0d2" stroke="#d8f0d2" stroke-width="1.51"/><path d="M12,387L-86,459L21,439Z" fill="#85be8b" stroke="#85be8b" stroke-width="1.51"/><path d="M-86,459L8,509L21,439Z" fill="#80b785" stroke="#80b785" stroke-width="1.51"/><path d="M-22,-27L-107,43L19,37Z" fill="#dbf1d5" stroke="#dbf1d5" stroke-width="1.51"/><path d="M-56,-32L-107,43L-22,-27Z" fill="#e2f4dd" stroke="#e2f4dd" stroke-width="1.51"/><path d="M-105,490L-85,612L-7,594Z" fill="#7da880" stroke="#7da880" stroke-width="1.51"/><path d="M-105,490L-7,594L8,509Z" fill="#7cae7f" stroke="#7cae7f" stroke-width="1.51"/><path d="M-97,105L-90,202L9,130Z" fill="#c7e8c0" stroke="#c7e8c0" stroke-width="1.51"/><path d="M-60,331L-86,459L12,387Z" fill="#90c795" stroke="#90c795" stroke-width="1.51"/><path d="M-76,268L-8,308L-8,239Z" fill="#a5d8a4" stroke="#a5d8a4" stroke-width="1.51"/><path d="M-69,-55L-22,-27L-8,-97Z" fill="#e5f5e0" stroke="#e5f5e0" stroke-width="1.51"/><path d="M-86,459L-105,490L8,509Z" fill="#86b88a" stroke="#86b88a" stroke-width="1.51"/><path d="M-69,-55L-56,-32L-22,-27Z" fill="#e6f5e0" stroke="#e6f5e0" stroke-width="1.51"/><path d="M-76,268L-60,331L-8,308Z" fill="#a1d5a2" stroke="#a1d5a2" stroke-width="1.51"/><path d="M-90,202L-76,268L-8,239Z" fill="#b2dfae" stroke="#b2dfae" stroke-width="1.51"/><path d="M-69,-55L-107,43L-56,-32Z" fill="#e6f6e1" stroke="#e6f6e1" stroke-width="1.51"/><path d="M-76,268L-86,459L-60,331Z" fill="#9acf9f" stroke="#9acf9f" stroke-width="1.51"/><path d="M-105,490L-86,459L-76,268Z" fill="#94c799" stroke="#94c799" stroke-width="1.51"/><path d="M-90,202L-105,490L-76,268Z" fill="#a2d5a6" stroke="#a2d5a6" stroke-width="1.51"/><path d="M-97,105L-107,43L-90,202Z" fill="#d1edcc" stroke="#d1edcc" stroke-width="1.51"/><path d="M-107,43L-105,490L-90,202Z" fill="#b6e0b2" stroke="#b6e0b2" stroke-width="1.51"/></svg>