<?xml version="1.0" encoding="UTF-8" standalone="no"?>
<!-- Created with Inkscape (http://www.inkscape.org/) -->

<svg
   xmlns:dc="http://purl.org/dc/elements/1.1/"
   xmlns:cc="http://creativecommons.org/ns#"
   xmlns:rdf="http://www.w3.org/1999/02/22-rdf-syntax-ns#"
   xmlns:svg="http://www.w3.org/2000/svg"
   xmlns="http://www.w3.org/2000/svg"
   xmlns:sodipodi="http://sodipodi.sourceforge.net/DTD/sodipodi-0.dtd"
   xmlns:inkscape="http://www.inkscape.org/namespaces/inkscape"
   width="210mm"
   height="297mm"
   viewBox="0 0 744.09448819 1052.3622047"
   id="svg4138"
   version="1.1"
   inkscape:version="0.91 r13725"
   sodipodi:docname="tugu.svg">
  <defs
     id="defs4140" />
  <sodipodi:namedview
     id="base"
     pagecolor="#ffffff"
     bordercolor="#666666"
     borderopacity="1.0"
     inkscape:pageopacity="0.0"
     inkscape:pageshadow="2"
     inkscape:zoom="0.24748737"
     inkscape:cx="1133.7123"
     inkscape:cy="547.90031"
     inkscape:document-units="px"
     inkscape:current-layer="g4166"
     showgrid="false"
     inkscape:window-width="1366"
     inkscape:window-height="707"
     inkscape:window-x="0"
     inkscape:window-y="27"
     inkscape:window-maximized="1" />
  <metadata
     id="metadata4143">
    <rdf:RDF>
      <cc:Work
         rdf:about="">
        <dc:format>image/svg+xml</dc:format>
        <dc:type
           rdf:resource="http://purl.org/dc/dcmitype/StillImage" />
        <dc:title />
      </cc:Work>
    </rdf:RDF>
  </metadata>
  <g
     inkscape:label="Layer 1"
     inkscape:groupmode="layer"
     id="layer1">
    <path
       d="m 0,1052.0884 305.49944,0.2738 -3.7423,-8.306 -20.3956,-2.8707 0.1828,-19.9701 -33.8913,-4.3971 -0.411,-30.1841 -10.0942,-7.3284 1.0049,-35.8178 -2.6493,-3.0688 2.7406,-0.091 0.1825,-10.2141 -23.38584,-18.5958 0.3198,-121.1485 13.10884,0.046 -2.1708,-11.9316 -4.1791,0 c 0,0 -0.092,-7.81 0.4337,-9.8938 0.5252,-2.0837 6.0976,-4.8778 10.0485,-5.0839 3.951,-0.2061 6.7598,-0.023 6.7598,-0.023 l 0.07,-17.0841 c 0,0 -3.4714,-0.4121 -3.7455,-4.9924 -0.2741,-4.5802 2.3755,-12.5966 3.4719,-14.1536 1.0964,-1.5571 1.0964,-1.5571 1.0964,-1.5571 0,0 -5.892,-5.817 -13.7939,-6.5041 -7.9019,-0.6871 -17.53004,2.3879 -17.53004,2.3879 0,0 -1.1971,-6.7847 -0.8317,-11.2277 0.3654,-4.4431 0.1828,-5.817 0.1828,-5.817 0,0 -1.633,0.7976 -3.4585,-6.7782 -1.8255,-7.5759 -3.8336,-16.4296 -8.7625,-53.8526 -4.9289,-37.423 -14.239,-128.6986 -14.239,-128.6986 0,0 9.2189,0.1825 11.9571,-5.5678 2.7383,-5.7504 0.3651,-9.6752 -0.9127,-12.8699 -1.2779,-3.1946 -3.1947,-5.1114 -3.1947,-5.1114 0,0 9.3101,-0.6389 9.7665,-0.6389 0.4564,0 -0.794,-4.6871 0.485,-8.1224 1.279,-3.4353 3.1519,-5.1758 3.1519,-5.1758 l 11.099,-0.1834 -0.1828,-22.3974 -7.5365,-0.4122 -6.897,-11.0843 -15.0726,4.3971 -8.9524,-4.4889 -0.1828,-12.18329 -10.1398,0.046 c 0,0 -7.7588,-87.8051 -8.0326,-89.3568 -0.2738,-1.5517 -3.4778,-2.7068 -5.5332,-2.3862 -2.0554,0.3206 -3.3344,2.0611 -3.3344,2.0611 l -7.2167,89.4988 -11.0078,0.2747 0.0916,12.41259 -8.4501,4.214 -15.8709,-4.3515 -7.1025,11.634 -6.874,0.023 -0.1143,22.9703 11.7842,-0.069 c 0,0 2.9676,2.5421 3.2417,5.84 0.2741,3.2978 -1.4159,6.4122 -1.4159,6.4122 l 10.5064,1.2827 c 0,0 -4.8884,6.3663 -5.2994,12.0002 -0.411,5.6338 5.2982,9.0235 8.3129,10.489 3.0146,1.4655 5.3898,1.6946 5.3898,1.6946 0,0 -11.1425,93.5932 -14.4309,122.0933 -3.2885,28.5001 -7.4418,59.2421 -9.2673,63.0756 -1.8256,3.8336 -3.2049,4.3631 -3.2049,4.3631 0,0 0.8223,6.687 0.457,10.2597 -0.3654,3.5728 -0.9137,6.1835 -0.9137,6.1835 0,0 -7.7649,-2.7941 -13.3829,-2.9772 -5.618,-0.1831 -14.3878,3.2981 -16.2147,4.443 -1.827,1.145 -2.1011,1.5115 -2.1011,1.5115 0,0 4.6591,6.046 4.7503,11.9545 0.0913,5.9086 -0.2724,7.2825 -1.6653,8.4277 -1.393,1.1452 -1.5755,1.1679 -1.5755,1.1679 l -0.3884,16.8554 c 0,0 11.0753,-0.9845 15.4143,2.817 4.339,3.8016 1.2325,12.2293 1.2325,12.2293 l -3.2431,0 -2.3752,12.2295 12.6978,0.046 0.2285,121.1485 -23.2489,18.5961 0.0912,10.0766 3.106,0.092 -3.0354,3.3664 0.9343,36.0238 -9.5003,6.7791 -0.9592,29.268 -34.0283,5.3589 -0.2284,19.512 -19.5914,3.206 -3.8409,7.9259 z"
       style="fill:#73ba25;fill-rule:evenodd"
       id="path4"
       inkscape:connector-curvature="0" />
    <g
       style="display:inline;fill:#6da741"
       transform="translate(2100.5697,961.85158)"
       id="g4152">
      <path
         inkscape:connector-curvature="0"
         id="path4154"
         d="m -1300.4896,89.90199 c -0.3357,-0.5965 0.4144,-3.3816 1.667,-6.189112 2.2415,-5.023888 2.4213,-5.1287 11.3833,-6.632625 5.0083,-0.840438 10.6528,-1.82245 12.5434,-2.182263 l 3.4375,-0.654187 0,-12.1701 0,-12.1701 20.3125,-2.850513 c 11.1719,-1.567775 20.6325,-3.048012 21.0236,-3.289425 0.3911,-0.2414 0.8092,-3.421812 0.929,-7.067562 0.1199,-3.645763 0.571,-11.845625 1.0024,-18.2219 l 0.7844,-11.593238 5.5922,-4.015975 5.5921,-4.0159875 -0.3968,-22.5157745 c -0.2183,-12.383688 0.043,-23.218913 0.5806,-24.078288 0.5516,-0.88175 0.4008,-1.5625 -0.3462,-1.5625 -0.7653,0 -1.3238,-2.79695 -1.3238,-6.629787 0,-7.620725 0.5638,-8.296975 18.75,-22.487288 l 10.625,-8.290487 -0.3291,-75.358708 -0.3291,-75.35873 -7.4834,0.42353 c -7.3658,0.41687 -7.4834,0.37153 -7.4834,-2.88398 0,-1.81912 0.6293,-5.80659 1.3984,-8.86102 1.0519,-4.17756 1.998,-5.55353 3.8185,-5.55353 2.1068,0 2.3707,-0.76739 2.0391,-5.92762 -0.332,-5.1661 -0.8559,-6.15433 -4.0774,-7.69232 -2.0331,-0.97058 -6.8143,-2.10073 -10.625,-2.51145 l -6.9286,-0.74675 0.4406,-11.24842 c 0.3116,-7.95365 0.9523,-11.54124 2.1875,-12.24805 2.4417,-1.3972 2.1762,-8.0234 -0.6906,-17.23446 -1.3407,-4.30749 -2.1463,-8.30314 -1.7902,-8.87923 0.356,-0.57609 2.9591,-2.22679 5.7845,-3.66822 6.4409,-3.28589 17.7524,-4.37895 25.3966,-2.45413 3.2179,0.81028 6.2041,1.11929 6.6361,0.68669 0.432,-0.43259 0.7624,-4.95791 0.7342,-10.05628 -0.028,-5.09837 0.4075,-9.26976 0.9684,-9.26976 1.8585,0 3.4913,-6.37734 7.1657,-27.98774 5.7483,-33.8086 16.5578,-124.39933 24.2035,-202.84173 0.4907,-5.03433 0.3726,-5.22975 -3.6125,-5.97735 -2.2658,-0.42508 -5.8475,-2.38687 -7.9593,-4.35953 -4.6967,-4.38745 -5.1784,-11.30878 -1.3141,-18.88345 l 2.5254,-4.9502 -2.8379,-0.0171 c -1.5608,-0.01 -4.1515,-0.36878 -5.7569,-0.79864 -2.5427,-0.68082 -2.8183,-1.31879 -2.1374,-4.94812 0.5072,-2.70382 0.094,-5.49522 -1.1756,-7.95135 -1.8473,-3.57228 -2.3764,-3.78476 -9.4251,-3.78476 l -7.4679,0 0,-9.125 c 0,-5.58334 -0.6065,-9.76784 -1.5625,-10.78125 -1.25,-1.325 -1.25,-1.77084 0,-2.22916 0.8594,-0.31511 1.5625,-2.21355 1.5625,-4.21875 0,-3.38245 0.3401,-3.64584 4.708,-3.64584 4.3832,0 4.9958,-0.48128 8.8814,-6.97752 3.4203,-5.71842 4.6572,-6.86148 6.8545,-6.33438 14.7054,3.52765 18.2546,3.79951 22.593,1.73066 4.1998,-2.00277 4.3534,-2.3263 4.7147,-9.93198 0.2445,-5.14825 0.9127,-7.91571 1.9359,-8.01803 0.8594,-0.0859 3.7053,-0.22656 6.3244,-0.3125 l 4.7618,-0.15625 1.5627,-18.4375 c 0.8595,-10.14062 2.3354,-27.15625 3.2797,-37.8125 0.9443,-10.65625 2.3988,-27.43998 3.2323,-37.29719 1.438,-17.00663 1.6683,-17.99186 4.5089,-19.28609 1.9916,-0.90743 4.127,-0.96605 6.3806,-0.17516 l 3.3871,1.18873 2.0493,22.47236 c 1.1272,12.35979 3.3262,37.49294 4.8868,55.85144 l 2.8374,33.37908 6.3633,0.37092 6.3632,0.37091 0.3734,7.86178 c 0.3613,7.60568 0.5149,7.92921 4.7147,9.93198 4.3341,2.06677 7.8677,1.79807 22.5207,-1.71251 2.1022,-0.50366 3.4277,0.72622 6.8266,6.33438 3.9267,6.47907 4.5447,6.95937 8.9537,6.95937 4.3987,0 4.7359,0.25958 4.7359,3.64584 0,2.0052 0.7031,3.88247 1.5625,4.17172 1.2308,0.41424 1.2119,0.95073 -0.089,2.52692 -1.0914,1.3224 -1.5451,4.88874 -1.3379,10.51577 l 0.3136,8.51475 -7.0719,0.37405 c -8.4028,0.44445 -10.8774,2.94884 -10.8774,11.00829 0,5.47956 -1.5104,6.68355 -8.4375,6.7256 -3.3942,0.0206 -3.373,-0.36109 -0.3125,5.64206 1.375,2.69699 2.5,7.26591 2.5,10.15319 0,4.35021 -0.6723,5.81534 -3.9245,8.55185 -2.1585,1.81625 -5.5452,3.62641 -7.526,4.02257 -1.9808,0.39617 -3.8271,1.08535 -4.1029,1.53154 -0.2757,0.44618 -8e-4,5.2954 0.611,10.77605 0.6118,5.48064 2.2802,21.2148 3.7076,34.9648 5.5512,53.47388 13.3572,120.12294 16.2506,138.75 5.8361,37.5728 8.2784,49.27852 10.4555,50.11398 0.9978,0.38287 1.3501,3.3171 1.0782,8.9774 -0.5341,11.11446 0.1925,12.07524 7.7022,10.18428 7.685,-1.9351 18.9873,-0.84989 25.4415,2.44282 2.8255,1.44143 5.4285,3.09213 5.7846,3.66822 0.356,0.57609 -0.4496,4.57174 -1.7902,8.87922 -2.8659,9.20799 -3.1325,15.83663 -0.6932,17.23447 1.2317,0.70582 1.8746,4.30596 2.1875,12.24961 l 0.4431,11.25 -6.9285,0.74519 c -3.8107,0.40985 -8.592,1.53929 -10.625,2.50987 -3.2216,1.53799 -3.7454,2.52622 -4.0774,7.69232 -0.3339,5.19496 -0.076,5.92762 2.0839,5.92762 1.949,0 2.7482,1.3209 3.8185,6.31153 2.4465,11.40772 2.4115,11.4704 -6.1299,10.98699 l -7.4834,-0.42352 -0.3291,75.34961 -0.3291,75.349615 14.6312,11.525387 14.6312,11.525388 0.056,7.1875 c 0.035,4.514487 -0.4655,7.1875 -1.3468,7.1875 -0.9585,0 -1.0054,0.494987 -0.1478,1.5625 0.8096,1.007787 0.9436,9.328537 0.3773,23.4375 l -0.8781,21.875 3.74909,3.125 c 2.06197,1.71875 4.75895,3.96875 5.99327,5 1.88336,1.5735 2.38025,4.74615 3.09009,19.7301 0.46521,9.820313 1.18299,18.063225 1.59505,18.317575 0.41206,0.254362 9.88982,1.7452 21.0617,3.312975 l 20.3125,2.850512 0,12.133913 c 0,13.880475 -1.57252,12.328587 15.15029,14.95155 9.04691,1.419 9.6276,1.708587 11.5625,5.766112 3.7028,7.76485 3.16031,8.37095 -6.62894,7.40635 -11.2521,-1.10875 -349.88295,-1.1265 -362.57905,-0.019 -5.3215,0.4642 -9.9502,0.35595 -10.286,-0.240537 z m 344.0312,-24.20955 0,-7.5 -153.125,0 -153.125,0 0,7.5 0,7.5 153.125,0 153.125,0 0,-7.5 z m -42.68724,-34.68665 c -0.44672,-6.703587 -0.86856,-13.453975 -0.93746,-15.00085 l -0.1253,-2.8125 -109.2188,0 -109.2187,0 -0.7813,3.90625 c -0.4296,2.148438 -0.7812,8.898438 -0.7812,15 l 0,11.09375 110.9375,8.5e-4 110.9375,8.5e-4 -0.81224,-12.18835 z m -12.06136,-54.4983 0.3736,-19.184937 -30.625,-0.81235 c -39.2881,-1.042138 -97.1657,-1.037225 -136.6189,0.01125 -24.7804,0.658762 -30.8679,1.15205 -30.3657,2.460662 0.3454,0.9002 0.7075,9.528213 0.8047,19.17335 l 0.1767,17.536625 97.9405,0 97.9404,0 0.3737,-19.18495 z m -7.7514,-42.55765 c 0,-0.270938 -4.117,-3.645937 -9.1488,-7.5 l -9.1488,-7.0074 -72.6613,0 -72.6613,0 -7.8774,6.444188 c -4.3326,3.544299 -8.4118,6.9193 -9.0649,7.5 -0.6531,0.5807 39.7062,1.055812 89.6875,1.055812 49.9812,0 90.875,-0.221675 90.875,-0.4926 z m -20.8262,-46.6949 c 0.4505,-12.89062 0.8207,-46.35937 0.8227,-74.375 l 0,-50.9375 -30.3125,-0.29674 c -35.7315,-0.34977 -42.1536,-0.33696 -81.25,0.16218 l -29.6875,0.37901 0,74.25278 0,74.25277 69.8024,0 69.8023,0 0.8191,-23.4375 z m -119.5905,2.60416 c -0.4583,-0.45832 -0.8333,-27.18346 -0.8333,-59.38917 l 0,-58.55585 50.3125,0.32669 50.3125,0.32667 0.3248,58.2788 0.3247,58.2788 -3.9185,0.7837 c -5.2684,1.05367 -95.4657,1.0073 -96.5227,-0.0496 z m 91.3684,-58.85416 0.3267,-50.3125 -41.8892,0 -41.8892,0 0,50.64185 0,50.64185 41.5625,-0.32935 41.5625,-0.32935 0.3267,-50.3125 z m 36.5483,-90.23112 c 0,-3.39275 0.5209,-7.53867 1.1575,-9.21317 l 1.1576,-3.04453 -28.2033,-0.91604 c -35.1408,-1.14137 -71.8314,-1.13274 -106.2068,0.0249 l -26.4699,0.89145 1.1574,3.04437 c 0.6366,1.67446 1.1575,5.8203 1.1575,9.21305 l 0,6.16862 78.125,0 78.125,0 0,-6.16862 z m -78.125,-23.20638 c 12.375,0 39.7969,0.50733 60.9375,1.1274 l 38.4375,1.1274 0,-3.24065 0,-3.24066 -99.2577,0.0745 -99.2577,0.0745 -0.605,3.16499 -0.6051,3.16498 38.9253,-1.12621 c 21.4088,-0.61945 49.0502,-1.12625 61.4252,-1.12625 z m 28.6583,-15.98186 c -3.2994,-10.65673 -10.3233,-19.36741 -18.3057,-22.70183 -9.4045,-3.92851 -21.4513,-1.71763 -28.9471,5.3125 -3.3037,3.09849 -10.7758,16.69815 -10.7805,19.62119 0,0.8081 10.4078,1.12384 29.4441,0.89314 l 29.4462,-0.35688 -0.857,-2.76812 z m -101.0099,-1.51814 c -1.8004,-2.40625 -4.6797,-6.25622 -6.3984,-8.55549 -1.7188,-2.29927 -3.125,-4.50457 -3.125,-4.90068 0,-0.3961 1.7431,-1.10304 3.8735,-1.57097 2.5993,-0.57088 3.4597,-1.2647 2.6154,-2.109 -1.8295,-1.82946 -16.5524,-2.6953 -20.392,-1.19922 l -3.2782,1.2773 1.7157,6.61394 c 0.9436,3.63767 1.7156,8.46011 1.7156,10.71653 l 0,4.10259 13.2734,0 13.2733,0 -3.2733,-4.375 z m 167.9766,-0.42634 c 0,-2.64073 0.7981,-7.45326 1.7736,-10.6945 l 1.7736,-5.89316 -3.3361,-1.29933 c -3.8851,-1.51316 -18.6071,-0.6657 -20.45,1.17719 -0.8443,0.8443 0.016,1.53811 2.6153,2.109 2.1305,0.46793 3.8736,1.11135 3.8736,1.42983 0,0.49047 -7.6757,11.35347 -11.595,16.40981 -0.9518,1.22795 1.6319,1.5625 12.0669,1.5625 l 13.2781,0 0,-4.80134 z m -129.669,-8.2829 c 4.4757,-9.12575 11.2615,-16.40685 18.9647,-20.34908 5.1145,-2.61744 8.0246,-3.22499 15.1619,-3.16544 14.9396,0.12462 26.3722,8.04048 33.9614,23.51452 l 3.3518,6.83424 12.6295,0 c 12.5092,0 12.6553,-0.0349 15.3306,-3.6534 l 2.7011,-3.65339 -3.0161,-5.40911 c -2.1378,-3.83406 -3.2567,-8.32092 -3.8427,-15.4091 -0.4546,-5.5 -1.8407,-13.4002 -3.08,-17.55601 -5.8819,-19.72295 -15.3262,-91.66456 -26.9043,-204.94399 -1.0541,-10.3125 -2.4393,-23.25 -3.0783,-28.75 -0.639,-5.5 -1.8399,-18.01562 -2.6686,-27.8125 l -1.5068,-17.8125 -6.0426,0 -6.0426,0 0,23.16729 0,23.16729 -13.4375,-0.35479 -13.4375,-0.35479 -0.3407,-22.8125 -0.3407,-22.8125 -4.3468,0 c -3.662,0 -4.3534,0.44309 -4.3889,2.8125 -0.059,3.91499 -1.8613,23.36588 -4.8945,52.8125 -13.411,130.19165 -22.6424,201.71657 -28.7976,223.125 -1.2848,4.46875 -2.7158,12.625 -3.18,18.125 -0.5882,6.96951 -1.7482,11.65123 -3.828,15.4487 l -2.9841,5.44871 2.5733,3.61379 c 2.5503,3.58161 2.687,3.6138 15.3527,3.6138 l 12.7795,0 3.3518,-6.83424 z m 37.169,-299.34198 c 0,-10.50227 -0.5219,-18.9988 -1.1925,-19.41325 -0.6559,-0.40535 -2.6246,-0.37758 -4.375,0.0617 l -3.1825,0.79875 0,18.61448 0,18.61449 4.375,0 4.375,0 0,-18.67622 z m 41.25,12.51825 c 0,-3.18614 -6.2006,-14.14144 -8.9742,-15.85558 -1.1629,-0.71875 -0.7672,6.77749 0.9435,17.87149 0.5882,3.81506 0.7704,3.92845 4.3224,2.69021 2.8901,-1.0075 3.7083,-2.04581 3.7083,-4.70612 z m -80,-1.81078 c 0,-3.69531 0.369,-8.56402 0.8201,-10.81936 1.0263,-5.13164 -0.7375,-4.27988 -5.9027,2.85046 -5.6859,7.84926 -4.367,14.52345 2.8951,14.64964 1.8167,0.0316 2.1875,-1.10078 2.1875,-6.68074 z m 2.2594,-25.46875 0.3843,-5.3125 -9.3596,0 -9.3596,0 1.1242,3.91976 c 1.426,4.97235 1.4995,5.03577 7.125,6.15288 8.5169,1.69129 9.6579,1.1528 10.0857,-4.76014 z m 81.1781,3.83729 c 1.6335,-0.38961 2.8125,-1.61911 2.8125,-2.93306 0,-1.24424 0.3414,-3.15202 0.7587,-4.23949 0.6509,-1.6962 -0.5928,-1.97724 -8.75,-1.97724 l -9.5087,0 0,5.76693 0,5.76693 5.9375,-0.85663 c 3.2656,-0.47115 7.2031,-1.1585 8.75,-1.52744 z m 20.5044,-24.15056 0.4331,-6.25078 -68.4375,7.8e-4 -68.4375,7.7e-4 0,6.25 0,6.25 68.0044,0 68.0043,0 0.4332,-6.25077 z m -113.9419,-16.92758 c -8.8301,-2.20365 -9.5874,-2.19979 -10.452,0.0534 -0.6008,1.56555 0.7697,1.85745 8.3037,1.76868 l 9.0233,-0.10625 -6.875,-1.71573 z m 16.25,0.0534 c 0,-2.30137 -0.9742,-2.30137 -5,0 l -3.125,1.78641 4.0625,0.0443 c 2.7975,0.0305 4.0625,-0.53956 4.0625,-1.8307 z m 66.25,1.37228 c 0,-0.2765 -1.6875,-1.09099 -3.75,-1.80998 -3.042,-1.06044 -3.75,-0.96553 -3.75,0.50272 0,1.17775 1.3099,1.80997 3.75,1.80997 2.0625,0 3.75,-0.22622 3.75,-0.50271 z m 19.1907,-1.40172 c -0.5587,-1.45596 -1.8005,-1.70446 -5.2732,-1.05524 -10.2042,1.90763 -10.9057,2.74335 -2.3942,2.85224 7.0358,0.09 8.2797,-0.20151 7.6674,-1.797 z m -35.4407,-15.90809 c 0,-2.80303 -0.07,-2.8125 -20.625,-2.8125 -20.5556,0 -20.625,0.01 -20.625,2.8125 0,2.80303 0.07,2.8125 20.625,2.8125 20.5555,0 20.625,-0.01 20.625,-2.8125 z m -14.1587,-20.625 c -0.4222,-4.64062 -1.6718,-18.84375 -2.7769,-31.5625 -2.9086,-33.47488 -3.9512,-43.53498 -4.1455,-40 -0.094,1.71875 -1.5774,19.39639 -3.2953,39.28365 -1.718,19.88725 -3.1236,37.18413 -3.1236,38.4375 0,1.93594 1.0615,2.27885 7.0545,2.27885 l 7.0545,0 -0.7677,-8.4375 z"
         style="fill:#6da741;fill-opacity:1" />
    </g>
    <g
       id="g4166"
       transform="translate(2504.5697,961.85158)"
       style="display:inline;fill:#73ba25;fill-opacity:1;stroke:none;stroke-opacity:1">
      <path
         style="fill:#73ba25;fill-opacity:1;stroke:none;stroke-opacity:1"
         d="m -1300.4896,89.90199 c -0.3357,-0.5965 0.4144,-3.3816 1.667,-6.189112 2.2415,-5.023888 2.4213,-5.1287 11.3833,-6.632625 5.0083,-0.840438 10.6528,-1.82245 12.5434,-2.182263 l 3.4375,-0.654187 0,-12.1701 0,-12.1701 20.3125,-2.850513 c 11.1719,-1.567775 20.6325,-3.048012 21.0236,-3.289425 0.3911,-0.2414 0.8092,-3.421812 0.929,-7.067562 0.1199,-3.645763 0.571,-11.845625 1.0024,-18.2219 l 0.7844,-11.593238 5.5922,-4.015975 5.5921,-4.0159875 -0.3968,-22.5157745 c -0.2183,-12.383688 0.043,-23.218913 0.5806,-24.078288 0.5516,-0.88175 0.4008,-1.5625 -0.3462,-1.5625 -0.7653,0 -1.3238,-2.79695 -1.3238,-6.629787 0,-7.620725 0.5638,-8.296975 18.75,-22.487288 l 10.625,-8.290487 -0.3291,-75.358708 -0.3291,-75.35873 -7.4834,0.42353 c -7.3658,0.41687 -7.4834,0.37153 -7.4834,-2.88398 0,-1.81912 0.6293,-5.80659 1.3984,-8.86102 1.0519,-4.17756 1.998,-5.55353 3.8185,-5.55353 2.1068,0 2.3707,-0.76739 2.0391,-5.92762 -0.332,-5.1661 -0.8559,-6.15433 -4.0774,-7.69232 -2.0331,-0.97058 -6.8143,-2.10073 -10.625,-2.51145 l -6.9286,-0.74675 0.4406,-11.24842 c 0.3116,-7.95365 0.9523,-11.54124 2.1875,-12.24805 2.4417,-1.3972 2.1762,-8.0234 -0.6906,-17.23446 -1.3407,-4.30749 -2.1463,-8.30314 -1.7902,-8.87923 0.356,-0.57609 2.9591,-2.22679 5.7845,-3.66822 6.4409,-3.28589 17.7524,-4.37895 25.3966,-2.45413 3.2179,0.81028 6.2041,1.11929 6.6361,0.68669 0.432,-0.43259 0.7624,-4.95791 0.7342,-10.05628 -0.028,-5.09837 0.4075,-9.26976 0.9684,-9.26976 1.8585,0 3.4913,-6.37734 7.1657,-27.98774 5.7483,-33.8086 16.5578,-124.39933 24.2035,-202.84173 0.4907,-5.03433 0.3726,-5.22975 -3.6125,-5.97735 -2.2658,-0.42508 -5.8475,-2.38687 -7.9593,-4.35953 -4.6967,-4.38745 -5.1784,-11.30878 -1.3141,-18.88345 l 2.5254,-4.9502 -2.8379,-0.0171 c -1.5608,-0.01 -4.1515,-0.36878 -5.7569,-0.79864 -2.5427,-0.68082 -2.8183,-1.31879 -2.1374,-4.94812 0.5072,-2.70382 0.094,-5.49522 -1.1756,-7.95135 -1.8473,-3.57228 -2.3764,-3.78476 -9.4251,-3.78476 l -7.4679,0 0,-9.125 c 0,-5.58334 -0.6065,-9.76784 -1.5625,-10.78125 -1.25,-1.325 -1.25,-1.77084 0,-2.22916 0.8594,-0.31511 1.5625,-2.21355 1.5625,-4.21875 0,-3.38245 0.3401,-3.64584 4.708,-3.64584 4.3832,0 4.9958,-0.48128 8.8814,-6.97752 3.4203,-5.71842 4.6572,-6.86148 6.8545,-6.33438 14.7054,3.52765 18.2546,3.79951 22.593,1.73066 4.1998,-2.00277 4.3534,-2.3263 4.7147,-9.93198 0.2445,-5.14825 0.9127,-7.91571 1.9359,-8.01803 0.8594,-0.0859 3.7053,-0.22656 6.3244,-0.3125 l 4.7618,-0.15625 1.5627,-18.4375 c 0.8595,-10.14062 2.3354,-27.15625 3.2797,-37.8125 0.9443,-10.65625 2.3988,-27.43998 3.2323,-37.29719 1.438,-17.00663 1.6683,-17.99186 4.5089,-19.28609 1.9916,-0.90743 4.127,-0.96605 6.3806,-0.17516 l 3.3871,1.18873 2.0493,22.47236 c 1.1272,12.35979 3.3262,37.49294 4.8868,55.85144 l 2.8374,33.37908 6.3633,0.37092 6.3632,0.37091 0.3734,7.86178 c 0.3613,7.60568 0.5149,7.92921 4.7147,9.93198 4.3341,2.06677 7.8677,1.79807 22.5207,-1.71251 2.1022,-0.50366 3.4277,0.72622 6.8266,6.33438 3.9267,6.47907 4.5447,6.95937 8.9537,6.95937 4.3987,0 4.7359,0.25958 4.7359,3.64584 0,2.0052 0.7031,3.88247 1.5625,4.17172 1.2308,0.41424 1.2119,0.95073 -0.089,2.52692 -1.0914,1.3224 -1.5451,4.88874 -1.3379,10.51577 l 0.3136,8.51475 -7.0719,0.37405 c -8.4028,0.44445 -10.8774,2.94884 -10.8774,11.00829 0,5.47956 -1.5104,6.68355 -8.4375,6.7256 -3.3942,0.0206 -3.373,-0.36109 -0.3125,5.64206 1.375,2.69699 2.5,7.26591 2.5,10.15319 0,4.35021 -0.6723,5.81534 -3.9245,8.55185 -2.1585,1.81625 -5.5452,3.62641 -7.526,4.02257 -1.9808,0.39617 -3.8271,1.08535 -4.1029,1.53154 -0.2757,0.44618 -8e-4,5.2954 0.611,10.77605 0.6118,5.48064 2.2802,21.2148 3.7076,34.9648 5.5512,53.47388 13.3572,120.12294 16.2506,138.75 5.8361,37.5728 8.2784,49.27852 10.4555,50.11398 0.9978,0.38287 1.3501,3.3171 1.0782,8.9774 -0.5341,11.11446 0.1925,12.07524 7.7022,10.18428 7.685,-1.9351 18.9873,-0.84989 25.4415,2.44282 2.8255,1.44143 5.4285,3.09213 5.7846,3.66822 0.356,0.57609 -0.4496,4.57174 -1.7902,8.87922 -2.8659,9.20799 -3.1325,15.83663 -0.6932,17.23447 1.2317,0.70582 1.8746,4.30596 2.1875,12.24961 l 0.4431,11.25 -6.9285,0.74519 c -3.8107,0.40985 -8.592,1.53929 -10.625,2.50987 -3.2216,1.53799 -3.7454,2.52622 -4.0774,7.69232 -0.3339,5.19496 -0.076,5.92762 2.0839,5.92762 1.949,0 2.7482,1.3209 3.8185,6.31153 2.4465,11.40772 2.4115,11.4704 -6.1299,10.98699 l -7.4834,-0.42352 -0.3291,75.34961 -0.3291,75.349615 14.6312,11.525387 14.6312,11.525388 0.056,7.1875 c 0.035,4.514487 -0.4655,7.1875 -1.3468,7.1875 -0.9585,0 -1.0054,0.494987 -0.1478,1.5625 0.8096,1.007787 0.9436,9.328537 0.3773,23.4375 l -0.8781,21.875 3.74909,3.125 c 2.06197,1.71875 4.75895,3.96875 5.99327,5 1.88336,1.5735 2.38025,4.74615 3.09009,19.7301 0.46521,9.820313 1.18299,18.063225 1.59505,18.317575 0.41206,0.254362 9.88982,1.7452 21.0617,3.312975 l 20.3125,2.850512 0,12.133913 c 0,13.880475 -1.57252,12.328587 15.15029,14.95155 9.04691,1.419 9.6276,1.708587 11.5625,5.766112 3.7028,7.76485 3.16031,8.37095 -6.62894,7.40635 -11.2521,-1.10875 -349.88295,-1.1265 -362.57905,-0.019 -5.3215,0.4642 -9.9502,0.35595 -10.286,-0.240537 z"
         id="path4230" />
      <g
         id="g4232">
        <path
           id="path4228"
           d="m -956.4584,65.69244 0,-7.5 -153.125,0 -153.125,0 0,7.5 0,7.5 153.125,0 153.125,0 0,-7.5 z"
           style="fill:#6da741;fill-opacity:1;stroke:none;stroke-opacity:1" />
        <path
           id="path4226"
           d="m -999.14564,31.00579 c -0.44672,-6.703587 -0.86856,-13.453975 -0.93746,-15.00085 l -0.1253,-2.8125 -109.2188,0 -109.2187,0 -0.7813,3.90625 c -0.4296,2.148438 -0.7812,8.898438 -0.7812,15 l 0,11.09375 110.9375,8.5e-4 110.9375,8.5e-4 -0.81224,-12.18835 z"
           style="fill:#6da741;fill-opacity:1;stroke:none;stroke-opacity:1" />
        <path
           id="path4224"
           d="m -1011.207,-23.49251 0.3736,-19.184937 -30.625,-0.81235 c -39.2881,-1.042138 -97.1657,-1.037225 -136.6189,0.01125 -24.7804,0.658762 -30.8679,1.15205 -30.3657,2.460662 0.3454,0.9002 0.7075,9.528213 0.8047,19.17335 l 0.1767,17.536625 97.9405,0 97.9404,0 0.3737,-19.18495 z"
           style="fill:#6da741;fill-opacity:1;stroke:none;stroke-opacity:1" />
        <path
           id="path4222"
           d="m -1018.9584,-66.05016 c 0,-0.270938 -4.117,-3.645937 -9.1488,-7.5 l -9.1488,-7.0074 -72.6613,0 -72.6613,0 -7.8774,6.444188 c -4.3326,3.544299 -8.4118,6.9193 -9.0649,7.5 -0.6531,0.5807 39.7062,1.055812 89.6875,1.055812 49.9812,0 90.875,-0.221675 90.875,-0.4926 z"
           style="fill:#6da741;fill-opacity:1;stroke:none;stroke-opacity:1" />
        <path
           id="path4220"
           d="m -1039.7846,-112.74506 c 0.4505,-12.89062 0.8207,-46.35937 0.8227,-74.375 l 0,-50.9375 -30.3125,-0.29674 c -35.7315,-0.34977 -42.1536,-0.33696 -81.25,0.16218 l -29.6875,0.37901 0,74.25278 0,74.25277 69.8024,0 69.8023,0 0.8191,-23.4375 z"
           style="fill:#6da741;fill-opacity:1;stroke:none;stroke-opacity:1" />
        <path
           id="path4218"
           d="m -1159.3751,-110.1409 c -0.4583,-0.45832 -0.8333,-27.18346 -0.8333,-59.38917 l 0,-58.55585 50.3125,0.32669 50.3125,0.32667 0.3248,58.2788 0.3247,58.2788 -3.9185,0.7837 c -5.2684,1.05367 -95.4657,1.0073 -96.5227,-0.0496 z"
           style="fill:#73ba25;fill-opacity:1;stroke:none;stroke-opacity:1" />
        <path
           id="path4216"
           d="m -1068.0067,-168.99506 0.3267,-50.3125 -41.8892,0 -41.8892,0 0,50.64185 0,50.64185 41.5625,-0.32935 41.5625,-0.32935 0.3267,-50.3125 z"
           style="fill:#73ba25;fill-opacity:1;stroke:none;stroke-opacity:1" />
        <path
           id="path4214"
           d="m -1031.4584,-259.22618 c 0,-3.39275 0.5209,-7.53867 1.1575,-9.21317 l 1.1576,-3.04453 -28.2033,-0.91604 c -35.1408,-1.14137 -71.8314,-1.13274 -106.2068,0.0249 l -26.4699,0.89145 1.1574,3.04437 c 0.6366,1.67446 1.1575,5.8203 1.1575,9.21305 l 0,6.16862 78.125,0 78.125,0 0,-6.16862 z"
           style="fill:#6da741;fill-opacity:1;stroke:none;stroke-opacity:1" />
        <path
           id="path4212"
           d="m -1109.5834,-282.43256 c 12.375,0 39.7969,0.50733 60.9375,1.1274 l 38.4375,1.1274 0,-3.24065 0,-3.24066 -99.2577,0.0745 -99.2577,0.0745 -0.605,3.16499 -0.6051,3.16498 38.9253,-1.12621 c 21.4088,-0.61945 49.0502,-1.12625 61.4252,-1.12625 z"
           style="fill:#6da741;fill-opacity:1;stroke:none;stroke-opacity:1" />
        <path
           id="path4210"
           d="m -1080.9251,-298.41442 c -3.2994,-10.65673 -10.3233,-19.36741 -18.3057,-22.70183 -9.4045,-3.92851 -21.4513,-1.71763 -28.9471,5.3125 -3.3037,3.09849 -10.7758,16.69815 -10.7805,19.62119 0,0.8081 10.4078,1.12384 29.4441,0.89314 l 29.4462,-0.35688 -0.857,-2.76812 z"
           style="fill:#6da741;fill-opacity:1;stroke:none;stroke-opacity:1" />
        <path
           id="path4208"
           d="m -1181.935,-299.93256 c -1.8004,-2.40625 -4.6797,-6.25622 -6.3984,-8.55549 -1.7188,-2.29927 -3.125,-4.50457 -3.125,-4.90068 0,-0.3961 1.7431,-1.10304 3.8735,-1.57097 2.5993,-0.57088 3.4597,-1.2647 2.6154,-2.109 -1.8295,-1.82946 -16.5524,-2.6953 -20.392,-1.19922 l -3.2782,1.2773 1.7157,6.61394 c 0.9436,3.63767 1.7156,8.46011 1.7156,10.71653 l 0,4.10259 13.2734,0 13.2733,0 -3.2733,-4.375 z"
           style="fill:#6da741;fill-opacity:1;stroke:none;stroke-opacity:1" />
        <path
           id="path4206"
           d="m -1013.9584,-300.3589 c 0,-2.64073 0.7981,-7.45326 1.7736,-10.6945 l 1.7736,-5.89316 -3.3361,-1.29933 c -3.8851,-1.51316 -18.6071,-0.6657 -20.45,1.17719 -0.8443,0.8443 0.016,1.53811 2.6153,2.109 2.1305,0.46793 3.8736,1.11135 3.8736,1.42983 0,0.49047 -7.6757,11.35347 -11.595,16.40981 -0.9518,1.22795 1.6319,1.5625 12.0669,1.5625 l 13.2781,0 0,-4.80134 z"
           style="fill:#6da741;fill-opacity:1;stroke:none;stroke-opacity:1" />
        <path
           id="path4204"
           d="m -1143.6274,-308.6418 c 4.4757,-9.12575 11.2615,-16.40685 18.9647,-20.34908 5.1145,-2.61744 8.0246,-3.22499 15.1619,-3.16544 14.9396,0.12462 26.3722,8.04048 33.9614,23.51452 l 3.3518,6.83424 12.6295,0 c 12.5092,0 12.6553,-0.0349 15.3306,-3.6534 l 2.7011,-3.65339 -3.0161,-5.40911 c -2.1378,-3.83406 -3.2567,-8.32092 -3.8427,-15.4091 -0.4546,-5.5 -1.8407,-13.4002 -3.08,-17.55601 -5.8819,-19.72295 -15.3262,-91.66456 -26.9043,-204.94399 -1.0541,-10.3125 -2.4393,-23.25 -3.0783,-28.75 -0.639,-5.5 -1.8399,-18.01562 -2.6686,-27.8125 l -1.5068,-17.8125 -6.0426,0 -6.0426,0 0,23.16729 0,23.16729 -13.4375,-0.35479 -13.4375,-0.35479 -0.3407,-22.8125 -0.3407,-22.8125 -4.3468,0 c -3.662,0 -4.3534,0.44309 -4.3889,2.8125 -0.059,3.91499 -1.8613,23.36588 -4.8945,52.8125 -13.411,130.19165 -22.6424,201.71657 -28.7976,223.125 -1.2848,4.46875 -2.7158,12.625 -3.18,18.125 -0.5882,6.96951 -1.7482,11.65123 -3.828,15.4487 l -2.9841,5.44871 2.5733,3.61379 c 2.5503,3.58161 2.687,3.6138 15.3527,3.6138 l 12.7795,0 3.3518,-6.83424 z"
           style="fill:#6da741;fill-opacity:1;stroke:none;stroke-opacity:1" />
        <path
           id="path4202"
           d="m -1106.4584,-607.98378 c 0,-10.50227 -0.5219,-18.9988 -1.1925,-19.41325 -0.6559,-0.40535 -2.6246,-0.37758 -4.375,0.0617 l -3.1825,0.79875 0,18.61448 0,18.61449 4.375,0 4.375,0 0,-18.67622 z"
           style="fill:#6da741;fill-opacity:1;stroke:none;stroke-opacity:1" />
        <path
           id="path4200"
           d="m -1065.2084,-595.46553 c 0,-3.18614 -6.2006,-14.14144 -8.9742,-15.85558 -1.1629,-0.71875 -0.7672,6.77749 0.9435,17.87149 0.5882,3.81506 0.7704,3.92845 4.3224,2.69021 2.8901,-1.0075 3.7083,-2.04581 3.7083,-4.70612 z"
           style="fill:#6da741;fill-opacity:1;stroke:none;stroke-opacity:1" />
        <path
           id="path4198"
           d="m -1145.2084,-597.27631 c 0,-3.69531 0.369,-8.56402 0.8201,-10.81936 1.0263,-5.13164 -0.7375,-4.27988 -5.9027,2.85046 -5.6859,7.84926 -4.367,14.52345 2.8951,14.64964 1.8167,0.0316 2.1875,-1.10078 2.1875,-6.68074 z"
           style="fill:#6da741;fill-opacity:1;stroke:none;stroke-opacity:1" />
        <path
           id="path4196"
           d="m -1142.949,-622.74506 0.3843,-5.3125 -9.3596,0 -9.3596,0 1.1242,3.91976 c 1.426,4.97235 1.4995,5.03577 7.125,6.15288 8.5169,1.69129 9.6579,1.1528 10.0857,-4.76014 z"
           style="fill:#6da741;fill-opacity:1;stroke:none;stroke-opacity:1" />
        <path
           id="path4194"
           d="m -1061.7709,-618.90777 c 1.6335,-0.38961 2.8125,-1.61911 2.8125,-2.93306 0,-1.24424 0.3414,-3.15202 0.7587,-4.23949 0.6509,-1.6962 -0.5928,-1.97724 -8.75,-1.97724 l -9.5087,0 0,5.76693 0,5.76693 5.9375,-0.85663 c 3.2656,-0.47115 7.2031,-1.1585 8.75,-1.52744 z"
           style="fill:#6da741;fill-opacity:1;stroke:none;stroke-opacity:1" />
        <path
           id="path4192"
           d="m -1041.2665,-643.05833 0.4331,-6.25078 -68.4375,7.8e-4 -68.4375,7.7e-4 0,6.25 0,6.25 68.0044,0 68.0043,0 0.4332,-6.25077 z"
           style="fill:#6da741;fill-opacity:1;stroke:none;stroke-opacity:1" />
        <path
           id="path4190"
           d="m -1155.2084,-659.98591 c -8.8301,-2.20365 -9.5874,-2.19979 -10.452,0.0534 -0.6008,1.56555 0.7697,1.85745 8.3037,1.76868 l 9.0233,-0.10625 -6.875,-1.71573 z"
           style="fill:#73ba25;fill-opacity:1;stroke:none;stroke-opacity:1" />
        <path
           id="path4188"
           d="m -1138.9584,-659.93251 c 0,-2.30137 -0.9742,-2.30137 -5,0 l -3.125,1.78641 4.0625,0.0443 c 2.7975,0.0305 4.0625,-0.53956 4.0625,-1.8307 z"
           style="fill:#73ba25;fill-opacity:1;stroke:none;stroke-opacity:1" />
        <path
           id="path4186"
           d="m -1072.7084,-658.56023 c 0,-0.2765 -1.6875,-1.09099 -3.75,-1.80998 -3.042,-1.06044 -3.75,-0.96553 -3.75,0.50272 0,1.17775 1.3099,1.80997 3.75,1.80997 2.0625,0 3.75,-0.22622 3.75,-0.50271 z"
           style="fill:#73ba25;fill-opacity:1;stroke:none;stroke-opacity:1" />
        <path
           id="path4184"
           d="m -1053.5177,-659.96195 c -0.5587,-1.45596 -1.8005,-1.70446 -5.2732,-1.05524 -10.2042,1.90763 -10.9057,2.74335 -2.3942,2.85224 7.0358,0.09 8.2797,-0.20151 7.6674,-1.797 z"
           style="fill:#73ba25;fill-opacity:1;stroke:none;stroke-opacity:1" />
        <path
           id="path4182"
           d="m -1088.9584,-675.87004 c 0,-2.80303 -0.07,-2.8125 -20.625,-2.8125 -20.5556,0 -20.625,0.01 -20.625,2.8125 0,2.80303 0.07,2.8125 20.625,2.8125 20.5555,0 20.625,-0.01 20.625,-2.8125 z"
           style="fill:#6da741;fill-opacity:1;stroke:none;stroke-opacity:1" />
        <path
           id="path4168"
           d="m -1103.1171,-696.49504 c -0.4222,-4.64062 -1.6718,-18.84375 -2.7769,-31.5625 -2.9086,-33.47488 -3.9512,-43.53498 -4.1455,-40 -0.094,1.71875 -1.5774,19.39639 -3.2953,39.28365 -1.718,19.88725 -3.1236,37.18413 -3.1236,38.4375 0,1.93594 1.0615,2.27885 7.0545,2.27885 l 7.0545,0 -0.7677,-8.4375 z"
           style="fill:#6da741;fill-opacity:1;stroke:none;stroke-opacity:1" />
      </g>
    </g>
  </g>
</svg>
