<?xml version="1.0" encoding="UTF-8" standalone="no"?>
<!-- Created with Inkscape (http://www.inkscape.org/) -->

<svg
   xmlns:dc="http://purl.org/dc/elements/1.1/"
   xmlns:cc="http://creativecommons.org/ns#"
   xmlns:rdf="http://www.w3.org/1999/02/22-rdf-syntax-ns#"
   xmlns:svg="http://www.w3.org/2000/svg"
   xmlns="http://www.w3.org/2000/svg"
   xmlns:sodipodi="http://sodipodi.sourceforge.net/DTD/sodipodi-0.dtd"
   xmlns:inkscape="http://www.inkscape.org/namespaces/inkscape"
   width="744.09448819"
   height="1052.3622047"
   id="svg5488"
   version="1.1"
   inkscape:version="0.48.4 r9939"
   sodipodi:docname="New document 1">
  <defs
     id="defs5490" />
  <sodipodi:namedview
     id="base"
     pagecolor="#ffffff"
     bordercolor="#666666"
     borderopacity="1.0"
     inkscape:pageopacity="0.0"
     inkscape:pageshadow="2"
     inkscape:zoom="0.35"
     inkscape:cx="375"
     inkscape:cy="520"
     inkscape:document-units="px"
     inkscape:current-layer="layer1"
     showgrid="false"
     inkscape:window-width="1280"
     inkscape:window-height="745"
     inkscape:window-x="0"
     inkscape:window-y="30"
     inkscape:window-maximized="1" />
  <metadata
     id="metadata5493">
    <rdf:RDF>
      <cc:Work
         rdf:about="">
        <dc:format>image/svg+xml</dc:format>
        <dc:type
           rdf:resource="http://purl.org/dc/dcmitype/StillImage" />
        <dc:title></dc:title>
      </cc:Work>
    </rdf:RDF>
  </metadata>
  <g
     inkscape:label="Layer 1"
     inkscape:groupmode="layer"
     id="layer1">
    <polygon
       style="fill:#4fc2eb;fill-rule:evenodd"
       transform="translate(-108.75008,-72.003032)"
       clip-rule="evenodd"
       points="235.231,241.303 235.231,116.249 362.597,156.686 362.597,205.086 304.565,221.643 343.731,167.593 287.61,212.566 255.608,204.21 279.97,228.648 "
       id="polygon1623"
       inkscape:export-filename="/home/rahmada/logoSivion.png"
       inkscape:export-xdpi="130"
       inkscape:export-ydpi="130" />
    <polygon
       style="fill:#3258a4;fill-rule:evenodd"
       transform="translate(-108.75008,-72.003032)"
       clip-rule="evenodd"
       points="362.597,245.762 235.231,263.91 235.231,241.303 279.97,228.648 291.272,239.951 304.565,221.643 362.597,205.086 "
       id="polygon1625"
       inkscape:export-filename="/home/rahmada/logoSivion.png"
       inkscape:export-xdpi="130"
       inkscape:export-ydpi="130" />
    <polygon
       style="fill:#ffffff;fill-rule:evenodd"
       transform="translate(-108.75008,-72.003032)"
       clip-rule="evenodd"
       points="343.731,167.593 304.565,221.643 291.272,239.951 279.97,228.648 255.608,204.21 287.61,212.566 "
       id="polygon1627"
       inkscape:export-filename="/home/rahmada/logoSivion.png"
       inkscape:export-xdpi="130"
       inkscape:export-ydpi="130" />
    <polygon
       style="fill:#272f64;fill-rule:evenodd"
       transform="translate(-108.75008,-72.003032)"
       clip-rule="evenodd"
       points="235.231,241.303 235.231,263.91 152.046,244.49 152.046,158.041 "
       id="polygon1629"
       inkscape:export-filename="/home/rahmada/logoSivion.png"
       inkscape:export-xdpi="130"
       inkscape:export-ydpi="130" />
    <polygon
       style="fill:#0073b3;fill-rule:evenodd"
       transform="translate(-108.75008,-72.003032)"
       clip-rule="evenodd"
       points="235.231,116.249 235.231,241.303 152.046,158.041 "
       id="polygon1631"
       inkscape:export-filename="/home/rahmada/logoSivion.png"
       inkscape:export-xdpi="130"
       inkscape:export-ydpi="130" />
    <g
       transform="translate(-108.75008,-72.003032)"
       id="g1779"
       inkscape:export-filename="/home/rahmada/logoSivion.png"
       inkscape:export-xdpi="130"
       inkscape:export-ydpi="130">
      <path
         style="fill:#8ed2ea;fill-rule:evenodd"
         inkscape:connector-curvature="0"
         clip-rule="evenodd"
         d="m 187.832,199.507 c -1.768,0.027 -3.235,0.651 -4.402,1.872 -1.131,1.131 -1.69,2.523 -1.677,4.173 0.022,1.601 0.613,3.035 1.771,4.303 0.409,0.388 0.819,0.734 1.227,1.035 l -1.812,10.15 9.742,1.546 -2.078,-10.783 c 0.673,-0.236 1.321,-0.648 1.944,-1.238 1.338,-1.185 1.997,-2.665 1.978,-4.445 -0.02,-1.721 -0.712,-3.254 -2.078,-4.602 -1.317,-1.317 -2.857,-1.986 -4.615,-2.011 z m 1.021,-29.796 -2.729,0.671 c -4.852,1.095 -8.033,3.562 -9.542,7.402 -0.452,1.116 -0.721,2.323 -0.805,3.622 -0.083,0.619 -0.1,1.148 -0.049,1.587 l 0.109,9.827 25.314,-1.161 -0.142,-12.762 c -0.2,-5.513 -2.765,-8.523 -7.698,-9.032 -1.531,-0.185 -3.016,-0.236 -4.458,-0.154 z m -19.226,23.346 0.201,-0.002 c -0.863,-11.179 0.462,-18.668 3.972,-22.468 3.757,-4.231 7.928,-6.732 12.514,-7.5 8.666,-2.132 15.146,-0.47 19.439,4.985 2.242,2.779 3.467,5.793 3.681,9.042 l 0.158,14.216 1.181,-0.013 c 4.821,-0.259 7.296,1.729 7.429,5.962 l 0.377,34.003 c -0.04,4.017 -2.477,5.541 -7.312,4.571 l -41.264,-8.963 c -2.645,-0.555 -3.959,-2.273 -3.94,-5.156 l -0.268,-24.111 c -0.085,-2.973 1.194,-4.495 3.832,-4.566 z"
         id="path1781" />
    </g>
    <g
       transform="matrix(1.3570449,0,0,1.3570449,771.57818,-62.982112)"
       id="g545"
       inkscape:export-filename="/home/rahmada/logoSivion.png"
       inkscape:export-xdpi="130"
       inkscape:export-ydpi="130">
      <path
         style="fill:#4258a4"
         inkscape:connector-curvature="0"
         d="m -373.64,104.068 9.57,-9.402 v 5.318 h 8.145 v 4.588 h -8.145 v 12.622 c 0,2.947 1.222,4.422 3.666,4.422 1.828,0 3.76,-0.615 5.793,-1.848 v 4.758 c -1.959,1.102 -4.096,1.652 -6.408,1.652 -2.332,0 -4.273,-0.682 -5.821,-2.043 -0.485,-0.41 -0.886,-0.873 -1.203,-1.387 -0.317,-0.512 -0.583,-1.184 -0.798,-2.014 -0.215,-0.83 -0.322,-2.412 -0.322,-4.744 v -11.419 h -4.477 v -0.503 z"
         id="path547" />
      <path
         style="fill:#4258a4"
         inkscape:connector-curvature="0"
         d="m -334.769,110.254 v 10.942 c 0,0.877 0.299,1.314 0.895,1.314 0.617,0 1.576,-0.455 2.883,-1.371 v 3.107 c -1.156,0.746 -2.084,1.254 -2.783,1.525 -0.701,0.27 -1.434,0.406 -2.197,0.406 -2.184,0 -3.471,-0.859 -3.863,-2.576 -2.164,1.68 -4.467,2.52 -6.912,2.52 -1.791,0 -3.283,-0.592 -4.477,-1.777 -1.194,-1.186 -1.791,-2.672 -1.791,-4.463 0,-1.623 0.582,-3.074 1.748,-4.352 1.166,-1.279 2.822,-2.29 4.969,-3.038 l 6.52,-2.238 v -1.371 c 0,-3.098 -1.549,-4.646 -4.645,-4.646 -2.781,0 -5.486,1.438 -8.116,4.311 v -5.568 c 1.978,-2.332 4.821,-3.498 8.534,-3.498 2.781,0 5.01,0.727 6.689,2.182 0.561,0.467 1.063,1.088 1.512,1.861 0.447,0.775 0.73,1.549 0.854,2.322 0.12,0.775 0.18,2.244 0.18,4.408 z m -5.009,10.382 v -7.64 l -3.414,1.315 c -1.734,0.691 -2.963,1.385 -3.68,2.086 -0.719,0.699 -1.078,1.572 -1.078,2.615 0,1.064 0.34,1.932 1.021,2.604 0.681,0.672 1.563,1.008 2.645,1.008 1.623,0 3.125,-0.662 4.506,-1.988 z"
         id="path549" />
      <path
         style="fill:#4258a4"
         inkscape:connector-curvature="0"
         d="m -321.392,99.984 v 3.273 c 2.275,-2.52 4.859,-3.777 7.752,-3.777 1.604,0 3.096,0.414 4.477,1.244 1.381,0.83 2.43,1.969 3.148,3.414 0.719,1.447 1.078,3.736 1.078,6.871 v 14.72 h -5.094 v -14.663 c 0,-2.631 -0.4,-4.512 -1.203,-5.641 -0.803,-1.127 -2.146,-1.691 -4.029,-1.691 -2.408,0 -4.451,1.203 -6.129,3.609 v 18.386 h -5.205 V 99.984 h 5.205 z"
         id="path551" />
      <path
         style="fill:#4258a4"
         inkscape:connector-curvature="0"
         d="m -280.646,86.635 h 5.121 v 39.095 h -10.885 c -3.807,0 -6.844,-1.203 -9.109,-3.609 -2.268,-2.406 -3.4,-5.635 -3.4,-9.683 0,-3.787 1.189,-6.902 3.568,-9.348 2.377,-2.443 5.414,-3.666 9.107,-3.666 1.717,0 3.584,0.363 5.598,1.092 V 86.635 z m 0,34.729 v -16.315 c -1.586,-0.803 -3.189,-1.203 -4.813,-1.203 -2.537,0 -4.559,0.83 -6.059,2.49 -1.502,1.66 -2.254,3.9 -2.254,6.717 0,2.649 0.652,4.692 1.959,6.128 0.783,0.859 1.613,1.438 2.49,1.736 0.877,0.298 2.453,0.447 4.73,0.447 h 3.947 z"
         id="path553" />
      <path
         style="fill:#4258a4"
         inkscape:connector-curvature="0"
         d="m -252.437,110.254 v 10.942 c 0,0.877 0.299,1.314 0.896,1.314 0.615,0 1.576,-0.455 2.883,-1.371 v 3.107 c -1.158,0.746 -2.086,1.254 -2.785,1.525 -0.699,0.27 -1.432,0.406 -2.197,0.406 -2.182,0 -3.469,-0.859 -3.861,-2.576 -2.164,1.68 -4.469,2.52 -6.912,2.52 -1.791,0 -3.285,-0.592 -4.479,-1.777 -1.194,-1.185 -1.791,-2.672 -1.791,-4.463 0,-1.623 0.584,-3.074 1.75,-4.352 1.166,-1.279 2.82,-2.29 4.967,-3.038 l 6.521,-2.238 v -1.371 c 0,-3.098 -1.549,-4.646 -4.646,-4.646 -2.779,0 -5.484,1.438 -8.115,4.311 v -5.568 c 1.977,-2.332 4.822,-3.498 8.535,-3.498 2.779,0 5.01,0.727 6.688,2.182 0.561,0.467 1.064,1.088 1.512,1.861 0.447,0.775 0.732,1.549 0.854,2.322 0.12,0.775 0.18,2.244 0.18,4.408 z m -5.007,10.382 v -7.64 l -3.416,1.315 c -1.734,0.691 -2.961,1.385 -3.68,2.086 -0.719,0.699 -1.076,1.572 -1.076,2.615 0,1.064 0.34,1.932 1.021,2.604 0.68,0.672 1.563,1.008 2.645,1.008 1.623,0 3.125,-0.662 4.506,-1.988 z"
         id="path555" />
      <path
         style="fill:#4258a4"
         inkscape:connector-curvature="0"
         d="m -231.839,104.068 9.57,-9.402 v 5.318 h 8.145 v 4.588 h -8.145 v 12.622 c 0,2.947 1.223,4.422 3.668,4.422 1.828,0 3.758,-0.615 5.793,-1.848 v 4.758 c -1.959,1.102 -4.096,1.652 -6.41,1.652 -2.332,0 -4.271,-0.682 -5.82,-2.043 -0.486,-0.41 -0.887,-0.873 -1.203,-1.387 -0.318,-0.512 -0.584,-1.184 -0.799,-2.014 -0.213,-0.83 -0.32,-2.412 -0.32,-4.744 v -11.419 h -4.479 v -0.503 z"
         id="path557" />
      <path
         style="fill:#4258a4"
         inkscape:connector-curvature="0"
         d="m -192.968,110.254 v 10.942 c 0,0.877 0.299,1.314 0.896,1.314 0.615,0 1.576,-0.455 2.883,-1.371 v 3.107 c -1.158,0.746 -2.086,1.254 -2.785,1.525 -0.699,0.27 -1.432,0.406 -2.197,0.406 -2.182,0 -3.469,-0.859 -3.861,-2.576 -2.164,1.68 -4.469,2.52 -6.912,2.52 -1.791,0 -3.285,-0.592 -4.479,-1.777 -1.194,-1.185 -1.791,-2.672 -1.791,-4.463 0,-1.623 0.584,-3.074 1.75,-4.352 1.166,-1.279 2.82,-2.29 4.967,-3.038 l 6.521,-2.238 v -1.371 c 0,-3.098 -1.549,-4.646 -4.646,-4.646 -2.779,0 -5.484,1.438 -8.115,4.311 v -5.568 c 1.977,-2.332 4.822,-3.498 8.535,-3.498 2.779,0 5.01,0.727 6.688,2.182 0.561,0.467 1.064,1.088 1.512,1.861 0.447,0.775 0.732,1.549 0.854,2.322 0.12,0.775 0.18,2.244 0.18,4.408 z m -5.008,10.382 v -7.64 l -3.416,1.315 c -1.734,0.691 -2.961,1.385 -3.68,2.086 -0.719,0.699 -1.076,1.572 -1.076,2.615 0,1.064 0.34,1.932 1.021,2.604 0.68,0.672 1.563,1.008 2.645,1.008 1.624,0 3.126,-0.662 4.506,-1.988 z"
         id="path559" />
      <path
         style="fill:#4258a4"
         inkscape:connector-curvature="0"
         d="m -179.591,99.984 v 3.273 c 2.277,-2.52 4.861,-3.777 7.752,-3.777 1.605,0 3.098,0.414 4.479,1.244 1.381,0.83 2.43,1.969 3.148,3.414 0.717,1.447 1.076,3.736 1.076,6.871 v 14.72 h -5.092 v -14.663 c 0,-2.631 -0.402,-4.512 -1.203,-5.641 -0.803,-1.127 -2.146,-1.691 -4.031,-1.691 -2.406,0 -4.449,1.203 -6.129,3.609 v 18.386 h -5.205 V 99.984 h 5.205 z"
         id="path561" />
      <path
         style="fill:#4258a4"
         inkscape:connector-curvature="0"
         d="m -157.341,108.883 c 0,-2.742 1.002,-4.912 3.008,-6.506 2.006,-1.596 4.744,-2.393 8.213,-2.393 h 10.607 v 3.973 h -5.205 c 1.008,1.027 1.707,1.959 2.098,2.799 0.393,0.84 0.588,1.801 0.588,2.883 0,1.344 -0.383,2.664 -1.146,3.96 -0.766,1.297 -1.75,2.291 -2.953,2.98 -1.203,0.689 -3.176,1.24 -5.918,1.65 -1.922,0.279 -2.883,0.943 -2.883,1.988 0,0.596 0.359,1.086 1.076,1.469 0.719,0.383 2.02,0.779 3.904,1.189 3.152,0.689 5.182,1.23 6.088,1.623 0.904,0.391 1.721,0.951 2.447,1.68 1.232,1.23 1.848,2.779 1.848,4.645 0,2.443 -1.086,4.395 -3.26,5.85 -2.174,1.455 -5.08,2.182 -8.717,2.182 -3.676,0 -6.609,-0.732 -8.803,-2.195 -2.191,-1.465 -3.287,-3.43 -3.287,-5.893 0,-3.488 2.154,-5.736 6.465,-6.744 -1.717,-1.1 -2.576,-2.191 -2.576,-3.273 0,-0.82 0.369,-1.568 1.105,-2.24 0.738,-0.67 1.73,-1.164 2.98,-1.482 -3.786,-1.681 -5.679,-4.395 -5.679,-8.145 z m 8.367,18.05 c -1.717,0 -3.121,0.365 -4.213,1.092 -1.09,0.729 -1.637,1.66 -1.637,2.799 0,2.648 2.389,3.975 7.164,3.975 2.258,0 4.006,-0.332 5.248,-0.994 1.24,-0.662 1.861,-1.6 1.861,-2.813 0,-1.193 -0.785,-2.168 -2.352,-2.924 -1.567,-0.756 -3.59,-1.135 -6.071,-1.135 z m 1.203,-22.529 c -1.381,0 -2.557,0.467 -3.525,1.4 -0.971,0.934 -1.457,2.053 -1.457,3.357 0,1.326 0.477,2.422 1.428,3.289 0.951,0.868 2.154,1.302 3.611,1.302 1.436,0 2.635,-0.443 3.596,-1.329 0.961,-0.887 1.441,-1.992 1.441,-3.316 0,-1.344 -0.486,-2.463 -1.455,-3.359 -0.971,-0.894 -2.183,-1.344 -3.639,-1.344 z"
         id="path563" />
      <path
         style="fill:#4258a4"
         inkscape:connector-curvature="0"
         d="m -115.392,110.254 v 10.942 c 0,0.877 0.299,1.314 0.895,1.314 0.617,0 1.576,-0.455 2.883,-1.371 v 3.107 c -1.156,0.746 -2.084,1.254 -2.783,1.525 -0.701,0.27 -1.434,0.406 -2.197,0.406 -2.184,0 -3.471,-0.859 -3.863,-2.576 -2.164,1.68 -4.467,2.52 -6.912,2.52 -1.791,0 -3.283,-0.592 -4.477,-1.777 -1.195,-1.186 -1.791,-2.672 -1.791,-4.463 0,-1.623 0.582,-3.074 1.748,-4.352 1.166,-1.279 2.822,-2.29 4.969,-3.038 l 6.52,-2.238 v -1.371 c 0,-3.098 -1.549,-4.646 -4.645,-4.646 -2.781,0 -5.486,1.438 -8.117,4.311 v -5.568 c 1.979,-2.332 4.822,-3.498 8.535,-3.498 2.781,0 5.01,0.727 6.689,2.182 0.561,0.467 1.063,1.088 1.512,1.861 0.447,0.775 0.73,1.549 0.854,2.322 0.12,0.775 0.18,2.244 0.18,4.408 z m -5.009,10.382 v -7.64 l -3.414,1.315 c -1.734,0.691 -2.963,1.385 -3.68,2.086 -0.719,0.699 -1.078,1.572 -1.078,2.615 0,1.064 0.34,1.932 1.021,2.604 0.681,0.672 1.563,1.008 2.645,1.008 1.623,0 3.125,-0.662 4.506,-1.988 z"
         id="path565" />
      <path
         style="fill:#4258a4"
         inkscape:connector-curvature="0"
         d="m -102.015,99.984 v 3.273 c 2.275,-2.52 4.859,-3.777 7.752,-3.777 1.604,0 3.096,0.414 4.476,1.244 1.381,0.83 2.43,1.969 3.148,3.414 0.719,1.447 1.078,3.736 1.078,6.871 v 14.72 h -5.093 v -14.663 c 0,-2.631 -0.4,-4.512 -1.203,-5.641 -0.803,-1.127 -2.146,-1.691 -4.029,-1.691 -2.408,0 -4.451,1.203 -6.129,3.609 v 18.386 h -5.205 V 99.984 h 5.205 z"
         id="path567" />
      <path
         style="fill:#4258a4"
         inkscape:connector-curvature="0"
         d="m -352.847,135.987 h 5.121 v 39.096 h -10.887 c -3.806,0 -6.842,-1.203 -9.109,-3.609 -2.267,-2.406 -3.4,-5.635 -3.4,-9.684 0,-3.787 1.189,-6.902 3.568,-9.348 2.379,-2.443 5.416,-3.666 9.109,-3.666 1.717,0 3.582,0.365 5.598,1.092 v -13.881 z m 0,34.731 v -16.316 c -1.586,-0.801 -3.191,-1.203 -4.814,-1.203 -2.537,0 -4.557,0.832 -6.059,2.492 -1.502,1.66 -2.252,3.898 -2.252,6.715 0,2.65 0.652,4.693 1.959,6.129 0.783,0.859 1.613,1.438 2.49,1.736 0.877,0.298 2.453,0.447 4.729,0.447 h 3.947 z"
         id="path569" />
      <path
         style="fill:#4258a4"
         inkscape:connector-curvature="0"
         d="m -338.183,138.507 c 0.84,0 1.557,0.289 2.154,0.867 0.597,0.578 0.896,1.287 0.896,2.127 0,0.822 -0.299,1.529 -0.896,2.127 -0.597,0.598 -1.314,0.896 -2.154,0.896 -0.783,0 -1.475,-0.305 -2.07,-0.91 -0.598,-0.605 -0.896,-1.311 -0.896,-2.113 0,-0.783 0.299,-1.479 0.896,-2.084 0.596,-0.607 1.287,-0.91 2.07,-0.91 z m -2.519,10.83 h 5.094 v 25.746 h -5.094 v -25.746 z"
         id="path571" />
      <path
         style="fill:#4258a4"
         inkscape:connector-curvature="0"
         d="m -329.563,158.235 c 0,-2.742 1.002,-4.91 3.008,-6.506 2.006,-1.596 4.744,-2.393 8.215,-2.393 h 10.605 v 3.975 h -5.205 c 1.008,1.025 1.707,1.959 2.1,2.799 0.391,0.838 0.588,1.799 0.588,2.881 0,1.344 -0.383,2.664 -1.148,3.961 -0.765,1.297 -1.748,2.291 -2.951,2.98 -1.205,0.689 -3.178,1.24 -5.92,1.65 -1.922,0.279 -2.883,0.943 -2.883,1.988 0,0.596 0.359,1.086 1.078,1.469 0.719,0.383 2.02,0.779 3.904,1.189 3.152,0.689 5.182,1.23 6.086,1.623 0.904,0.391 1.721,0.951 2.449,1.68 1.23,1.23 1.848,2.779 1.848,4.645 0,2.443 -1.088,4.395 -3.262,5.85 -2.174,1.455 -5.078,2.182 -8.717,2.182 -3.676,0 -6.609,-0.732 -8.801,-2.195 -2.193,-1.465 -3.289,-3.43 -3.289,-5.893 0,-3.488 2.154,-5.736 6.465,-6.744 -1.717,-1.1 -2.574,-2.191 -2.574,-3.273 0,-0.82 0.367,-1.568 1.105,-2.24 0.736,-0.67 1.73,-1.164 2.98,-1.482 -3.789,-1.681 -5.681,-4.394 -5.681,-8.146 z m 8.367,18.051 c -1.717,0 -3.119,0.365 -4.211,1.092 -1.092,0.729 -1.637,1.66 -1.637,2.799 0,2.648 2.387,3.975 7.164,3.975 2.256,0 4.006,-0.332 5.246,-0.994 1.24,-0.662 1.861,-1.6 1.861,-2.813 0,-1.193 -0.783,-2.168 -2.35,-2.924 -1.567,-0.756 -3.591,-1.135 -6.073,-1.135 z m 1.203,-22.527 c -1.381,0 -2.555,0.467 -3.525,1.398 -0.971,0.934 -1.455,2.053 -1.455,3.359 0,1.324 0.477,2.42 1.428,3.287 0.951,0.869 2.154,1.303 3.609,1.303 1.438,0 2.635,-0.443 3.596,-1.33 0.961,-0.887 1.441,-1.992 1.441,-3.316 0,-1.344 -0.484,-2.463 -1.455,-3.357 -0.971,-0.897 -2.184,-1.344 -3.639,-1.344 z"
         id="path573" />
      <path
         style="fill:#4258a4"
         inkscape:connector-curvature="0"
         d="m -301.159,138.507 c 0.84,0 1.559,0.289 2.156,0.867 0.596,0.578 0.895,1.287 0.895,2.127 0,0.822 -0.299,1.529 -0.895,2.127 -0.598,0.598 -1.316,0.896 -2.156,0.896 -0.783,0 -1.473,-0.305 -2.07,-0.91 -0.597,-0.605 -0.895,-1.311 -0.895,-2.113 0,-0.783 0.297,-1.479 0.895,-2.084 0.597,-0.607 1.287,-0.91 2.07,-0.91 z m -2.518,10.83 h 5.094 v 25.746 h -5.094 v -25.746 z"
         id="path575" />
      <path
         style="fill:#4258a4"
         inkscape:connector-curvature="0"
         d="m -294.833,153.423 9.57,-9.402 v 5.316 h 8.145 v 4.59 h -8.145 v 12.621 c 0,2.947 1.221,4.422 3.666,4.422 1.828,0 3.76,-0.615 5.793,-1.848 v 4.758 c -1.959,1.102 -4.096,1.652 -6.408,1.652 -2.332,0 -4.273,-0.682 -5.822,-2.043 -0.484,-0.41 -0.885,-0.873 -1.203,-1.387 -0.316,-0.512 -0.582,-1.184 -0.797,-2.014 -0.215,-0.83 -0.322,-2.412 -0.322,-4.744 v -11.418 h -4.477 v -0.503 z"
         id="path577" />
      <path
         style="fill:#4258a4"
         inkscape:connector-curvature="0"
         d="m -255.962,159.608 v 10.941 c 0,0.877 0.299,1.314 0.895,1.314 0.617,0 1.576,-0.455 2.883,-1.371 v 3.107 c -1.156,0.746 -2.084,1.254 -2.783,1.525 -0.701,0.27 -1.434,0.406 -2.197,0.406 -2.184,0 -3.471,-0.859 -3.863,-2.576 -2.164,1.68 -4.467,2.52 -6.912,2.52 -1.791,0 -3.283,-0.592 -4.477,-1.777 -1.195,-1.186 -1.791,-2.672 -1.791,-4.463 0,-1.623 0.582,-3.074 1.748,-4.352 1.166,-1.279 2.822,-2.291 4.969,-3.037 l 6.52,-2.238 v -1.373 c 0,-3.096 -1.549,-4.645 -4.645,-4.645 -2.781,0 -5.486,1.438 -8.117,4.311 v -5.57 c 1.979,-2.332 4.822,-3.498 8.535,-3.498 2.781,0 5.01,0.729 6.689,2.184 0.561,0.467 1.063,1.086 1.512,1.861 0.447,0.773 0.73,1.549 0.854,2.322 0.12,0.775 0.18,2.245 0.18,4.409 z m -5.01,10.381 v -7.639 l -3.414,1.314 c -1.734,0.691 -2.963,1.385 -3.68,2.086 -0.719,0.699 -1.078,1.572 -1.078,2.615 0,1.064 0.34,1.932 1.021,2.604 0.681,0.672 1.563,1.008 2.645,1.008 1.624,0.001 3.125,-0.662 4.506,-1.988 z"
         id="path579" />
      <path
         style="fill:#4258a4"
         inkscape:connector-curvature="0"
         d="m -247.567,135.987 h 5.094 v 39.096 h -5.094 v -39.096 z"
         id="path581" />
    </g>
  </g>
</svg>
