<?xml version="1.0" encoding="UTF-8" standalone="no"?>
<!-- Created with Inkscape (http://www.inkscape.org/) -->

<svg
   xmlns:dc="http://purl.org/dc/elements/1.1/"
   xmlns:cc="http://creativecommons.org/ns#"
   xmlns:rdf="http://www.w3.org/1999/02/22-rdf-syntax-ns#"
   xmlns:svg="http://www.w3.org/2000/svg"
   xmlns="http://www.w3.org/2000/svg"
   xmlns:sodipodi="http://sodipodi.sourceforge.net/DTD/sodipodi-0.dtd"
   xmlns:inkscape="http://www.inkscape.org/namespaces/inkscape"
   width="297mm"
   height="210mm"
   viewBox="0 0 1052.3622 744.09448"
   id="svg2"
   version="1.1"
   inkscape:version="0.91 r13725"
   sodipodi:docname="ngonoo.svg">
  <defs
     id="defs4" />
  <sodipodi:namedview
     id="base"
     pagecolor="#ffffff"
     bordercolor="#666666"
     borderopacity="1.0"
     inkscape:pageopacity="0.0"
     inkscape:pageshadow="2"
     inkscape:zoom="0.40405432"
     inkscape:cx="853.18616"
     inkscape:cy="917.56199"
     inkscape:document-units="px"
     inkscape:current-layer="layer1"
     showgrid="false"
     inkscape:window-width="1680"
     inkscape:window-height="1001"
     inkscape:window-x="0"
     inkscape:window-y="1"
     inkscape:window-maximized="1" />
  <metadata
     id="metadata7">
    <rdf:RDF>
      <cc:Work
         rdf:about="">
        <dc:format>image/svg+xml</dc:format>
        <dc:type
           rdf:resource="http://purl.org/dc/dcmitype/StillImage" />
        <dc:title></dc:title>
      </cc:Work>
    </rdf:RDF>
  </metadata>
  <g
     inkscape:label="Layer 1"
     inkscape:groupmode="layer"
     id="layer1"
     transform="translate(0,-308.26772)">
    <g
       id="g3453"
       transform="matrix(1.3709259,0,0,1.3709259,-31.799071,-414.41115)"
       inkscape:export-filename="/Users/log/Downloads/ngonoo.png"
       inkscape:export-xdpi="120"
       inkscape:export-ydpi="120">
      <path
         sodipodi:nodetypes="sssscsssssssscccsssssssscsssssssssscssssscc"
         style="fill:#cb321e"
         d="m 616.84406,718.2148 c -9.41343,-8.32984 -17.11533,-15.45725 -17.11533,-15.8387 0,-1.37436 9.97221,-10.48117 10.72696,-9.79606 0.42517,0.38595 6.05275,5.98382 12.50574,12.43971 l 11.73269,11.73799 12.28175,-12.25 c 6.75496,-6.7375 12.74405,-12.25 13.30909,-12.25 1.97189,0 9.73274,8.80457 9.13467,10.36313 -0.70919,1.84812 -32.31065,30.01666 -34.14748,30.43798 -0.72202,0.16562 -9.01466,-6.51421 -18.42809,-14.84405 z M 466.98337,665.66228 c -21.03495,-18.44058 -38.69745,-33.2489 -39.25,-32.90741 -0.63031,0.38955 -1.00464,10.1112 -1.00464,26.09091 l 0,25.47001 -13.25,-0.27902 -13.25,-0.27903 -0.25826,-56.75 c -0.21719,-47.72716 -0.0387,-56.75 1.12265,-56.75 0.7595,0 18.32981,14.85 39.04513,33 20.71533,18.15 38.09764,33 38.62735,33 0.59441,0 0.96313,-10.6429 0.96313,-27.8 0,-20.28889 0.32422,-28.12422 1.2,-29 0.79802,-0.79802 5.16106,-1.2 13.02475,-1.2 11.38115,0 11.85196,0.0844 12.55,2.25 0.94696,2.93782 0.41946,118.76034 -0.54067,118.71641 -0.40375,-0.0185 -17.94449,-15.12132 -38.97944,-33.56187 z m -144.75464,21.64448 c -11.61259,-2.50563 -22.49667,-8.91567 -30.89318,-18.19411 -16.17337,-17.87215 -18.95121,-43.91554 -7.02193,-65.83355 3.27156,-6.01093 13.32489,-16.13993 20.54126,-20.69587 15.13012,-9.55215 37.20483,-10.476 54.52482,-2.2819 9.12977,4.3193 21.65102,16.76184 26.23197,26.06707 5.73814,11.65581 7.1697,26.22529 3.91943,39.88934 -3.87069,16.27233 -18.91696,32.41938 -36.30237,38.95828 -6.66277,2.50597 -23.7383,3.6576 -31,2.09074 z m 24.1709,-28.47614 c 6.31977,-2.94249 12.94731,-9.54121 15.6409,-15.57288 2.79573,-6.26041 2.79345,-16.90795 -0.005,-23.1224 -8.92692,-19.8241 -34.44936,-24.67527 -49.49686,-9.40811 -7.04884,7.15173 -10.3995,18.97837 -7.94581,28.04589 2.41325,8.91809 10.69989,17.93183 19.45177,21.15854 5.77107,2.12772 16.56184,1.59625 22.35496,-1.10104 z"
         id="path3449"
         inkscape:connector-curvature="0" />
      <path
         style="fill:#090909"
         d="m 126.11144,666.1692 c -20.28549,-17.72272 -37.67297,-32.90024 -38.638842,-33.72783 -0.965872,-0.82758 -2.090872,-1.17084 -2.5,-0.76278 -0.409128,0.40806 -0.968869,12.2928 -1.243869,26.41054 l -0.5,25.66861 -11.769143,0.2819 c -8.858975,0.2122 -11.890443,-0.0351 -12.259695,-1 -0.269804,-0.70504 -0.37369,-26.39743 -0.230857,-57.09419 l 0.259695,-55.8123 38.405483,33.5938 c 21.123018,18.47659 38.898008,33.4298 39.499998,33.22936 0.75045,-0.24988 1.17794,-9.38549 1.3599,-29.06127 l 0.26539,-28.69682 12.73461,0.27976 12.73462,0.27976 0.25814,58.44186 c 0.14347,32.48118 -0.13074,58.83074 -0.61729,59.31729 -0.50058,0.50058 -16.66851,-12.92242 -37.75814,-31.34769 z m 439.11729,21.06506 c -16.87826,-2.27446 -33.6981,-13.90052 -41.8927,-28.95671 -8.50911,-15.63403 -8.52676,-36.86559 -0.0441,-53.00818 4.50798,-8.57871 15.74104,-19.62204 24.41085,-23.99854 18.6065,-9.39254 41.61209,-7.6198 58.62042,4.51709 15.33345,10.9417 23.40553,26.62332 23.40553,45.46982 0,16.58107 -4.60111,27.60565 -16.49407,39.52098 -13.45427,13.47957 -29.43632,18.95792 -48.00593,16.45554 z m 17.07642,-26.44337 c 17.57707,-5.21983 26.90115,-25.81711 18.99875,-41.96903 -1.50482,-3.07575 -4.84459,-7.41918 -7.63133,-9.92471 -18.80087,-16.90359 -48.90762,-4.74844 -50.71847,20.47682 -1.54678,21.54673 18.55243,37.59345 39.35105,31.41692 z m 105.92358,26.44337 c -16.78902,-2.26243 -33.74142,-13.98013 -41.8927,-28.95671 -8.50911,-15.63403 -8.52676,-36.86559 -0.0441,-53.00818 4.50798,-8.57871 15.74104,-19.62204 24.41085,-23.99854 13.31753,-6.72267 31.52148,-7.84974 45.17228,-2.79677 12.65518,4.68443 25.38301,16.0012 31.44031,27.95472 8.35077,16.47945 7.07848,39.94856 -2.98782,55.11407 -12.48841,18.81459 -34.0054,28.66865 -56.09885,25.69141 z m 20.75756,-27.76625 c 5.88433,-2.60292 12.6672,-9.35767 15.7115,-15.64636 3.47495,-7.17828 3.3304,-17.38762 -0.35276,-24.91572 -11.47397,-23.45197 -43.86401,-23.66712 -55.76,-0.37039 -3.03351,5.94074 -3.61411,15.92458 -1.32658,22.81167 2.97261,8.94971 12.38045,17.53065 21.97028,20.03923 4.82384,1.26186 14.74596,0.29843 19.75756,-1.91843 z m -487.76844,23.74971 c -20.16561,-2.6383 -37.78856,-17.29901 -44.56419,-37.07341 -3.02696,-8.83408 -3.05885,-23.67958 -0.0708,-32.9587 4.37471,-13.58523 15.65088,-26.40823 28.64587,-32.57541 18.54511,-8.80117 39.37951,-6.74148 56.25,5.56088 2.3375,1.70456 4.25,3.70937 4.25,4.45513 0,1.62998 -16.64146,15.63153 -18.57876,15.63153 -0.74781,0 -3.28601,-1.00707 -5.64045,-2.23794 -6.60696,-3.45403 -17.09158,-3.68491 -23.95998,-0.52762 -7.38742,3.39587 -11.28743,6.97602 -14.2944,13.12206 -5.36561,10.96691 -3.99101,22.42592 3.74434,31.21375 6.12579,6.95926 12.38343,9.70885 23.26557,10.22282 6.98712,0.33001 9.30372,0.1046 10.21548,-0.99401 0.71165,-0.85748 1.29197,-5.95614 1.46368,-12.85993 l 0.28452,-11.43913 11.4157,-0.2843 c 6.58824,-0.16408 11.83332,0.13332 12.40327,0.70327 1.56828,1.56828 2.19103,47.7616 0.66862,49.59599 -1.01852,1.22723 -4.55306,1.46303 -20.36003,1.35824 -10.52016,-0.0697 -21.83245,-0.48069 -25.13844,-0.91322 z"
         id="path3447"
         inkscape:connector-curvature="0" />
    </g>
  </g>
</svg>
